<?xml version="1.0" encoding="utf-8"?>
<!-- Generator: Adobe Illustrator 27.0.0, SVG Export Plug-In . SVG Version: 6.00 Build 0)  -->
<svg version="1.1" id="Layer_1" xmlns="http://www.w3.org/2000/svg" xmlns:xlink="http://www.w3.org/1999/xlink" x="0px" y="0px"
	 viewBox="0 0 1711.7 1992.1" style="enable-background:new 0 0 1711.7 1992.1;" xml:space="preserve">
<style type="text/css">
	.st0{fill:#A39090;}
	.st1{fill:#745298;}
	.st2{fill:#FFC862;}
	.st3{fill:#F9555A;}
	.st4{fill:#A39090;stroke:#D3D3D3;}
	.st5{fill:#FF9158;}
	.st6{fill:#FFB59F;}
	.st7{fill:#CB7856;}
	.st8{fill:#A1DC93;}
	.st9{fill:#A39090;fill-opacity:0;}
	.st10{opacity:0;}
	.st11{fill:#A39090;stroke:#FFFFFF;stroke-width:1.5;}
	.st12{fill:#96BCF2;stroke:#A39090;stroke-miterlimit:10;}
	.st13{opacity:0.8;}
	.st14{fill:#D0BF87;stroke:#D0BF87;stroke-miterlimit:10;}
	.st15{opacity:0.5;fill:#44C0A7;stroke:#44C0A7;stroke-miterlimit:10;enable-background:new    ;}
	.st16{fill:none;stroke:#232F99;stroke-miterlimit:10;}
</style>
<g id="svg2" xmlns:svg="http://www.w3.org/2000/svg" xmlns:inkscape="http://www.inkscape.org/namespaces/inkscape" xmlns:sodipodi="http://sodipodi.sourceforge.net/DTD/sodipodi-0.dtd" xmlns:dc="http://purl.org/dc/elements/1.1/" xmlns:rdf="http://www.w3.org/1999/02/22-rdf-syntax-ns#" xmlns:cc="http://creativecommons.org/ns#" inkscape:version="1.0.1 (c497b03c, 2020-09-10)" sodipodi:docname="North_America_second_level_political_division_2.svg">
	
		<sodipodi:namedview  bordercolor="#666666" borderopacity="1" gridtolerance="10" guidetolerance="10" id="namedview11367" inkscape:current-layer="g1973" inkscape:cx="1129.5771" inkscape:cy="1067.3765" inkscape:document-rotation="0" inkscape:pageopacity="0" inkscape:pageshadow="2" inkscape:window-height="997" inkscape:window-maximized="0" inkscape:window-width="1680" inkscape:window-x="0" inkscape:window-y="25" inkscape:zoom="1.0662719" objecttolerance="10" pagecolor="#ffffff" showgrid="false">
		</sodipodi:namedview>
	<g id="g1963">
		<g id="USA" transform="translate(-542.46694,-8.2627514)">
			<path id="US-AL" class="st0" d="M1678.9,1169.8c-0.6-1.5-1.9-1.7-5.2-0.9l-4.4,1.1l-1.6-48c-0.9-26.3-1.5-50.6-1.4-53.7
				c0.1-3.2,0.5-10.6,0.7-16.5c0.2-6,0.5-11.8,0.6-13c0.2-1.2,0.4-7.1,0.6-13.2s0.4-11.9,0.5-13.1c0.2-1.4,1.7-2.1,5.1-2.4
				c2.7-0.3,16.7-1.3,31.1-2.6l26.2-2.1l1.5,4.6c0.8,2.6,2.3,7.5,3.2,10.9c0.9,3.5,3,9.6,4.6,13.7c2.6,7,4.7,16,7.1,30.5
				c0.5,3.3,2.9,9.1,5.1,13.1c4.3,7.4,4.5,8.2,5,28.7c0.3,10.3,0.8,13.7,3.9,24.3c0.8,2.6,1,4.9,0.5,5.2c-0.5,0.3-8.5,0.9-17.8,1.5
				c-9.4,0.6-24.8,1.8-34.1,2.7c-15,1.4-17.3,1.9-19.2,4.3c-2.6,3.3-2.6,2.9,1.4,11.7c1.9,4.1,3.9,8.9,4.4,10.8l1.1,3.5l-9,0.5
				C1681.8,1171.5,1679.4,1171.1,1678.9,1169.8z"/>
			<path id="US-AR" class="st0" d="M1505.8,1073.8l-0.9-9.5l-4.2-0.9c-4.9-1.2-4.3,1.9-5.8-35.4c-0.6-13.9-1.4-33.2-2-42.8l-1-17.5
				l55.7-2.3c30.6-1.3,56.1-1.9,56.5-1.6s0.2,3.4-0.6,6.6c-1.6,6.7-1.2,7.3,6.5,8.9c3,0.7,5.6,1.9,5.6,2.6c0,0.8-1.7,4.7-3.9,8.8
				c-2.1,4-4.4,10.2-5,13.8c-0.8,4.1-2.9,8.4-5.9,12.2c-3.3,4.2-4.8,7.6-5.3,11.7c-0.3,3.7-2.1,8.1-5.1,12.4
				c-6.5,9.5-8.2,16.3-7.5,28.3l0.6,10.1l-38.6,1.9l-38.6,1.9L1505.8,1073.8z"/>
			<path id="US-AZ" class="st1" d="M1059.7,1106.2c-6.3-1.1-13.8-2.6-17.6-3.4c-3.6-0.8-9-4-11.6-3.9c-4.1,0.2-6.4-2.1-13.4-7.3
				c-4.7-3.4-9.8-7.3-11.2-8.4c-1.5-1.2-8-5.4-14.4-9.3c-14.1-8.6-45.3-27.3-51.8-32.6c-2.5-2,4.7-5.7,2.2-6.6
				c-4.8-1.7-16-2.1-14.9-4.1c0.3-0.7,6.1-4,10-5.7c6.3-3,6.8-3.5,6.6-7.3c-0.1-2.5-1.3-4.9-2.8-6.2c-3.8-3.1-3.5-6.2,1.3-11.6
				c2.4-2.7,5.2-7.1,6.5-9.8c1.4-3,3.2-5.1,4.6-5.2c1.3-0.1,3.7-1.8,5.6-4l3.4-3.8l-3.2-5.4c-2.6-4.4-3.3-7.4-3.7-16.4
				c-0.3-6.1-0.2-11.2,0.2-11.2s1-5,1.2-11.2c0.2-7.9,1-12.2,2.7-14.7c2.2-3.4,2.7-3.6,9.6-3.3l7.3,0.4l3.5-11.1
				c2-6.1,4-11.4,4.5-11.6c1-0.7,122.1,22.8,124.3,24c0.8,0.5,1,1.9,0.3,3.7c-0.6,1.7-1.2,4.6-1.4,6.7c-0.3,2-3.6,21.6-7.5,43.4
				c-3.9,21.9-7.2,40.8-7.4,42.2c-0.2,1.4-2.3,12.9-4.4,25.6c-2.3,12.7-5.7,32.6-7.7,44.5
				C1076.2,1107.4,1077.9,1109.2,1059.7,1106.2z"/>
			<g id="US-CA">
				<path id="path11177" class="st2" d="M921.2,1029.5c-2.1-1.2-32.4-3.6-48.8-6.6c-11.4-2.1-9-10.7-10.5-27.3
					c-1.1-12.1-1.4-13.3-6.2-20.2c-2.7-4.1-7.3-8.8-10-10.5c-2.8-1.8-5.7-4.7-6.7-6.4s-3.8-5-6.6-7s-6.9-6.3-9.4-9.6
					c-4.9-6.4-11.3-11.1-15.3-10.9c-3.7,0.2-11.7-4.6-15.6-9.2c-3.8-4.6-3.9-10.1-0.5-14.3c2.6-3.3,2-8.3-3.3-23.7
					c-2.5-7.2-4.5-14.6-4.6-16.4c-0.1-1.8-2.2-6.2-4.7-9.9c-5.2-7.7-5.2-8-2.2-13.1c3.3-5.5,2.5-16-1.6-21c-2.6-3.2-3-4.7-2.5-10
					c0.3-3.4,1.5-7.7,2.8-9.5c3.2-4.6,1.7-9.5-4.3-14.1c-4.4-3.3-5.1-4.6-5.4-9.9c-0.3-3.3-1.8-8.7-3.5-12s-3.9-9.2-4.8-13.1
					c-1.7-6.8-1.7-7.9,2-21.5l3.7-14.4l-3.6-7.7c-3.4-7.6-3.6-7.7-1.5-12.7c1.1-2.8,3.2-6.6,4.8-8.6s5.7-8.4,9.2-14.3
					c5.5-9.2,6.4-11.6,6.3-17.1c-0.1-4.1,0.3-6.2,1.2-5.9c1.5,0.4,37.5,11.4,58.8,18c7.5,2.3,19.5,6,26.7,8.2c13,4,13.1,4,12,7.4
					c-0.7,1.8-3.5,11.2-6.3,20.7s-7.7,25.8-10.9,36.1c-3,10.3-6.6,22-7.8,26.2c-2.2,7.3-1.7,16,1,19.1c0.7,0.7,4.7,7.1,8.8,14.3
					c25.4,42.8,86.2,143.8,87.2,145.1c0.8,0.8,1.4,5.5,1.5,10.3c0.1,6.7,0.9,9.9,3.1,13.8c3.3,5.9,3,7.1-2.5,8.8
					c-3,0.9-4.7,2.6-6.6,7.1c-1.5,3.1-4.6,7.8-6.8,10.5c-4.8,5.6-5.3,11.4-1,15.5c3.9,3.9,3.4,4.9-3.8,8.4
					C924,1026.7,923.5,1030.7,921.2,1029.5z"/>
				<path id="path11179" class="st2" d="M831,991.8c-4-1.8-2.2-5.2,2.4-4.3c3.7,0.7,4.3,2.1,2,4.2
					C834.3,992.6,832.9,992.7,831,991.8z"/>
				<path id="path11181" class="st2" d="M833.9,974.9c-2.1-2.2-2.2-4.3-0.2-4.4c2.2-0.1,4.8,2.3,4.9,4.4
					C838.7,977,835.9,977.1,833.9,974.9z"/>
				<path id="path11183" class="st2" d="M805.5,946.6c-4.7-0.7-11.6-4.2-11.7-6c0-0.6,3-1.3,6.8-1.5c4.9-0.2,8,0.4,11.3,2.4
					c2.5,1.5,4.5,3.2,4.5,4C816.3,946.8,811.5,947.4,805.5,946.6z"/>
			</g>
			<path id="US-CO" class="st3" d="M1278.3,935.8c-5.6-1.1-25.2-4.1-42.8-6.6c-1.4-0.2-5.5-0.7-8.9-1.3c-3.6-0.5-7.8-1.1-9.6-1.3
				c-3.1-0.4-20.7-2.8-65.2-9c-10.9-1.5-23.5-3.4-28.1-3.9c-5.9-0.8-8.2-1.7-8.1-3c0.1-1,3.5-21.7,7.7-45.9
				c4.1-24.3,7.8-45.3,7.9-46.7c0.2-1.4,1.7-9.7,3.1-18.6c2.3-14,3.1-16,5.2-15.9c1.4,0.1,8.2,1,15.1,2.2s13.9,2.2,15.7,2.4
				c1.7,0.2,4.1,0.7,5.3,1c1.3,0.3,3.7,0.7,5.4,1c4.6,0.5,19.1,2.9,46.7,7.4c13.3,2.3,26.6,4.1,29.4,4.2c2.8,0.1,6.7,0.4,8.9,0.7
				c2.2,0.3,5.9,0.7,8.3,1c23.2,2.5,30,3.7,29.8,5.5c-0.9,9.8-5.2,59.1-5.5,63.1c-0.2,2.8-0.6,6.5-0.7,8.3c-0.2,1.8-0.5,5.2-0.8,7.7
				c-0.3,2.4-1.1,12.7-2,22.9s-1.8,20.1-1.9,22.3c-0.2,3.2-0.8,3.8-4,4.1C1287,937,1282.1,936.5,1278.3,935.8z"/>
			<path id="US-CT" class="st0" d="M2006,738.8c0.2-0.9-0.6-4.2-2-7.3c-1.3-3.1-2.2-6.7-2.2-8.1c0.2-1.4,0.3-4.3,0.3-6.5l0.1-3.9
				l13.9-3.6c7.6-2,14.5-3.8,15.3-3.9c1.1-0.3,7.6,18.1,7.8,22.3c0,0.4-3.2,1.8-7.2,3.2c-10.9,3.6-19.4,7.1-20.8,8.3
				C2009.6,740.7,2005.6,740.4,2006,738.8z"/>
			<path id="US-DC" class="st0" d="M1934.5,833.5c-1.2-1.3-1.1-2.1,0.1-3.2c1.3-1.2,2.1-1.1,3.2,0.1c1.2,1.3,1.1,2.1-0.1,3.2
				C1936.4,834.9,1935.7,834.8,1934.5,833.5z"/>
			<path id="US-DE" class="st0" d="M1968.7,830.1c-1.7-5.4-4-13.6-5.1-18.3c-1.8-7.3-1.8-8.8-0.2-9.8c3.1-2.2,3.6-1.6,3.9,3.5
				c0.5,9.6,1.7,12,8.3,15.4c5.9,3.1,13.4,12,13.6,15.8c0.1,1.1-2.4,1.9-8.6,2.3l-8.7,0.7L1968.7,830.1z"/>
			<path id="US-FL" class="st0" d="M1862.7,1133.4c-0.8,0-1.5,0.1-2.3,0.2l-5.2,0.6v6.7c-0.1,7.7,0,7.7-4.3,8.7
				c-2.4,0.5-3.7-0.1-5.3-2.3c-1.8-2.3-3.2-2.9-7-2.7c-2.7,0.1-19.4,1-37.2,1.9l-32.5,1.5l-1.1-3.9l-1.1-3.9l-33,2.5
				c-18.2,1.4-34.3,2.7-35.6,3.1c-1.4,0.3-2.9,0.7-3.5,0.8c-1.5,0.2-1,3.2,2,9.7c1.6,3.3,3.2,7.6,3.7,9.6c0.6,2.5,1.6,3.3,3.1,2.8
				c1.1-0.4,7.9-1.4,15.1-2.2l12.9-1.5l7.6,4.1c4.2,2.2,9.5,4.6,12.1,5.2c2.7,0.8,5.7,2.9,7.8,5.4c3,3.9,3.6,4.3,7.8,3.3
				c2.5-0.6,9-3.6,14.4-6.7c15.1-8.5,17.8-9.4,22.5-7.5c2.2,0.9,5.4,3.5,7.1,5.9c1.8,2.3,8.2,8.3,14.2,13.2
				c12.7,10.4,13.5,12,15.5,30.7c0.9,7.8,2.7,16.2,4.9,22.3c1.9,5.4,3.6,10.7,3.6,11.9c0.1,1.1,2.2,3.7,4.7,5.7
				c3,2.4,5.6,6.2,7.7,11c2.4,5.7,4.3,8.3,8.2,10.8c2.8,1.8,6.8,5.9,8.8,9.2c2.1,3.3,5.3,6.6,7.2,7.3c1.9,0.8,6.8,4.9,11,9.1
				c7.9,8,18.1,14.2,21.6,13c5-1.8,12.7-2.7,12.7-1.5c0.2,4.3-13.2,15.6-22.5,19c-2.7,1-5.5,2.4-6.2,3.2c-0.8,0.9-0.6,1,0.7,0.6
				c1-0.4,4.7-1.8,8.1-3.2c7-2.8,16.9-10.2,19.4-14.8c0.9-1.6,1.8-7.2,2-12.4c0.2-5.2,1.1-11.1,2-13c1.3-2.7,1.4-7.8,0.5-21.1
				c-1.2-16.7-1.4-17.8-5.4-24.9c-2.4-4.1-6.8-11.8-10-17.4s-6.5-12.7-7.4-16.1c-3.3-12.1-6.4-18.5-13.5-27
				c-11.2-13.3-27.1-43.6-27.5-52.3C1870.5,1134.9,1867.8,1133.3,1862.7,1133.4z M1904.8,1249.4c0.4,0,0.9,0.1,1.3,0.2
				c3.3,0.6,3.5,1.1,3.4,7.3c0,7.2-1.5,8.4-7.1,5.9C1896.1,1260,1898.5,1249.5,1904.8,1249.4z"/>
			<path id="US-GA" class="st0" d="M1848.2,1143.1c-1.9-2.7-2-2.7-38.9-0.8l-37,1.9l-1.3-4.1c-0.7-2.2-2-3.8-2.7-3.7
				c-0.8,0.2-1.4,0.2-1.4-0.1c0-0.3-1.2-5.3-2.6-11c-1.4-5.8-2.6-14.5-2.6-19.4c-0.2-19.3-0.8-23.3-4.5-28.3
				c-3.3-4.5-5.6-12.3-8.1-27.5c-0.5-3.1-2.5-10.2-4.5-15.6c-5.6-16.3-8.6-26.7-7.8-28.2c0.3-0.8,2-1.2,3.5-1.3
				c2.7,0,19.1-2,28.6-3.6c2.4-0.4,9.3-1.4,15.4-2l11-1.3l-0.9,3.9c-0.7,3.2-0.4,4.3,2.6,6.8c2,1.7,4.7,3.3,6.3,3.6
				c1.5,0.4,6.2,4.5,10.5,9.1c4.2,4.6,10.7,10.6,14.4,13.2c8,5.7,20.7,19.8,25.7,28.8c2,3.6,4.6,6.6,5.8,6.9
				c1.3,0.3,3.4,2.4,4.8,4.6c3.6,5.5,9,10.7,11.2,10.6c1.1-0.1,1.6,0.7,1.1,2.2c-0.3,1.3-2.4,8.1-4.4,15.2c-2.6,9-3.7,15.2-3.4,20.2
				c0.3,5.3,0,7.1-1.2,6.5c-1.6-0.9-13-0.2-16.3,1.1c-1.6,0.6-1.8,1.7-0.9,5.5c0.6,2.6,0.8,5.9,0.4,7.2
				C1850.1,1145.8,1850,1145.8,1848.2,1143.1z"/>
			<path id="US-IA" class="st0" d="M1562.6,826c-2.4-2.2-5.3-2.3-34.8-1.6c-17.7,0.4-35.7,0.8-39.9,0.9c-4.2,0-11.2,0.2-15.3,0.3
				l-7.7,0.3l-2.8-5.3c-1.5-2.8-3.4-9-4-13.5c-1.2-8.1-2.4-15.5-4-23.7c-0.4-2.3-2.2-6.9-4.2-10.1c-3.1-5.3-3.6-7.7-4.4-21.6
				c-0.6-8.6-1-16.4-1-17.3c0.1-1.3,12.7-2.2,61.1-4.3l61-2.7l1.2,4.4c0.6,2.4,1.8,7.8,2.4,11.9c1.3,8.3,4.8,14,9.4,14.9
				c1.5,0.3,3.7,2.1,4.5,4c0.9,1.9,2.9,4.8,4.6,6.6c5.1,5.6,3.6,20.3-2.5,23.7c-1.2,0.7-4.6,1.8-7.5,2.4c-5.3,1.2-5.4,1.3-5.1,6.5
				c0.6,19.3,0.5,19.5-4.9,23.8C1565.3,828.3,1565.2,828.3,1562.6,826z"/>
			<path id="US-ID" class="st0" d="M1083.6,735.1c-2.8-0.7-22.2-5.6-43.1-11c-20.8-5.4-43.5-11.1-50.1-12.8
				c-6.7-1.7-18.3-4.7-25.5-6.5c-15.4-3.8-14.6-1-7.5-24.8c2.7-8.9,5.1-19,5.5-22.5c0.4-4.7,1.5-7.4,4.2-10.6
				c3.5-4,3.6-4.5,2.5-11.5c-0.7-4-1.3-7.7-1.3-7.9c-0.4-2.6,0.6-4.1,4-6.2c4.3-2.5,10.6-9.7,10.4-11.9c0-0.8,2.1-3.8,4.7-6.6
				l4.7-5.2l-2.4-10c-3.9-16.4-3.5-26.5,1.4-43c2.4-7.9,7.4-25.1,11.3-38.1c3.9-13,7.2-24.1,7.5-24.4c0.8-0.9,16,3,16.1,4.1
				c0,0.5-1.1,6.7-2.5,13.6c-1.7,8.3-2.4,16-2.1,22.2c0.3,5.2,0.7,10.6,0.7,12s2.5,6.3,5.4,11.2c2.9,4.8,5.9,10.6,6.5,13
				c1.1,4.3,5.8,11.3,7.8,12c1.8,0.7,1.3,5.8-1,9.8c-1.3,2.2-2.3,5.7-2.1,8c0.1,2.9-0.5,4.3-2.4,4.9c-2.9,1-4.7,5.6-4.4,11
				c0.2,3,0.8,3.8,4.5,4.6c2.4,0.5,5.7,0.6,7.5,0.3c2.6-0.6,3.4-0.2,4.7,3.4c0.9,2.2,2,7,2.7,10.4c0.6,3.4,1.3,6.5,1.6,6.9
				c0.3,0.4,0.9,2.6,1.4,5.1c2.1,9.8,3.9,14.1,6.8,16.9c2.7,2.5,3.7,2.7,10,1.8c4.7-0.7,10-0.5,15.6,0.6c4.7,0.9,9.6,1.3,10.8,0.9
				c3.6-1.3,5.9,0.7,5.3,4.8c-0.3,2-2.6,14.8-5.2,28.7c-2.6,13.7-5.7,30.2-6.9,36.5l-2.2,11.5L1083.6,735.1z"/>
			<path id="US-IL" class="st0" d="M1627.2,936.8c-1.2-14.3-2.2-15.8-15.7-24.5c-9.2-6-9.9-6.7-9.4-10.3c0.3-2.2,0.7-6.8,0.9-10.4
				c0.4-7.3-0.8-9.3-8.7-13.3c-4-2.1-7-6.1-7.2-9.7c0-0.9-3.8-5.4-8.5-9.9c-8.8-8.6-9.5-9.7-11.1-19.7l-1.1-6.3l5.8-5l5.8-5
				l-0.4-11.1c-0.2-6.1-0.2-11.3-0.1-11.4c0.1-0.1,1.9-0.7,3.6-1.1c9.7-2.3,14.4-9.2,14.7-21.2c0.1-5.5-0.5-7.1-3.9-11.5
				c-2.2-2.8-4.1-5.4-4.1-5.6c0-0.4,7.2-0.7,16.2-1.1c8.9-0.2,23.7-0.8,32.9-1.1l16.8-0.7l0.2,3.2c0.1,1.8,1,4.4,2.1,6
				c3.6,5,4.8,15,7.3,60.2c1.4,24.7,3,47.3,3.5,50.1c0.9,4.5,0.3,6.3-4.2,14.3c-4.6,7.8-5.2,10.2-5.4,18.2
				c-0.3,10.8-2.5,17.6-6.2,19c-1.5,0.6-3.2,2.1-3.8,3.5c-0.9,2.1-2.5,2.5-8.4,2.8c-4.8,0.2-7.8,1-9.4,2.6
				C1627.6,939.7,1627.5,939.7,1627.2,936.8z"/>
			<path id="US-IN" class="st0" d="M1661.6,906.3c0.2-2.7,2.5-8.5,5.1-12.9l4.7-8.2l-3-49.6c-1.6-27.3-3.2-50.6-3.6-51.8
				c-0.5-1.6,0.3-2.3,2.8-2.4c1.9-0.1,4-0.8,4.6-1.5c0.7-0.8,11.8-2,27.6-3c22.6-1.4,26.5-1.3,26.8,0.3c2,10.2,9.2,92.7,8.3,95.4
				c-0.3,1-2.1,2-4,2.1c-4.4,0.2-4.9,0.8-11.8,10.7c-7.9,11.7-8.6,12.4-13.1,12.7c-2.1,0.2-7,2.4-10.7,4.7c-6,4-7.8,4.5-15.6,4.7
				c-4.8,0.1-10.5,0.9-12.3,1.9C1661.9,912,1661.2,911.5,1661.6,906.3z"/>
			<path id="US-KS" class="st0" d="M1477.6,945c-0.1-0.1-6-0.3-13-0.5s-13.6-0.3-14.6-0.5s-7.4-0.5-14-0.6c-6.6,0-13-0.4-14-0.6
				c-1-0.2-7.6-0.4-14.6-0.5c-7-0.2-13.6-0.3-14.6-0.5s-7.4-0.4-14-0.6c-6.6-0.2-13-0.4-14-0.6c-1-0.2-7.4-0.4-14-0.6
				c-6.6-0.2-13-0.5-14-0.6c-1-0.2-7.6-0.4-14.6-0.5s-13.6-0.5-14.6-0.5c-1-0.2-3.9-0.2-6.5-0.2l-4.6,0.1l1.5-16.3
				c0.8-8.9,1.6-18.9,1.9-22.1c0.2-3.2,0.7-7.1,0.8-8.9s0.6-5.2,0.8-7.7c0.1-2.4,0.8-9.1,1.3-14.7c0.5-5.6,1-12.2,1.3-14.7
				c0.1-2.4,0.6-6.6,0.8-9.4l0.5-5l8.4,0.3c8.1,0.2,27.7,1.4,37,2.1c2.4,0.1,8.1,0.5,12.7,0.8c4.6,0.2,9.7,0.5,11.5,0.7
				s6.9,0.4,11.5,0.7s9.7,0.5,11.5,0.7s7.5,0.5,12.7,0.6s10.4,0.5,11.5,0.7c1,0.2,6.2,0.4,11.5,0.7c5.2,0.2,10.7,0.6,12,0.8
				s7.4,0.4,13.4,0.6c9.8,0.1,11.3,0.6,14.8,3.7c3.8,3.4,3.9,3.5,1.7,7c-1.8,3-1.8,4.3-0.3,8.4c0.9,2.6,2.5,4.8,3.5,4.8
				c1-0.1,2.5,0.9,3.2,2.1c2.4,3.9,4.9,38.6,4.1,55.5l-0.7,15.6l-3.7-0.1C1479.5,945.3,1477.7,945.1,1477.6,945z"/>
			<path id="US-KY" class="st0" d="M1631.9,949.2c-0.1-3.7,0.5-7.5,1.1-8.3c0.7-1.1,4.1-1.9,8.5-2.1c5.3-0.3,7.7-0.9,8.1-2.3
				c0.3-1,2.4-3,4.6-4.5c3.2-2.1,4.4-4,5.4-9.2c1.2-6.2,1.6-6.6,7.1-8.6c3.1-1.2,9.8-2.3,14.8-2.5c8.1-0.4,9.9-0.9,15.4-4.7
				c3.7-2.5,7.9-4.3,10.3-4.5c4.4-0.2,8.7-4.4,16.6-16.1c2.2-3.3,4.1-6.2,4.4-6.4c0.2-0.3,2.7-1,5.8-1.6l5.3-1l0.1-6.1l0.1-6.1
				l4.3,0.4c2.4,0.3,6.7,1.9,9.6,3.8c6,3.9,14.2,5.1,28.2,4c8.3-0.7,9.9-0.4,12.1,1.8c1.7,1.7,2.5,3.9,2.4,7
				c-0.1,5.1,2.8,10.1,11.2,19.1l5.6,5.9l-2.9,2.3c-3.4,2.7-4.9,4.3-16.3,18.5c-7.4,9.1-9.1,10.6-12.8,10.8
				c-11.8,0.7-88.5,6.6-93.4,7.1c-3.2,0.3-9.9,0.9-14.9,1.1c-7.5,0.5-9.3,1-10,2.9c-0.9,2.7,0.2,2.4-16.9,4.3l-13.6,1.6
				L1631.9,949.2z"/>
			<path id="US-LA" class="st0" d="M1643.2,1215.1c-2.2-0.5-6.6-2.1-10.1-3.3c-5.6-2-6.6-2-10.2-0.1c-4.5,2.3-7.7,3.3-15.9,4.7
				c-7.7,1.4-15.7-1.8-22.9-9.4c-3.1-3.3-8.3-7.1-11.6-8.4l-6-2.6l-2.7,2.7c-4.9,5.1-15.9,4.9-26.4-0.3c-4.3-2.1-22.8-1.5-24.8,0.9
				c-2.6,2.9-2.6,0.5-0.2-8.5c1.4-4.9,2.7-11.6,2.9-14.7c0.9-10.2,1.4-12.6,3.6-16.9c2-3.9,2-4.9,0.1-12.4
				c-1.1-4.5-3.7-11.5-5.9-15.6c-3.5-6.7-4-9.1-5.3-25.5l-1.4-18.1l38.7-1.9c30.1-1.5,38.8-1.6,38.8-0.3c0.5,5.1,1.9,10.8,3.4,13.9
				c2.3,4.7,0.7,10.9-7.2,27.6c-7.3,15.9-8.6,24.2-3.9,25.7c1.6,0.6,8.3,0.7,14.9,0.6c10.5-0.3,21.9-0.3,31.2-0.4
				c2.4,0,2.8,1,3.9,9.7c1.3,10.8,2.4,12.2,12.9,16.4c5.1,2,5.6,2.6,5.8,7.1c0.2,3-0.6,5.6-1.9,7c-3.6,3.6-2.9,8.1,1.5,9.7
				c4.3,1.6,10.5,7.6,10.7,10.4c0.1,1-1.1,1.8-2.3,1.9c-1.4,0.1-3.2,0.4-4.2,0.7C1647.8,1215.8,1645.4,1215.7,1643.2,1215.1z"/>
			<g id="US-MA">
				<path id="path11212" class="st0" d="M2069.5,715.9c0.2-1.3,1.4-2.4,2.8-2.4s2.7,0.9,3,2.1c0.5,1.6-0.3,2.3-2.8,2.4
					S2069.3,717.6,2069.5,715.9z"/>
				<path id="path11214" class="st0" d="M2083.3,712.7c-2.3-0.8,0.3-4.2,3.5-4.4c2.8-0.1,3.1,1.2,1.1,3.5
					C2086.3,713.5,2085.9,713.6,2083.3,712.7z"/>
				<path id="path11216" class="st0" d="M2054.3,706.1c-2.9-4-6-7.3-6.7-7.4c-0.8-0.1-2.4-0.1-3.6-0.3c-1.7-0.3-27,5.9-39.4,9.5
					c-2.4,0.8-2.7,0.1-3.2-6.4c-0.3-3.9-1-8.8-1.4-10.7c-0.8-3.3-0.7-3.5,4-3.8c2.7-0.1,6.3-0.7,7.9-1c1.8-0.3,9-2,16.2-3.5
					c12.4-2.7,13.2-2.9,17.2-7.8c3.2-4,5.1-5.2,8.2-5.4c6.1-0.3,7.3,1.8,5.5,9.1c-1.4,5.5-1.3,6.4,0.8,9c1.3,1.6,4.5,4.1,7.3,5.5
					c2.7,1.5,5,3,5,3.4c0.1,1.6,7.8,4.6,9.7,3.7c2.5-1.1,1.3-6.7-2-8.9c-2-1.3-1.9-1.6,0.6-1.7c1.5-0.1,3.9,1.5,5.6,3.7
					c3,3.8,3,3.8,0.7,7.2c-1.3,1.8-5,4.4-8.5,5.9c-3.4,1.3-7.8,3.4-9.9,4.7C2062.1,714.7,2060.1,714.1,2054.3,706.1z"/>
			</g>
			<path id="US-MD" class="st0" d="M1971,854.2c-1.1-2.2-2.3-2.9-4.1-2.5c-4.6,1.5-10.1-7.4-11-17.6c-0.2-2.4-0.8-6.6-1.3-9.2
				c-0.7-2.9-0.5-5.4,0.4-6.6c0.8-1.1,1.1-2.8,0.6-3.8c-1.2-2.7-5.3-0.1-7.6,5c-2.4,5.4-0.1,25,3.9,31.9l2.8,4.8l-3-0.7
				c-1.7-0.4-4.6-0.9-6.5-1.3c-4.9-0.8-10.2-5.6-10.4-9.1c-0.1-1.6,1.6-5.3,3.9-8.2l-0.7-4.5l-1.7-2.7l-0.4-0.9l-3.6-0.2
				c-3.9,3.6-7.9,3.7-10.4,0.1c-0.8-1.1-3.4-3.8-5.8-5.9c-3.7-3.4-5.3-3.9-10.3-3.7c-8.4,0.4-16.4,3.6-23.8,9.4
				c-3.4,2.7-6.6,4.8-7,4.4c-0.4-0.4-1.1-2.6-1.6-5c-1-4.4-1-4.4,4.6-5.3c3-0.5,15.7-3.3,28.1-6.1c23.3-5.4,23.7-5.4,33.3-7.5
				c3.1-0.7,6.8-1.5,8.2-1.8c1.4-0.3,4.3-1,6.4-1.5l3.9-0.8l2.7,11.7c1.6,6.4,4.2,15.1,5.8,19.4l2.9,7.8l10-0.5l10-0.5v5.6
				c0,3-0.3,5.9-0.6,6.2c-0.4,0.3-4,1.1-8.3,1.7C1973,857.3,1972.6,857.2,1971,854.2z"/>
			<path id="US-ME" class="st0" d="M2048.9,651.2c-4.6-5.4-15.3-33.5-19.3-50.4c-0.3-1.8-1.1-4-1.5-5.3c-0.4-1.1-0.2-2.4,0.5-2.9
				c2-1.4,6-15.1,6.3-21.4c0.1-3.2,0.7-8.9,1.1-12.7s1-10.5,1.3-14.5c0.2-4.1,1.7-12.1,3.2-17.9l2.8-10.4l8.6-1.3
				c4.7-0.7,9.2-1.9,10-2.5s2.7-1.2,4.3-1.1c1.5,0.1,3.7,0.1,4.7,0.1c1,0.1,3.9,1.7,6.4,3.6c3.7,2.9,4.5,4.5,4.7,8.4
				c0.5,11.8,10.7,34.1,16.8,36.5c1.8,0.7,3.3,1.9,3.3,2.6c0,0.8,1.8,3.3,4.1,5.8c3,3.3,5.7,4.7,10.4,5.6c7.9,1.5,10.1,3.6,8.2,7.6
				c-3.2,6.8-9.3,12.8-14.7,14.7c-4.2,1.5-8.4,4.9-16.5,13.4c-5.9,6.3-13.3,13.5-16.3,16c-3,2.6-7.6,7.5-10.2,11s-6.8,9.1-9.4,12.4
				c-2.5,3.3-4.8,6.2-4.9,6.3C2052.7,654.8,2050.9,653.5,2048.9,651.2z"/>
			<g id="US-MI">
				<g id="g1969">
					<path id="path1055" sodipodi:nodetypes="csccc" class="st4" d="M1621.8,564.5c1.2-1.6,1.1-1.6-1.2-0.6c-4.2,2-12.7,8.8-12.6,10
						c0.1,1.7,1.1,2.8,2.1,2.7C1611.3,576.6,1620,567.1,1621.8,564.5z"/>
					<path id="path11221" class="st0" d="M1682.6,773c0-0.8,0.8-2.3,1.7-3.4c1-1.1,1.7-3.4,1.7-5s0.9-6.9,2.1-11.5
						c1.9-6.8,2-9,0.7-11.6c-0.8-1.7-1.7-5.6-1.8-8.8c-0.2-3-0.8-5.7-1.3-5.6c-0.6,0-2.6-2.8-4.5-6.4c-3.9-7.4-4.8-19.2-1.6-24.5
						c1.1-1.7,2-5.8,2.1-9.1c0.1-3.2,1.1-6.8,2-7.8c1-1.1,1.7-3.3,1.7-4.8c-0.1-1.8,1-3.5,2.9-4.5c1.7-0.8,3.1-2.2,3-2.9
						c-0.1-2.8,2.5-1.3,3.4,2c1.4,4.8,1.8,5.2,3.9,4.4c1-0.4,1.8-2.4,1.7-4.1c-0.1-1.9,0.5-4.3,1.5-5.7c0.8-1.3,1.2-3.6,0.9-5.4
						c-0.6-2.4-0.2-3.2,2.2-3.5c2.5-0.5,3-1.3,2.9-5.6c-0.2-11.4-0.7-10.6,5.2-10.2c3.3,0.2,5.6-0.2,6-1.1c0.6-1,2.7,0.1,6.4,3.2
						c3.1,2.6,7.8,5.3,10.6,5.8c8.9,2,12.5,6.7,14.4,18.9c1.9,12,1.7,14.1-1.1,18.6c-2.1,3.4-3,5.7-3.1,9.2c0,0.5-1,1.1-2,1.1
						c-1.3,0.1-1.8,1.4-1.7,4.4c0.1,2.4,1.1,4.9,2.2,5.7c2.4,1.8,3.2,1.1,12.5-8.7l6.3-6.7l4.5,4.5c4.4,4.3,7.5,10.8,9.1,18.7
						c0.4,2.1,1.3,5.1,1.9,6.9c2,5.4-0.9,14-7.1,20.7c-3,3.3-5.4,6.7-5.3,7.6c0,0.9-0.7,3.1-1.8,4.9c-1.1,1.7-1.7,5.8-1.7,9l0.2,5.7
						l-7.1,0.5c-3.9,0.2-8.2,0.8-9.6,1.1c-2.3,0.6-19.5,1.6-27.2,1.6c-1.8,0-10.7,0.8-20,1.8C1687.1,774.1,1682.6,774,1682.6,773z"
						/>
					<path id="path11223" class="st0" d="M1647.5,652.8c-4.9-7.1-6.9-8.8-12.5-11.2c-8.8-3.6-23.7-7.9-34.9-10.2
						c-7.6-1.5-9.3-2.3-11.3-5.8c-2.5-3.9-2.5-4.1-0.1-6.6c1.3-1.5,3.5-2.7,4.9-2.8c4.7-0.2,15.5-4.8,19.6-8.5
						c10.1-8.6,20.8-15.4,22.8-14.3c0.7,0.3-0.1,1.5-1.4,2.6c-3.3,2.6-6,8.7-4.7,10.6c1.1,1.6,3.8,2.2,8.7,2.1
						c1.5-0.1,5.8,2.4,9.5,5.4c7.5,6.1,8.7,6.2,26,0.3c17.1-5.6,31.8-5.9,34.1-0.7c0.4,1.1,1.7,1.6,3,1c3.6-1.3,15.3,4.2,17.8,8.4
						c2.8,4.8,2.8,6.1-0.2,7.1c-5.5,2.1-8.9,2.6-21.5,3.6c-7.3,0.6-14.9,1.8-16.7,2.6c-1.9,0.9-5.9,1.7-8.9,1.8
						c-4.6,0.2-5.8,0.9-8,4.2c-1.5,2.4-3.7,4-5.5,4.1c-2.7,0.1-11.9,8.1-11.8,10.1c0,0.5-0.7,1.7-1.5,2.6
						C1653.6,661,1652.3,659.9,1647.5,652.8z"/>
				</g>
			</g>
			<path id="US-MN" class="st0" d="M1445.9,720.2c-0.2-17.5-0.1-36.5,0.3-43.7c0.2-5.5-0.4-9.6-2.3-14.9c-2.5-7-2.5-7.5-0.6-11.3
				c1.7-3.4,1.9-5.9,0.4-19.9c-1-8.8-1.9-18.6-2.4-21.7c-0.4-3.2-1.8-18.8-3-34.9l-2.4-29.2l8.8,0.1c27.8,0.1,28.6,0.1,30.2-1.9
				c1-1.1,1.8-3,1.7-4.4c-0.1-2.8,0.4-2.9,3.7-1.3c1.7,0.8,2.8,3.3,3.7,8.3c1.4,8.4,3.7,11,10.6,11.9c2.8,0.4,6,1.3,7.2,2.3
				c1.4,1.1,5.8,1.6,13.8,1.3c11.4-0.3,11.9-0.2,16.6,3.6c2.6,2.2,5.7,3.9,6.8,3.8s4.5,1.5,7.8,3.5c5.2,3.2,6.8,3.5,14.1,3
				c8.3-0.7,24.3,0.4,28.4,1.9c2.1,0.8,2,1-0.8,4c-1.7,1.7-4.4,3.3-5.9,3.3c-5.2,0.3-12.8,5.3-15.5,10c-1.4,2.6-4.2,5.8-6.2,7
				c-2,1.4-3.5,2.8-3.5,3.3s-0.7,1.1-1.7,1.1c-1,0.1-2.6,1.4-3.5,3.1c-0.9,1.7-4.3,5.2-7.4,7.7c-6.3,5.4-6.8,6.3-7.3,14.8
				c-0.2,3.6-0.5,7.5-0.6,8.9c-0.2,1.4-0.4,2.8-0.3,3.2s-2.1,1.9-4.5,3.3c-4.9,3-7.7,8-6.5,11.7c1.2,3.9,1.9,19.8,1,23
				c-0.7,2.2-0.1,3.6,2.2,5.6c8,7,26.7,22,29.4,23.5c2.7,1.5,6.1,7.4,6.3,11.1c0.1,1.3-12.1,2.1-59.2,4.1L1446,728L1445.9,720.2z"/>
			<path id="US-MO" class="st0" d="M1611.5,975.4c-1.8-0.7-3.4-1.4-3.6-1.5c-0.1-0.1,0-2.8,0.5-6.1c1.4-10.2,4.3-9.9-60.5-7
				l-56.9,2.5l-0.3-3.2c-1.6-15-1.7-25.3-0.1-34.3c0.6-3.3-0.9-29.8-2.2-41.1c-0.4-3.5-0.9-7.6-1-9.1s-2.4-4.7-5.1-7.1
				c-4.5-4.1-4.7-4.5-3-7.3c3.3-5.6,2.6-9-2.6-13.2c-3.2-2.5-5.4-5.6-6.4-9.2c-0.9-3-2.1-6.4-2.5-7.4c-0.7-1.6,0.4-1.9,7.1-1.9
				c4.4,0,24.8-0.5,45.4-1c20.5-0.5,38.4-0.5,39.6,0s2.1,2.1,2.2,3.3c0,2.4,1.9,13,3.2,17.9c0.5,1.8,4.4,6.4,8.8,10.3
				c5.1,4.6,8.4,8.8,9.5,11.8c0.9,2.9,3.3,5.9,6.2,7.9c10.9,7.6,9.9,5.7,8.6,16.7c-0.6,5.5-0.9,10.3-0.5,10.9s5.4,4,10.9,7.8
				c5.6,3.8,10.8,7.7,11.4,8.8c0.7,1.1,1.8,5.4,2.5,9.5c1.4,8.3,1.9,9.4,4.1,9.3c1-0.1,1.5,1.7,1.4,5.4c-0.2,4.1-1.1,6.3-4,9.2
				s-4,5.4-4.8,11C1618.4,976.6,1617.1,977.7,1611.5,975.4z"/>
			<path id="US-MS" class="st0" d="M1636.3,1173.3c-4.9-3.7-5-4.1-6-13.5c-0.5-5.3-1.3-10.1-1.7-10.7c-0.4-0.6-8.3-0.9-17.5-0.6
				s-19.1,0.3-21.9,0.3s-6.3-0.1-8-0.1c-4.6,0-4-6.1,2-18.2c2.9-5.9,6.5-14.7,7.9-19.4c2.5-8.1,2.5-8.9,0.5-12.3
				c-1.5-2.6-2.6-9-3.7-20.5c-1.9-19.8-0.9-25.1,6.3-35.7c3-4.3,5.1-9.1,5.4-12.2c0.7-6.3,1.5-7.9,6-12.6l3.5-3.7l27.4-2.1l27.4-2.1
				l0.2,3.5c0.1,2-0.1,8.5-0.4,14.4c-0.3,6-0.8,15.1-1,20.4c-0.1,5.2-0.5,10.9-0.6,12.7c-0.8,9.3-0.1,44,1.7,74.5l2,34.5l-2.9,0.3
				c-10.9,0.8-18,2.6-19.7,4.7C1641.3,1177,1641,1176.9,1636.3,1173.3z"/>
			<path id="US-MT" class="st0" d="M1265.7,662.7c-0.3-0.2-2.3-0.6-4.4-0.9c-4.1-0.6-25.4-3.8-65.9-10.3
				c-13.7-2.2-35.6-5.6-48.6-7.7c-13.1-2.1-26.2-4.1-29.4-4.7c-8.5-1.6-8.7-1.5-11.2,5.1c-2.2,6.1-2.4,6.1-7.9,6.2
				c-3,0-7.6-0.5-10.2-1.1s-8.9-1.1-14.1-0.9c-11.9,0.5-12.2,0.2-16.7-19.2c-4.5-19.1-6.5-25.1-8.1-25.1c-0.8,0-4.2,0.2-7.6,0.5
				c-6.2,0.6-6.2,0.6-5.5-3c0.6-3.3,3.6-6.9,5.7-7.1c0.5,0,0.9-2.1,0.8-4.6s0.8-6.1,2.1-8.1c3.5-5.6,3.1-11.6-1.2-15.8
				c-2-1.9-4.6-6.6-6-10.4c-1.3-3.7-4.2-9.6-6.4-12.8c-6.2-9-7.3-21.8-3.7-41.4l2.7-15l15.6,4.2c14.5,3.8,75,17.4,83.6,18.8
				c2.2,0.3,10.5,2,18.6,3.8c12.7,2.7,96.1,17.4,112.4,19.9c3.1,0.5,5.9,1,6.4,1.3c0.5,0.2,4.6,0.7,9.2,0.9c4.6,0.3,8.4,0.6,8.5,0.8
				c0.3,0.2-0.1,3.4-0.5,7.3c-0.9,7.4-1.4,11.6-2.3,19.5c-0.2,2.7-0.7,6.1-0.9,7.7c-0.4,2.6-0.8,5.2-1.7,14.2
				c-1.6,13.9-8.7,72.1-9,75.1C1269.5,662.6,1267.5,664.1,1265.7,662.7z"/>
			<path id="US-NC" class="st0" d="M1932.8,1008.4c-2.5-1.7-6.3-3.7-8.4-4.7c-2.2-0.9-9.8-6-16.9-11.1l-13-9.5l-14.3,1.2
				c-12.1,1.1-14.7,1-17.3-0.8c-5-3.4-7.6-3.8-21.6-2.9c-14,0.8-23.7,3.5-35.3,9.4c-6.4,3.2-7.7,3.6-25.3,5.7
				c-6.2,0.7-12.5,1.8-13.9,2.1c-2.3,0.6-2.3,0.5,0.3-1.7c1.6-1.3,5.1-5,7.8-8.1c2.8-3.2,7.9-7.4,11.2-9.3c3.3-1.9,9-6.2,12.2-9.4
				c3.4-3.2,10.5-8.3,15.9-11.3c10.1-5.6,15.6-10.7,17-15.8c1.1-4.1,3.4-5.1,16-6.8c6.2-0.8,12.3-1.8,13.9-2c1.5-0.3,6-1.1,10.1-1.8
				s8.6-1.4,10.1-1.8c1.5-0.3,13.4-2.6,26.5-5s25-4.7,26.4-5s5.1-1.1,8.3-1.7c8.9-1.7,26-5.7,34.5-8.2c2.1-0.6,3.1,0.1,4.5,3.1
				c1.7,3.6,1.6,4-1.4,6.9l-3.3,3.1l6.2,0.6c4.7,0.4,7.2,1.4,9.7,4.1c4.5,4.6,4.5,6.2-0.5,12.2c-2.3,2.8-4.5,6.1-4.8,7.3
				c-0.5,1.9-6.1,3.3-11.9,3c-0.4,0-0.5,2.4-0.4,5.6l0.4,5.6l4.8-0.2c5.4-0.3,5.9,0.8,2.2,5.7c-5.4,7-7.3,8.5-11.7,8.7
				c-3.9,0.2-5.6,1.6-13.8,11c-8.2,9.4-9.3,11.4-9.1,15.4c0.2,4.2-0.3,4.8-4.7,7.1c-2.7,1.4-5.1,2.4-5.3,2.4
				C1937.6,1011.7,1935.3,1010.1,1932.8,1008.4z"/>
			<path id="US-ND" class="st0" d="M1432.2,645.3c-0.1-0.1-3.8-0.4-8-0.7s-9-0.6-10.8-0.9c-1.8-0.2-5.7-0.6-8.9-0.8
				c-3.2-0.2-7.8-0.6-10.2-0.8c-7.1-0.5-12.9-1-20.4-1.5c-3.8-0.3-8.4-0.6-10.2-0.9c-1.8-0.2-14.7-1.2-28.7-2.2
				c-14-1.1-27.1-2.1-29.3-2.3c-5.4-0.6-11.5-1.1-20.5-1.6l-7.8-0.5l2.4-20.6c1.3-11.4,2.7-22.5,2.9-24.8s0.7-5.7,0.9-7.7
				s1.4-12.3,2.7-22.8c1.2-10.6,2.2-19.8,2.2-20.3c0-0.8,16.3-0.8,22.5,0c1.3,0.2,6.2,0.4,11.2,0.7c4.8,0.3,10.3,0.5,12.1,0.7
				s6.6,0.4,10.8,0.7c4.2,0.2,9.7,0.5,12.1,0.8c7.9,0.6,37.4,2.6,43.9,2.9c3.6,0.2,8.4,0.5,10.8,0.6s7.6,0.5,11.5,0.8s7.4,1,7.8,1.6
				s1.4,10.3,2.1,21.7c0.7,11.3,1.6,22.5,2,24.9c0.6,3.8,3.7,35,4.8,48c0.3,4.2,0.1,4.4-3.7,4.8
				C1434.4,645.5,1432.4,645.5,1432.2,645.3z"/>
			<path id="US-NE" class="st0" d="M1454.5,843.8c-4.8-0.3-12.3-0.6-16.5-0.8s-15.4-0.9-24.8-1.4s-20.1-1.1-23.5-1.4
				c-3.4-0.2-8.4-0.5-10.8-0.6c-5.7-0.5-12.6-0.9-29.3-1.7c-7.4-0.4-14.8-0.9-16.6-1.1c-2.7-0.2-21-1.2-24.8-1.3
				c-1.8,0-1.8-10.4,0.1-26.7c0.7-6.5,2.6-6.1-40.6-10.8c-1.8-0.2-4.6-0.5-6.5-0.8l-3.3-0.5l3.6-30.3c2-16.6,3.7-30.5,3.9-30.8
				c0.2-0.4,29.8,1.7,47,3.2c2.2,0.1,11.2,0.8,20.4,1.5c9.2,0.7,18,1.4,19.7,1.5c1.8,0.2,6.2,0.6,10.1,0.8c3.8,0.3,7.8,0.6,8.9,0.8
				c1.2,0.2,5.7,0.5,10.3,0.8c12.5,0.6,17,1.9,21.2,6c3.9,3.6,4.1,3.7,12.6,2.5c7.2-1,9.5-0.9,14,1.3c3,1.4,6.9,2.7,8.7,3.1
				c2.7,0.6,3.2,1.5,3.6,5.8c0.3,2.8,2,7.9,4,11.3c2,3.6,4.2,9.8,4.9,14.2c0.7,4.4,1.5,8.8,1.8,9.8s1.1,5.9,1.8,10.7
				c0.9,5.5,2.7,11.2,4.9,15c2.6,4.7,8.5,18,8.8,20.1C1467.9,844.6,1467.8,844.6,1454.5,843.8z"/>
			<path id="US-NH" class="st0" d="M2019.6,679.1c-1.5-0.2-3-0.7-3-1.2s-0.9-11-1.9-23.4l-1.8-22.5l4.3-5.3c3.1-3.7,4-6,3.5-8
				c-3.7-13.5-3.7-13.8-1.4-17.6c3.7-5.6,5.2-5.1,6.7,2.5c1.1,5.1,5.2,17.4,10.9,33.2c3.8,10.3,9.6,19.4,13.8,21.8
				c0.9,0.5,1.8,2.4,1.9,4.2c0.1,2.4-0.4,3.1-1.9,2.5c-1.4-0.4-3.9,1.3-7.5,5.2c-4.3,4.8-6.7,6.2-11.3,7c-3.1,0.5-6.7,1.2-7.7,1.5
				C2023.3,679.3,2021.1,679.2,2019.6,679.1z"/>
			<path id="US-NJ" class="st0" d="M1980.8,818.8c-7.1-3.1-9.5-6.4-9.7-13.5c0-3-0.3-6.2-0.6-6.9c-0.3-0.7,2.3-4.7,5.8-8.8
				c3.5-4,6.3-7.9,6.3-8.6c0-0.6-2.4-2.9-5.3-5.1c-6.6-4.6-8.6-7.9-6.9-10.4c1.3-1.8,1.6-3.4,2.4-13.4c0.2-3.1,0.8-6.1,1.4-6.8
				c1.4-1.6,19.7,4,22.4,6.9c1.6,1.8,2.1,3.3,1.3,5.4c-1.1,3.4,0.5,10.8,3.8,17.4c1.3,2.6,2.1,6.2,1.9,8.2c-0.2,1.9-0.5,5.2-0.8,7.3
				c-0.6,6.4-9.2,25.8-12.5,28.3C1986.4,821.7,1987.4,821.7,1980.8,818.8z"/>
			<path id="US-NM" class="st5" d="M1236.4,1099.8c-7-0.9-14.8-1.9-17.2-2.2c-6.6-0.7-33.2-4-38.3-4.7c-2.4-0.4-10.2-0.4-17.1,0h-11
				l-1.3,7.8c-0.3,4.1-1.3,0.3-10.8,0.5c-5.3,0.1-10.7-1.6-15.3-1.8c-4.6-0.2-10.8-1-12.5-1.3c-5.6-1.1-9.3-5-10.6,0.5
				c-1.3,5-0.2,13.1-5.7,13.4c-7.2,0.4-17.2-2.1-15.5-7.6c0.6-1.7,6.5-40.4,12-70.3c1.7-9.2,3.2-18.1,3.5-19.7
				c0.2-1.7,1.1-6.8,2-11.5s1.7-9.6,2-11c0.2-1.4,3.2-18.7,6.7-38.4l6.3-35.9l3.7-0.1c2-0.1,5.7,0.2,8.1,0.5
				c14.9,1.9,72.6,10.1,74.1,10.5c1,0.2,4,0.7,6.4,0.8c5.9,0.6,50.1,6.8,57.9,8.1c5.9,1,6.2,1.2,5.7,5c-0.3,2.2-0.6,5.5-0.8,7.1
				c-0.2,1.8-0.6,5.2-0.9,7.7c-0.8,6.8-1.3,11.2-2.3,20.4c-1.1,10.1-1.5,13.5-2.1,18.5c-0.3,2.2-2.8,24.8-5.7,50.4
				c-6.6,58.2-6.1,54.9-7.2,54.7C1249.6,1101.6,1243.4,1100.8,1236.4,1099.8z"/>
			<path id="US-NV" class="st6" d="M946,935.2c-2.5-4.2-7.5-12.7-11.1-18.7s-11.2-18.9-16.8-28.3s-10.7-17.7-11.2-18.5
				s-4.8-7.9-9.7-16c-4.7-8.1-10.5-17.9-12.9-21.6c-2.2-3.7-6.9-11.5-10.4-17.2c-3.5-5.8-8.7-14.7-11.8-19.7
				c-9.4-15.6-9.7-11.9,5.5-63c7.4-24.9,14-45.6,14.6-46.3c1.1-1.2,12.7,1.9,48.4,13.2c9.9,3.2,27.3,8,38.6,11s26.9,6.9,34.6,8.9
				s14.1,3.7,14.4,4c0.4,0.4-34.1,147.4-37.1,158.3c-0.5,2.2-1.3,5.3-1.4,7.1c-0.2,1.8-1.8,7.6-3.5,12.9c-3.4,10.3-2.9,9.9-12.1,9.1
				c-7.3-0.7-12.4,10.1-12,24.5C952.4,943.4,950.9,943.5,946,935.2z"/>
			<path id="US-NY" class="st0" d="M2002.7,761.5c-0.3-0.7-0.4-3.2-0.1-5.3c0.7-6.3-3.9-9.6-18.4-13.5c-13-3.5-14.3-4.4-25.7-16.4
				l-5.1-5.3l-21.2,4.4c-11.7,2.4-22.7,4.7-24.4,5.2c-1.8,0.3-14.4,3-28.3,5.9c-13.8,2.9-26,5.5-27.1,5.9c-1.4,0.4-2.3-0.3-2.9-2
				c-0.9-2.7,2.5-8,13.1-20.3c2.2-2.5,3.9-5.1,3.9-5.9c0-0.6-1.6-4-3.5-7.3c-4.2-7.2-4.4-8.7-1.5-8.8c1.3-0.1,3.3-0.9,4.5-2
				c1.6-1.3,7.1-2.1,19.9-2.9c19.2-1.2,21.4-1.7,27.2-7.2c6.2-5.8,7.6-11,5-19.8l-2.1-7.3l6.9-9c3.8-4.9,8.1-10.8,9.5-13
				s5.5-6.6,9-9.8l6.4-5.7l10.5-0.3c5.8-0.2,11.8-0.7,13.3-1.3c2.2-0.9,2.9-0.4,4.2,3.1c2.3,6.4,3.5,12.1,4.3,21.9
				c0.6,7.6,1.2,9.5,4.2,12.7c6.8,7.3,13.7,35.4,13.7,55.8c0.1,9,0.6,14.8,2.1,18.7c1,3.1,2.1,7.1,2.2,9.2c0.1,1.9,0.7,3.5,1.4,3.5
				c0.8,0,0.8,1.1,0.2,3.2c-0.7,2.1-0.6,3.5,0.2,3.9c0.7,0.3,1.3,0.2,1.2-0.4c-0.1-1.6,5.9-4.6,11.1-5.5c2.4-0.5,6-2.2,8.1-3.8
				c5.4-4.5,12-6.8,13.2-4.9c0.7,1-0.1,2.8-2.2,4.8c-1.8,1.7-5.2,5.2-7.6,7.7C2022.7,754,2003.5,763.8,2002.7,761.5z"/>
			<path id="US-OH" class="st0" d="M1794.7,870.8c-2.5-2.7-3.2-2.8-12.9-1.6c-12.7,1.5-22.8,0-27.6-4.2c-2.4-2-5.5-3.2-9.4-3.5
				c-5.7-0.3-5.9-0.5-6.1-4.9c-0.1-2.5-0.7-9.1-1.4-14.7c-0.7-5.6-1.6-17.1-2.4-25.5c-0.8-8.5-2.1-21.1-2.8-28.2
				c-1.1-10.2-1-12.8,0.4-13c0.9-0.2,3.2-0.4,4.9-0.8c1.8-0.2,8.8-1.2,15.8-2.1c6.9-0.9,12.9-1.7,13.2-1.7c0.4,0,4.1,1.3,8.3,3
				c8.2,3.4,15.2,3.7,18.4,0.6c1.1-0.9,4.6-2.9,7.7-4.2s6.7-3.5,8-4.7c7.9-7.9,19.9-16.4,20.2-14.3c3.1,19.8,4.4,49,2.8,68.8
				c-0.1,1-1.1,5-2.2,8.7c-1.8,5.5-3,7.5-7.4,10.3c-6,4-9.3,8.6-10.3,14.5c-0.5,3.2-1.4,4.3-4.3,5c-2.6,0.8-3.8,2-4.2,4.4
				c-0.7,4.5-2.9,9.5-4.6,10.1C1797.9,873.6,1796.2,872.4,1794.7,870.8z"/>
			<path id="US-OK" class="st0" d="M1481.5,1054.6c-5.6-2.6-10.9-4.3-13.5-4.1c-2.4,0.1-13.4,1.1-24.5,2c-17.1,1.5-21.1,1.4-26-0.1
				c-3.2-1-7.8-2-10.3-2.3c-2.7-0.2-6.7-2.3-10.1-4.9c-4.4-3.5-7.2-4.7-11.7-5c-12-0.8-17.4-2.4-21-5.9c-2.1-2.1-6.6-4.2-10.8-5.4
				l-7.3-1.9l0.4-6.4c0.2-3.6,0.5-10.4,0.6-15.3c0.1-4.8,0.5-10.9,0.6-13.4c0.1-2.4,0.4-9,0.5-14.6s0.4-11.7,0.7-13.6
				c0.6-3.8-0.4-4.6-6.2-5.1c-6.9-0.7-42.8-3.6-55.3-4.5c-15.9-1.1-15.1-0.6-14.5-7.6c0.3-3.3,0.7-6.1,0.8-6.3
				c0.1-0.1,4.3,0.2,9.2,0.9c4.9,0.6,13.5,1.4,19.1,1.6c5.6,0.2,12.7,0.4,15.9,0.6c3.2,0.1,9.4,0.4,14,0.6c4.6,0.2,10.8,0.5,14,0.6
				s9.4,0.4,14,0.6c4.6,0.2,10.8,0.5,14,0.6s10,0.4,15.3,0.5s11.6,0.4,14,0.6c2.4,0.1,8.8,0.4,14,0.6c5.2,0.1,11.6,0.4,14,0.6
				s9.3,0.4,15.3,0.5s12.2,0.4,14,0.6c1.8,0.2,8,0.5,14,0.6c6,0.2,10.9,0.3,10.9,0.5c0.7,0.7,3.8,37.5,4.4,51.3
				c1.3,33.7,2,57.1,1.5,57.5C1490.9,1058.8,1486.5,1057,1481.5,1054.6z"/>
			<path id="US-OR" class="st0" d="M912.5,689.1c-18.4-5.7-39.6-12.2-47.1-14.6c-20.5-6.5-71.3-22.1-81.2-24.9
				c-3.2-0.9-6.1-1.9-6.2-2c-0.1-0.1,0-2.3,0.7-4.6c0.6-2.3,1.3-6.7,1.4-9.5c0.8-12.3,3.4-18.8,11.7-29c4.5-5.4,10.3-14.1,13-19.1
				c5.6-10.3,27.5-60.9,27.4-63.1c0-0.9,0.8-1.1,2.3-0.6c1.3,0.4,4.1,1.2,6.3,1.7c4,0.9,10.7,6.8,11.3,9.8c0.2,0.8,0.5,2,0.6,2.8
				c0.2,0.8,0.5,3.3,0.7,5.8c0.6,6.4,4,9.2,13.6,10.6c4.5,0.7,13.1,3.1,19.2,5.4c6.1,2.4,13.6,4.5,16.7,4.9c3.2,0.3,6.6,0.8,7.7,0.9
				s7.6,0.4,14.5,0.5c14.5,0.3,18.3,1.1,41,8c9.1,2.7,16.7,5,16.9,5c0.1,0,0.3,0.7,0.5,1.6c0.2,0.9,1.1,5.1,2.1,9.4l1.9,7.8
				l-4.3,5.3c-2.4,2.9-4.3,5.8-4.2,6.4c0.1,2-6.4,9.1-10.3,11.3c-4.6,2.6-5.5,6-3.8,14.4c1.7,8.5,1.7,8.4-2.2,12.5
				c-2.7,2.8-3.6,5-3.7,9.6c-0.2,5.7-10.7,44.1-12.1,44C946.2,699.4,930.9,694.9,912.5,689.1z"/>
			<path id="US-PA" class="st0" d="M1845.1,821.1c-0.7-1.2-2.2-6.5-3.5-11.6c-2.4-10.5-2.6-11.2-3-11.7c-0.7-0.5-1.1-5-3.1-23.1
				c-1-9.7-2-19.7-2.4-22.1c-0.4-3.7,0-4.8,2.6-6.7c1.7-1.2,4.4-3.3,6-4.5c2.7-2.2,2.8-2.2,3.8,1.8l1,4l6.9-1.2
				c3.8-0.7,8.1-1.4,9.6-1.9c1.5-0.3,6.4-1.3,10.8-2.3c4.5-1,10.4-2.2,13.2-2.8c2.8-0.6,18.5-3.8,34.9-7.3l29.9-6.2l4.7,4.6
				c2.5,2.5,4.7,5.2,4.7,5.9c0,0.6,2.2,2.4,4.6,4c2.5,1.5,4.3,3.1,4.1,3.3c-0.6,0.7-1.4,5.7-2.1,14.3c-0.3,3.3-0.9,6.4-1.6,6.8
				c-2.8,1.9-0.5,7.5,5.2,12.2l6,4.9l-7.2,8.1c-4,4.5-8.7,8.8-10.6,9.7s-10.8,3.1-19.7,5c-9,2-17.4,3.8-18.8,4.1s-12.7,2.8-25.1,5.6
				c-29.4,6.6-27.4,6.2-39.2,7.7C1847.6,823.2,1846.2,823,1845.1,821.1z"/>
			<path id="US-RI" class="st0" d="M2041.1,717.3c-1.5-4.6-3-9.7-3.5-11.2c-0.8-2.6-0.5-2.9,4.2-3.1c4.7-0.2,5.3,0.2,9.6,6
				c3.4,4.8,4.1,6.8,3.3,8.5c-1.2,2.1-8.6,8.2-10.1,8.2C2044,725.7,2042.6,721.9,2041.1,717.3z"/>
			<path id="US-SC" class="st0" d="M1875.6,1081.1c-1.8-0.8-4.8-4.1-6.7-7.2c-1.8-3.1-3.7-5.7-4.1-5.6c-1.8,0.1-7.8-6.5-7.9-8.6
				c-0.1-1.3-2.4-4.7-5.2-7.7s-6.9-7.7-9-10.2c-2.2-2.6-7.3-7-11.3-9.8s-10.3-8.6-14-13c-3.8-4.3-8.8-8.7-11.4-9.8
				c-6.1-2.7-7.9-4.8-7.1-8.3c0.6-3.1,6.5-6.5,20.8-12.1c15.1-5.8,42.1-5.9,42.4-0.1c0,0.9,5.4,1,15.7,0.2
				c12.3-0.9,16.2-0.8,18.1,0.6c1.3,0.9,3.3,2.4,4.5,3.1c1.2,0.7,5.5,4,9.9,7.2s10.5,7,13.7,8.4s6.1,2.7,6.4,3
				c0.3,0.2-1.6,3.3-4.2,6.7c-5.8,7.7-7,10-7.8,16.6c-0.5,3.4-2.1,6.6-5.1,9.8c-2.4,2.5-6.6,7.6-9.2,11s-9.3,11-15,16.7
				C1879.3,1082.2,1878.7,1082.6,1875.6,1081.1z"/>
			<path id="US-SD" class="st0" d="M1430.9,750.6c-5.3-2.4-7.6-2.8-14.1-2c-7.2,0.9-8.1,0.7-13.1-3c-5.5-4-9.6-4.8-28.7-6
				c-3.8-0.2-7.9-0.6-8.9-0.8s-5.4-0.6-9.6-0.8s-9-0.6-10.8-0.7c-1.8-0.2-5.7-0.5-8.9-0.7s-8-0.6-10.8-0.9c-2.8-0.2-11.3-1-19.1-1.6
				c-7.8-0.6-17.5-1.4-21.7-1.7c-17.6-1.1-19.1-1.5-19-4.1c0.1-2.5,5.2-45.9,6-51.6c0.3-1.8,0.6-5.2,0.9-7.7
				c0.3-2.4,1.1-10.6,2-17.9c1.5-12.8,1.7-13.4,4.7-13.4c3.4,0,19.1,0.8,22.7,1.3c3.2,0.3,12.7,1.1,20,1.7c3.6,0.2,7.8,0.6,9.6,0.8
				s6.6,0.6,10.8,0.7s8.5,0.6,9.6,0.8c1,0.2,9.3,0.9,18.5,1.6c16.8,1.2,50.3,3.9,57.3,4.6c2.2,0.1,5.5,0.4,7.4,0.3
				c3,0,3.4,0.2,2.4,2.4c-0.9,1.8-0.4,4.6,1.8,10.4c1.9,5.2,2.8,9.6,2.6,12.9c-0.7,8.2-0.9,19.2-0.7,36.7c0.1,9-0.3,16.8-0.9,17.2
				s-0.8,6.1-0.4,12.5C1441.3,755.2,1441.2,755.3,1430.9,750.6z"/>
			<path id="US-TN" class="st0" d="M1610.6,1008.5c-0.2-3.5,2.2-11,5.3-16.4c4.2-7.4,7.1-15.8,7.6-22.5c0.5-6,2.6-9,6.6-9.5
				c1.5-0.2,10-1.1,18.7-2.1c13.1-1.4,16-2.1,17.6-4.2c1.7-2.2,4.7-2.6,33.4-4.8c84.1-6.3,103-7.8,119.8-10.1
				c4.7-0.6,8.6-0.8,8.6-0.3c0.1,1.8-2.7,6.5-5.1,8.8c-1.5,1.3-6.6,4.5-11.6,7.2c-4.9,2.7-12,7.8-15.9,11.5c-3.9,3.6-9.5,8-12.6,9.4
				s-7.2,4.9-9.1,7.6c-1.9,2.6-6.3,6.8-9.7,9.1c-3.4,2.5-6.4,4.8-6.7,5.3c-1.3,1.8-15.4,3.2-74.5,6.8c-33.8,2.1-63.7,4.2-66.8,4.6
				C1612.5,1009.8,1610.7,1009.5,1610.6,1008.5z"/>
			<path id="US-TX" class="st0" d="M1402.1,1326.4c-5.9-3.9-8.1-4.7-13.3-4.4c-4.8,0.2-7.6-0.5-13-3.7c-3.8-2.2-9.1-4.6-11.9-5.4
				c-2.8-0.7-6-2.4-6.9-3.5s-2.6-2.8-3.6-3.8c-1.7-1.6-5.7-12.4-4.6-12.8c0.2-0.1,0.3,1.8-1-5.4c-0.7-4-1.4-0.9-2.7-10.3
				c-1.2-9.3-5.4-11.4-10.5-19c-9.1-13.6-16.1-31.7-17.3-36.6c-1.6-6.8-8.6-17.2-15.8-21.7c-2.5-1.5-0.5-3-1.9-5.5
				c-2.1-3.7-8.3-6.9-12.2-7.4c-2.7-0.4-7.9-1.1-11.9-1.8c-10.6-1.8-18.6,0.7-21.4,6.7c-1.1,2.5-3.9,3.2-3.9,4c0,0.9-3.3,5-5.6,7.6
				c-3.1,3.7-1.6,5.4-4.9,5.6c-6.1,0.2-7.4-0.5-17.4-8.5c-13.4-10.8-18.6-19.5-19.3-26.4c-0.3-3-3.5-17.1-5-20.3s-9.8-9-11.3-10.5
				c-2.3-2.4,4.8,1.5-7.1-9.2c-2.9-2.6-4.3-5.4-5.6-7.8c-1.4-2.5-4.8-5.5-6.1-6c-1.3-0.6-2-4.7-2.9-7c-0.9-2.2-2.7-5.1-4.5-6.8
				c-2.1-2.1-5.8-4-5.5-6.1c0.2-2.9,0.9-3.1,8.1-3.6c4.3-0.2,13.7,0.3,20.9,1.1c13.9,1.7,18.6,2.2,26.2,3c2.7,0.2,7.2,0.9,10,1.3
				c2.8,0.5,8.1,1.1,11.5,1.3c3.4,0.2,6.8,0.7,7.2,0.9c1.8,1.1,16.4,1.2,16.4,0.2c0-0.6,0.6-6,1.3-12c0.7-6,1.5-12.5,1.7-14.7
				c0.1-2.2,2.2-19.9,4.4-39.6c2.2-19.7,4.2-37.6,4.5-40.1c0.3-2.4,0.6-5.5,0.8-7c0.2-1.4,0.5-4.7,0.8-7.3s0.6-6,0.9-7.7
				s0.6-5.4,1-8.3c0.4-2.9,0.7-6,0.8-7c0.2-1,0.4-2.6,0.3-3.3c0.1-1,3.2-1.1,10.9-0.3c6,0.6,14.4,1.2,18.9,1.5
				c4.3,0.3,8.8,0.6,9.8,0.8s5.1,0.6,8.9,0.8s10.4,0.7,14.7,1.2c4.2,0.4,8.2,0.7,8.8,0.7c0.6,0,1,4.4,0.7,9.9
				c-0.6,20.8-2,51.9-2.4,54.1c-0.5,2.8,1.2,4,9.7,6.2c4.2,1.2,8.3,3.1,10,5.2c3.1,3.5,10.6,5.7,20.7,6.1c6.1,0.2,12.9,3.4,15.5,7.3
				c1.1,1.6,3,2.5,5.2,2.4c1.9-0.1,6.6,0.8,10.5,2.1c6.4,2.1,9.2,2.2,33,0.6c28.5-1.8,27.7-1.9,40.7,6.1c3.1,1.9,7.7,3.9,10.1,4.4
				l4.4,0.9l1.4,27.6l1.4,27.6l4.1,7.9c2.2,4.3,4.9,11.3,6,15.6c1.7,6.9,1.7,8.2-0.4,12.7c-1.3,2.7-2.5,8.8-2.8,13.3
				c-0.3,4.6-1.3,11.1-2.4,14.7s-2.2,8.4-2.6,10.7c-0.5,3.2-1.3,4.3-3.6,4.4c-4.9,0.2-11.6,4.1-16.1,9.6
				c-4.7,5.6-17.3,14.1-32.5,22.1c-8.3,4.3-15.5,8.9-17.2,11c-0.4,0.4-3.4,3.1-6.7,6c-7.7,6.6-11.4,11.1-18.2,22.2
				c-5.3,8.5-5.4,9-4.7,17.4c0.4,4.7,1.3,10.2,2,12.3c1.6,4.2,0,18.5-0.7,21.1C1408,1326.3,1409.7,1331.4,1402.1,1326.4z"/>
			<path id="US-UT" class="st7" d="M1023.9,724.3c-1,0.1-1.4,0.6-1.6,1.6c-0.3,1.2-2.6,11-5.2,22.1c-2.6,10.9-6.5,27.1-8.6,36
				s-5.4,23-7.4,31.5s-5.4,22.3-7.3,30.8c-2,8.5-4.1,17.1-4.6,19.3s-1.8,8-2.9,12.8c-1.2,4.9-2,9-1.8,9.1
				c0.1,0.1,27.9,5.6,61.8,12.4c60.5,11.9,64.7,12.7,64.7,11.9c0-0.3,3.1-18.6,7-40.7s7.2-41.6,7.5-43.4c0.3-1.8,1.7-10.9,3.4-20.2
				c1.7-9.3,3.1-18.6,3.4-20.3c0.3-1.8,0.7-3.7,0.9-4.2c0.2-0.5-2-1.2-4.9-1.5c-10.5-1.3-44.3-7-45.8-7.9c-0.8-0.5-1.2-1.7-0.9-2.7
				c0.9-2.8,6-26.6,6.2-28.5c0.1-1.4-21.6-7.7-61.3-17.5C1025.3,724.4,1024.5,724.3,1023.9,724.3z M1040.5,740.9
				c0.4,0,1,0.1,1.8,0.2c4.6,0.9,9.5,6.5,9.8,11.3c0.2,4.4,2.7,5.3,5.2,2c1.9-2.6,5.1-0.5,4.3,3c-0.3,1.4,0.2,4.3,1.1,6.4
				c1.7,4.4,0.6,6.9-3.9,8.8c-7,3-7.6,2.9-11.1-0.3c-6.9-6.6-9.3-12.6-8.9-22.7C1039,742.9,1039.2,741.1,1040.5,740.9z"/>
			<g id="US-VA">
				<path id="path11248" class="st0" d="M1799.5,927.9c9.6-12.8,15.8-18.4,18.8-17.6c1.2,0.3,2.1,1.2,2.1,1.7s2.1,1.3,4.5,1.5
					c3.3,0.5,8-0.8,18.3-4.7c12.4-4.8,14.1-5.8,15.3-9.4c0.8-2.2,2.5-5.5,3.7-7.3c1.3-1.8,3.9-8.2,5.9-14.3s4-11.4,4.4-11.9
					s3-1.3,5.7-1.9c8.4-1.7,9-2.2,9.6-7.8c0.4-4.3,1.8-6.6,7.1-11.8c3.6-3.6,6.5-6.9,6.4-7.3c-0.7-3.3,0.2-3.9,3.3-3
					c5.3,1.6,9.3,1.1,10.6-1.8c1.3-2.6,1.3-2.6,3.8-0.2c1.5,1.3,3.2,2.4,3.8,2.3s3.2,0.7,5.8,1.6c4.7,1.7,4.7,1.7,2.8,4.9
					c-1.8,3-1.7,3.6,0.5,8.2c2,4,4,5.5,10.4,8.2c4.4,1.8,9.6,3.7,11.5,4c4,0.8,6.8,4.2,5,6.2c-0.7,0.8,0.3,2.8,2.8,5.4
					c3.1,3.3,4.1,5.4,4.3,10.1c0.2,4.9,1,6.4,4.5,9.3c8.5,6.9,9.1,7.7,9.3,10.1c0.1,1.4-0.6,2.6-1.5,2.7c-2.3,0.2-6.8,1.4-16.7,3.9
					c-8.8,2.3-44.1,9.6-57.2,11.8c-3.8,0.6-7.8,1.4-8.8,1.7s-5,1-8.9,1.7c-3.9,0.6-8.2,1.4-9.4,1.7c-4.1,1-13.3,2.6-27.6,4.7
					c-7.7,1.1-16.1,2.5-18.9,2.9s-11.9,1.5-20.2,2.3s-16.2,1.8-17.4,2.3C1791.9,938.8,1794.6,934.4,1799.5,927.9z"/>
				<path id="path11250" class="st0" d="M1973.3,889.1c-1.2-1.7,0-12.3,1.9-18.2c0.9-2.7,1.4-5.9,0.9-7.3c-0.8-2.5,1.7-3.9,7.5-4.3
					c2.4-0.1,2.8,0.4,2.1,2.1c-0.4,1.3-1.7,4.9-2.6,8c-1,3.2-2.7,6.9-3.9,8.2c-2.4,2.8-2.6,4.6-0.5,5.1c1,0.3,0.8,1.5-0.6,4
					C1976.2,890.5,1974.7,891.1,1973.3,889.1z"/>
			</g>
			<path id="US-VT" class="st0" d="M1997.7,680.8c-0.3-5.2-7.4-23.7-10.2-26.4c-2-1.9-2.9-4.8-3.6-12c-0.5-5.2-1.4-10.8-1.9-12.6
				s-1.4-5.1-1.9-7.6l-1-4.5l11.8-3.3c6.4-1.8,14.3-3.8,17.5-4.4l5.8-1.1l1.2,5.9c1,5.4,0.8,6.3-2.5,10.5l-3.7,4.8l1.7,25.8
				c1.5,22.3,1.4,25.8-0.2,25.9c-1,0.1-4.3,0.6-7.3,1.1C1998.3,683.8,1997.9,683.6,1997.7,680.8z"/>
			<path id="US-WA" class="st0" d="M963.8,567.1c-18.7-5.7-27.5-7.1-45.2-7.5c-13.3-0.2-20.8-1.6-31.5-5.9
				c-5.3-2.1-13.4-4.4-17.9-5.1c-4.6-0.7-9-2.2-9.9-3.2c-0.9-1.1-1.8-4.7-2.1-8.3c-0.3-5.8-1-6.9-6.1-11.9c-4.1-4-7.3-5.7-11.6-6.6
				l-5.9-1.2l0.8-4.9c1-5.9,5-42.1,6-55.1c0.4-5.2,1.4-10,2.4-10.5c1.8-1.2,5.4,0.5,14.7,7.6c5.7,4.3,20.9,10.2,25.9,10.1
				c0.8,0,1.1-1.8,0.7-4c-0.4-3,2.6-14.8,4.7-18.1c0.1-0.3,3.7,0.8,7.9,2.3c4.1,1.4,30.2,10,57.9,18.9s50.6,16.4,50.8,16.6
				c0.3,0.2-1.8,7.8-4.5,16.8s-7.7,25.8-11.2,37.1c-4.2,14.2-6.3,23.4-6.5,29.6l-0.3,9L963.8,567.1z"/>
			<path id="US-WI" class="st0" d="M1602.2,755.5c-25.4,0.4-25.9,0.2-28.6-15.7c-2.7-16.2-8.5-30.9-12.9-32.7c-1.6-0.7-8.7-6-16-12
				l-13.1-10.9l-0.8-15.4c-0.7-13.4-0.4-15.7,1.4-17c7.1-4.7,9.1-7.7,9-13.6c-0.2-9.4,0.7-13.4,3.6-13.9c4.5-0.9,23.6-8,24.8-9.4
				c1.9-2.1,3-1.5,2.8,1.9c-0.1,2.5,0.6,3.5,3.1,4.3c4.1,1.3,8.8,5.5,10.1,9c0.7,2.1,3.6,3.2,13.5,5.5c15.1,3.4,33.4,8.9,37.2,11.1
				c4.2,2.3,12.2,14.9,13.5,20.9c0.7,2.9,1.9,5.4,2.7,5.3c2.4-0.1,7-5.4,8.6-10.1c1.9-5.3,4.6-6.1,3.5-0.9c-0.4,1.9-0.6,4.9-0.4,6.4
				s-0.2,2.9-0.9,3c-2.7,0.1-4.9,4.4-5.8,11.5c-1.3,9.6-3,17-4.3,20c-3.1,6.6-3.4,23.4-0.8,41.8l1.4,9.8l-16.3,0.4
				C1628.7,754.9,1612.8,755.3,1602.2,755.5z"/>
			<path id="US-WV" class="st0" d="M1825.3,909c-8.3-2.6-23.6-18-24.9-25c-0.5-2.8,0.2-5.2,2.7-8.9c1.9-2.8,3.4-6.4,3.3-7.9
				c-0.1-2.2,1.1-3.5,4.1-4.9c3.3-1.6,4.3-3,4.8-6.5c0.7-5.5,4.3-10.2,10.6-14.2c6-3.9,10.3-15,9.7-25.7c-0.5-9.7,1.5-10.5,3-1
				c1.8,11.5,3.8,12.6,18.1,11.4l11.5-1l1.7,6.3c1.6,5.6,2,6.2,4.9,5.7c1.8-0.2,6.2-2.8,10-5.8c8.2-6.4,20-10.1,25.4-8
				c3.8,1.5,4.1,2.5,1.8,5.9c-1.5,2.4-1.8,2.4-7.1-0.2c-6.2-2.9-7.2-2.3-8.1,3.8c-0.6,4.1-5.6,10.3-10.3,12.3
				c-1.4,0.6-2.4,3-2.7,6.9c-0.7,6.4-0.9,6.6-8.9,7.8c-3,0.4-5.5,1-5.6,1.3s-2.2,6.1-4.6,12.8c-2.3,6.7-5.7,14.9-7.6,18
				s-3.4,6.1-3.3,6.6c0,0.9-6.9,3.9-19.9,8.9C1830.3,909.3,1827.4,909.7,1825.3,909z"/>
			<path id="US-WY" class="st8" d="M1240.8,795.2c-6-1-15-2.4-19.8-3.3c-4.9-0.8-18.8-3-30.7-4.9c-25.1-3.9-77.4-12.4-91.5-14.7
				c-5.2-0.9-10.4-1.5-11.2-1.5c-0.9,0-1.4-0.8-1.1-2s1.2-5.8,2.1-10.4c0.9-4.6,2-9.7,2.6-11.6c0.5-1.8,1.3-5,1.4-7.2
				c0.4-4,3.4-20.5,10.4-57.5c2.1-11.3,4.4-23.7,5-27.7s1.7-8.2,2.6-9.5c1.7-2.5,1.4-2.5,64.6,7.5c19.4,3.1,50.1,7.9,63.3,10
				c0.8,0.1,7.8,1.3,15.7,2.5l14.5,2.3l-0.4,4.6c-0.3,2.6-2.8,25.3-5.8,50.5c-3,25.3-5.6,47.4-5.9,49.2c-0.6,5.7-1.2,10.7-2.3,17.8
				c-0.6,3.8-0.9,7.2-0.9,7.4C1253.6,797.2,1253.1,797.2,1240.8,795.2z"/>
		</g>
	</g>
	<g id="Mexico" transform="matrix(0.7246339,0.1024045,-0.1024045,0.7246339,458.65326,1414.5141)">
		<path id="MX-CHP" inkscape:connector-curvature="0" class="st9" d="M726.9,149.3c-5.6,4.6,0.3,12.9-5.9,17.3
			c-4,4.4-1.3,11.4-6.2,15.5c-3.7,2.6-6.9,5.7-7.2,10.3c-3.1,9.2-7.1,18.6-7.2,28.3c2.2,3.6,2.7,9.3,5.3,12.2c3.3-0.5,6.5,3.1,4.2,6
			c4.3,2.1,8.6,6.5,12.8,7.4c3.2-2.1,10,1.2,9.2,5.5c8.5,5.7,14.3,16.4,25.4,17.3c3.3,0.8,10.5,3.5,6.9,7.9
			c7.7,6,15.3,14.2,23.4,18.6c2.3-6.5-1.5-14.6,2.4-20.6c-0.4-5.2-7.9-7.7-6-13.8c3.7-9.8,9.7-18.8,13.5-28.7
			c1.1-7.5,6.8-9.1,13.5-9.2c15-1.9,30.2-3.2,45.2-4.6c-0.6-4-1.5-8.8,1-12.5c-5.9-1.2-10.8-4.8-12.8-10.5c-4.1-5.5-11-6.7-16.8-8.9
			c-6.9-5.7-14.3-11.2-21.6-16c-2.6-5.8-12.9-3.7-13.9-11c0.5-2.1,2.3-5.3-1.4-5.5c-4.1-1.1-7.7-5.8-11.6-5.8
			c-4.4,3.5-11,3-13.6,8.9c-4.5,5.7-7.1,15.8-15.1,17.1c-3.9-1.2-6.4-5.4-10.8-4.8C730.7,166.6,735.9,151.2,726.9,149.3z"/>
		<path id="MX-OAX" inkscape:connector-curvature="0" class="st9" d="M580.9,130.7c-2.2,9-6.3,19.1-14.4,24.5
			c-6.6,3.4-15.1,0.2-21.3,3.2c-1.4,5.4-8.5,4.7-9.7-0.4c-1.3-2.2-4.1-5.1-4.7-6.7c-5.2,4.2,3,8.6-0.2,13.2
			c-5.3,6.5-15.3-3.8-20.6,2.4c-1.6,9-1,19.6,3.7,27.6c5.4,5.8,13,10.6,13.5,19.6c4,7.3-6.3,10.7-9.6,15.8
			c-1.2,2.2-10.4,8.6-6.5,8.8c9.6-1.1,16.5,6,24.1,10.2c12.4,2.5,26.6-1,37.8,6.6c6.3,2.6,13.4,3.4,20.1,5.1
			c10.3,0.1,18.6-5.8,27.1-10.5c6.6-2,12.3-5.8,18.8-8c5-3.8,8.5-10.8,15.7-10.4c3.3-0.3,0.9-4.2,3-6.5c1.5-5.3,10.4-7.1,11.6-0.8
			c3.8-4.8,12.2,0,11.9,4.9c2,0.3,0.4-6.6,4.9-5.2c3.3,0.6,7,5.5,9.9,3.3c-5.7-5.8-3.2-12.7-0.6-19.4c1.9-5.9,3.6-11.7,5.2-17.8
			c-13.6-0.6-27.6,1.3-41.1,0c-2.4-2.2-1.6-6.4-5.9-6.4c-5.6-2.9-10.8-7.2-13.3-13c-5.5,3.5-10.9,9.4-18.4,7.4
			c-8.2-0.6-13.4-11.8-9-18.3c2.7-3.7,0.4-11.3-5.3-9.5c-7.1,1.1-14.6-2.1-16.6-9.3c-4.5-1.8-3.3-10.1-9.4-10.1L580.9,130.7
			L580.9,130.7L580.9,130.7z"/>
		<path id="MX-GRO" inkscape:connector-curvature="0" class="st9" d="M415.1,138.1c0.4,4.8,1.5,14.4-5.6,13.9
			c-13.5-3-27.4-3.1-40.9-0.7c-4.5-0.4-8.1-6.4-12.8-2.9c-4.5,3.4,3.9,9.7-1.5,13.7c-2.1,3.2-9.2,4.1-6.9,9c9.8-0.4,14.9,9.1,22,14
			c5.4,1,11.3,3.6,13.8,8.7c4.2,2.6,9.3,5.4,12,9.3c9.3,3.5,18.5,7.6,28.3,8.2c1.6,2.2,2.9,1.6,4.7,0c5.3,0.2,9.3,5.5,14.6,6.8
			c3,1.5,4.9,3.4,7.8,1.5c4-0.5,7,3.6,11.1,1.5c3.9-1,6.5,3.1,9.3,4.1c4.5-4.7,8.6,4.1,13.7,2.5c6.1-1.5,10.7,3.3,14.8,6.6
			c2.7,2.3,4.4,2.3,6.4-1.1c2-7.5,12.7-9.3,14.3-16.8c0.6-8-6.5-12.5-12.2-16.1c-1-5.4-5.5-9.4-4.8-15.2c-0.6-6.2,2.7-15.1-5.2-17.9
			c-5.6-0.4-10.1-3.9-14.1-7.4c-6.2-2.6-10.5-9.9-15.6-12.7c-5.4,2.7-10-2.3-11.9-6.9c-2-2.4-8.8-5.4-9-0.1
			c-2.4,6.8-12.1,1.6-14.7,7.7c-2.8,6.9-15.1,5.7-14.7-2.3C417.6,143.1,416.3,140.2,415.1,138.1z"/>
		<path id="MX-TAB" inkscape:connector-curvature="0" class="st9" d="M751.8,112.7c-5.6,5.5-11.9,9.9-19.4,12.6
			c-2.1,2.8-7.7,3.7-9.3,0c-4.4,1.2-10.5,0.4-12.2,5.4c-3.9,1.6-7.7,3.1-10.9,6.3c-2.9,2.4-6.2-2.7-7.9,1.7
			c1.4,8.3,5.9,16.5,14,20.2c3.1,1.6,5.1,5.6,6.7,7.7c1.3-4,6.3-6.5,4.1-11.2c-0.6-6.9,5-14.8,12.6-12.4c9.2,1.9,10,13.1,11.9,20.3
			c3.2-0.2,6.8,0.9,8.9,3.2c7.2-6.3,9.1-18.4,18.4-22c4.3,0.7,7.4-4.7,12-3c2.8,0.2-3.7-2.7-4.7-3.2c-6.2-1.5-10-7.2-9.2-13.6
			c0.5-7.1-7.2-5-11.5-6.5C752.7,117.9,753.9,111.5,751.8,112.7z M799.3,134.5c1.7,5.5-3.7,9.5-8.8,8.9c-3.6,0.1-5.6-0.5-1.4,2
			c3.8,3.1,10.3,3.8,11,9.9c-0.1,2.9,0.6,5.2,3.9,5.3c3.7,0.7,7.2,3.6,7.8,6.8c4.2-0.7,14.3,2.7,12-4c-1.3-8.1-1-17.6-3.7-24.9
			C812.7,139.2,806.5,134.2,799.3,134.5z"/>
		<path id="MX-MIC" inkscape:connector-curvature="0" class="st9" d="M333.9,67.8c-10.4-0.1-17.5,9.5-27.9,9.5
			c-2.3-0.1-8.5,3.2-3.4,3.7c5,1.8,12.3,2,15,7.2c-0.1,3.7-3.2,7.4,0,10.5c-0.1,3.4,1.9,2.9,4.7,3.1c6.9,3.1,2.5,12.6-1.7,16.1
			c-4.2,4-10.6,4.2-14.3,9.2c-4.1,4.6-9.8,7.5-15.9,6.3c-3,3.1-9.1,0.3-10.4,5.5c-2.5,2.8-5.4,6.7-0.9,9.7
			c4.5,3.8,6.2,10.2,12.6,11.5c9.2,3.2,18.9,4.3,27.2,9.4c6.7,1.6,13.7,2.5,20.2,3.9c3.3-0.9-0.2-7.5,2.7-10.2
			c2.2-3.5,9.3-4.9,6-10.1c-3-9,8.1-14,15.4-12.2c3.2,1.5,5.9,3.4,9.9,2.4c11.4-0.6,24-0.6,34.7,1.4c-0.5-5.3-0.8-13.4,5.6-14.6
			c7.7-12.6,5.1-28,8.4-41.8c1.2-2.1,1-5.1,3-6.9c0.7-3.6-1.4-7.8-5.6-5.4c-5.3,3.2-10.7,7.1-17.5,6.1c-5,0.6-9.7-1-13.4-4
			c-6.7-1.8-13.4,6.9-19.5,1c-4.1-2.3-1.1-10.9-6.9-10.4c-4.1,1.6-7.9,7.5-12.9,4.2c-4.3-2.8-7-8.5-13.2-5.3l-1.3,0.2L333.9,67.8
			L333.9,67.8z"/>
		<path id="MX-PUE" inkscape:connector-curvature="0" class="st9" d="M525.3,38.1c-5.3,3.1-0.8,10.3-5.4,14.1
			c-1.7,3.1-5.7,6.2-7,8.7c6.2,5.7-0.4,14-1,20.5c2.6,5.6,11.7,5.1,14.4,10.7c4.8,1.3,13.2,7.2,8,12.4c-2.1,2.8-6.7,0-7.4,4.1
			c-2.2,4.2-7.6,0-9.6,3.8c-8.8,4.8-16.3-4.1-21.3-10c-2.6-0.9-0.1,8.4-0.7,10.8c0.4,5.7,0.2,12-0.4,17.3c3.9,4-1.9,7.6-0.7,12
			c0.6,4.2-4,6.8-7.1,4.5c-3.2,1.2-7.7,3.6-2,5.4c4.6,2.6,7.1,7.5,12.8,7.5c3.3,0.5,6.7,4.9,9.2,0.4c4.8-3,11.8-2.5,16.6-1.1
			c-4.2-7.3,4.6-17.2,12.3-16.2c5.1,0.9,0.9,7.9,5,9c9.2-3.5,22.8,2.2,28.3-8c-1.6-5.9-7.8,1.2-11.6-1.3c-4.7-1.7-3.5-9.2-9.7-8.9
			c-7.1-2.6-3.9-11.2-1.4-16c1.4-3.4-1.5-8,2.9-10.2c1.3-1.5,7.3-2,2.8-2.4c-6.1-0.7-11.6-5.8-10.3-12.4c1.2-8.2,3.5-16.7,7.6-23.7
			c-3.7-2.7-6.2-2.4-8.2,1.4c-5.1,5.2-12.9-1.4-14.9-6.6c-0.8-5.7-2.3-16,6-16.5C528.7,45.4,524.8,42.4,525.3,38.1z"/>
		<path id="MX-MOR" class="st9" d="M472.6,144.1c-3.1-3.9-6.6-4.7-6.4-1.6c0.1,1.1-0.7,1.6-1.8,1.2c-1-0.3-2-1.4-2-2.4
			c-0.1-1-1.3-2.7-2.7-3.8c-1.4-1.1-2.7-2.4-2.7-2.9s2.1-3.7,4.7-7c2.6-3.3,4.7-7,4.7-8.1c-0.1-1.5,0.9-1.8,4.8-1.4
			c11.1,1.3,11.9,1.6,12,4.1c0.1,1.9,1,2.4,4.6,2.2c4.2-0.2,4.3-0.1,3,2.4c-1.2,2.1-1.1,3.1,0.3,5.1c1,1.5,1.1,2.5,0.4,2.5
			s-1.2,2.1-1,4.5c0.2,4.2,0.1,4.3-2.5,3c-2.2-1.2-2.8-1.1-3.3,0.2c-0.4,1.4-6.4,5.7-8.2,5.7C475.8,147.8,474.2,146.2,472.6,144.1z"
			/>
		<path id="MX-MEX" inkscape:connector-curvature="0" class="st9" d="M437.5,68.7c-1.3,2.5-4.3,2.6-4.5,5.7
			c-3.6,4.4,0.9,12-4.3,15.4c-3.4,13.5-0.7,28.3-7.8,40.9c-0.4,5.3,4,10.5,4.1,15.8c3.3-3.3,5.9-8.8,11.6-8.2
			c4.1,1.1,5.6-1.7,6.5-5.1c2.8-5.6,10.6,0.7,13.1-5.5c4-4,8.2-9.3,4.6-15.1c-3.8-6.8,3.9-11.2,5.8-16.8c0.2-6,7.6-3.4,8.7,0.7
			c4.1,5.6,7.5,12.2,7.7,19.2c2.9,0,3.1,4,4.4,4.7c3.5-2.8,0.7-9.6,1.1-13.8c-0.4-4.8-0.9-9.7-3.9-13.5c-0.1-3.7,7-5.3,2.5-8.6
			c-4.4-1-13.4,3.1-14.5-3.6c0.8-2.7,0.4-4.8-2.3-2.6c-2.7,2-3.1,6.8-7.7,6.5c-5.2,1.7-9.3-2.6-9.4-7.5c-0.3-3.9-2.6-6.7-6.8-5.8
			C443.3,71.5,440.1,70,437.5,68.7L437.5,68.7z"/>
		<path id="MX-COL" inkscape:connector-curvature="0" class="st9" d="M275.4,111.3c-5,1.9-10.7,2.6-15.6,2.2
			c-2.9,7.1-14.8,5.7-18.7,9.1c3.8,0.8,9.8,0.8,9.4,6c2.5,1.3,4.6,2.7,5.2-0.5c3.5-3.5,4.8,3.7,8.5,3.4c2.8,2,3.9,6.9,8,6.7
			c6.1-7,6-17.3,4.5-26C276.6,111.1,276.1,111.1,275.4,111.3z"/>
		<g id="g11425" class="st10">
			<path id="path11268" inkscape:connector-curvature="0" class="st0" d="M847.9,23c-4.1,1.2-8.7,1.7-12.9,1
				c-0.9,7.9,3.4,17.5-1.6,24.4c-6.5,6.2-1.7,17.5-6.5,24.9c-5.1,8-12.8,13.3-20.5,18.3c-3.4,3.1,3.2,5,3.5,8.8
				c1.5,6.3-4.5,11-9.4,12.9c2.4,5-4,6.3-7.3,4c-4.9-2.4-5.1,5.3-8.9,6.9c-6.6,10-3.6-1.2-3-6.8c-2.1-2.3-9-2.8-10.9-2.6
				c5.9,4.3,0.1,14.7,8.1,17.1c4,2.1,10.4,5.1,14,3.2c-1.9-7.1,8.5-10.5,13.5-7c5.9,3.8,13.3,2.5,19.3,5.4c3.3,2.2,0.5,9.4,6.4,6.3
				c19.1-2.9,39.4-3.8,57.9-7.1c-3-26.9-6.6-53.9-11.8-80.4C867.7,42.6,858.7,31.2,847.9,23z M762.9,108.2c-3.8-0.8-5,1.8-3.2,4.7
				c1.9,0.7,4.1,0.4,3.2-2.2c0.2-3.1,7.8-2.9,1.4-2.6l-1.3,0.1H762.9L762.9,108.2z M771,108C771.4,107.9,770.1,107.9,771,108z
				 M771.2,108C777.4,108.4,778,107.9,771.2,108z"/>
		</g>
		<path id="MX-JAL" inkscape:connector-curvature="0" class="st9" d="M260-42.9C256.9-41.9,263.3-41.7,260-42.9z M256.5-29.5
			c-5.1-1-8.2,3.1-8.1,7.8c-2.1,6.1-2,11.4,3.9,14.9c5.6,3.7,2.5,10.3,2,15.3c5.1,2.7,8.1,9.2,4,14.1c-1.5,2.9-6.5,4-8.2,4
			c3.5,3.5,2.7,8.9-0.1,12.4c-2.6,3.4-1.1,15.5-5.6,12.3c-5.6-2.9-10.5-12.3-17.8-10.3c-4.9,3.9-11.9,4-15.4,10
			c-4.2,4.8-6.9,11.8-14.2,12.6c-3,0.9-10,2.9-5.4,6.7c2.3,2.9,3.1,7.1,3.9,10.3c5,3.8,7,9.7,9.5,15c4,3.9,9.5,6.4,11.8,11.8
			c2.6,4.6,7.2,6.2,11.7,7.9c4.3,4.1,11-1.1,15.9-1.2c4.7-0.9,8.9-2,11.4-6.2c7.6-3.3,16.4-1.8,24.5-3.3c5.8,6.6,5.1,15.2,3.6,23.2
			c1.8,0.9,7-1.9,10.2-0.6c7.3-3,12.1-10.9,20-13.1c2.7-1.9,6.6-5.9,1.2-4.5c-5.6-2.6-6-10.7-5.9-16.3c2.3-4.3-5.2-3.4-7.7-4.7
			c-3.9,0.1-10.6-0.7-9.5-6.4c0.6-6.1,5.3-11.2,11.7-11.5c5.9-0.8,11.3-3.1,15.9-6.6c6.5-4.1,17.6-1.3,20.4-10.2
			c-5.6-5.2-2.3-12.8,2-17.5c5.2-5.1,5.3-14.2,13-16.6c-0.7-5.8-0.2-11.9,3.2-16.9c2-3.1,1.1-5.3-2.6-6.2c-4.2-5.1-7.8-3.7-11.3,1.6
			c-5,5.8-12.4,12.8-20.8,9.4c-3.2-0.9-9.2-4.4-11.2-1.1c6.5,3.6,5.7,12.8,0.1,16.9c-9.9,12-27.2,6.4-40.3,10.8
			c-5.2,2.2-8.4-3.4-13.1-4.7c-3.7-2.2-2.8-7.5,1-8.7c1.9-5.8,4.1-12.1,7.7-16.9c-1.6-3.5,1.6-5.5,1.8-8.7c1.6-3.3,8.3,0.5,6-4.2
			c0.4-4.8,6.4-3.2,9-4.9c1.4-4,3.1-8.3,3.6-12.5c-2.9-1.3-8.1-1.2-7.2,3.2c1.2,6.5-5.7,11.1-11.6,8.8c-8.2,1.6-3.5-8.6-4.4-11.8
			c-0.8,5-9.6,8.4-9.3,1.4C255.8-25.8,257.7-29.5,256.5-29.5z"/>
		<path id="MX-DIF" class="st9" d="M470.1,116.5c-3.6-0.3-4.6-1.2-5.6-4.4c-1.1-3.4-0.7-4.5,3-8.9c3.7-4.5,4.2-4.8,5.1-2.7
			c0.6,1.4,1.8,3.2,2.8,4.3c1,1.1,2.1,4,2.6,6.3C478.8,116.3,477.5,117.2,470.1,116.5z"/>
		<path id="MX-TLA" class="st9" d="M508.9,108.8c-1.8-0.8-5.3-4-7.7-7.1c-3.2-4-5.2-5.4-7.2-5.1c-2,0.4-2.9-0.4-3.3-2.4
			c-0.5-2.6,0-2.9,5.7-3.2c3.4-0.2,7.2-1.1,8.5-2.2c1.5-1.1,3.1-1.6,4.3-1c1.2,0.6,3.6,1.2,5.7,1.5c2.2,0.4,4.5,2.1,5.9,4.3
			c1.2,2,3.1,3.4,4,3c1.4-0.6,6.8,3.1,6.8,4.7c0,0.4-1.4,0.7-3.1,0.8c-1.8,0.1-3.7,1.3-4.6,2.6c-1,2-1.9,2.3-3.9,1.3
			c-1.9-0.9-3.1-0.6-5.1,1.5C512.5,109.9,511.7,110.1,508.9,108.8z"/>
		<path id="MX-HID" inkscape:connector-curvature="0" class="st9" d="M471,17.4c-2.3,4.4-7,10.5-12.5,8.5
			c-2.3,6.3-5.5,12.5-6.8,19.1c-2.6,4.4-10,4.7-11.5,9.5c1.1,3.5-2.9,8.4,2.4,9.1c4.8,3.1,13.4-0.2,15.3,7c1.5,2.1,1.4,7.7,4.1,7.8
			c2-6.2,13.6-11.5,16.8-3.6c-0.2,5.7,6.3,1.7,9.9,3.2c4.7,0.5,4.8,7,7.3,9.2c4.5,0.3,10.3-2.7,8.9-7.9c-0.1-4.3,6-9.4,2.9-13.2
			c-4.6-1.3-7.2-9.3-1-10.2c3.3-1.8,6.8-5.4,8.1-8.8c-2-2.1-4.5,4.2-6.3,5.1c-3.7,4.1-11.2,12.1-16.6,6.2
			c-3.3-4.2-1.8-10.4-1.1-14.4c-4.1-2.7-1.4-8.1,2.5-8.9c1.6-3.3,5-6.5,8.4-5.2c-0.3-3,3.6-6.3-0.7-7.1c-2.7-1.3-6.9-0.7-9-4
			c-0.7,3.8-9.9,0.7-14.3,0.8C475.6,19.1,472.8,17.9,471,17.4z"/>
		<path id="MX-GUA" inkscape:connector-curvature="0" class="st9" d="M368.1-0.1c-3.2,1.1-1.6,6.6-4.1,8.7
			c-4.1,4.6,1.6,11.3-3.5,15.8c-2.8,2.2-6.3,3.6-6.7,7.4c-1.7,5.7-8.3,9.7-8.7,15.5c3.7,2.7,4.6,7.6,1.1,11
			c-2.8,2.8,3.7,2.6,3.7,5.9c1.3,4,5.1,1.3,7.1-0.7c5.8-3.1,15.4-1.3,15.4,6.8c0.6,3.4,2.5,5.2,5.3,2.7c5.6-1.4,14.6-4.3,18.2,1.7
			c7.2,1.9,14.2-0.6,20.1-4.6c4.9-0.8-2.9-3.9-3.8-5.8c-6.5-5-8.3-12.9-10.9-20.1c-2.3-6.4,2.6-13.7,9.5-12.7
			c2.7-0.3,4.8-3.8,8.4-2.3c1.5-0.7,2-4.7,4-6.3c-0.7-6.7,7.2-6.7,11.1-4.7c0.7-1.3-2.2-3.8-2.8-5.4c-5.7-2.3-12.6-3.2-17-7.3
			c-6.8-0.7-9,9.7-16.3,6.5c-7.4-1.7-11.8-10.4-20-9.3C374.3,3.3,371.7-0.2,368.1-0.1z"/>
		<path id="MX-QUE" inkscape:connector-curvature="0" class="st9" d="M457.8,3.8c-3.3,2.6-0.9,9.9-6.9,9.4c-4.3,0-8.7-4-12-3.8
			c-2.7,4.1,6.6,5.5,3.1,10.3c-2.2,5.1-8.3,6.5-12.4,5.2c-0.8,3.5-4,5.7-3.7,9.5c-2.5,4.2-7.7,0-10.6,3.6c-3,1-9.1-0.2-7.5,4.9
			c1.1,4.5,3.2,8.8,5.3,12.9c4,5.5,11.4,8.1,14,14.4c1.6-2.9,4.1-4.6,3.8-8.2c1.1-2.8,4.4-4,2.9-7.6c-1.3-7.4,8.3-8.4,11.4-12.8
			c0.8-7,5.7-12.8,7.6-19.5c1.5-3,5.6-5.5,8.5-3.2c6.2-3.2-1.5-7.8-2.5-12.3C458.3,5.8,458.1,4.1,457.8,3.8z"/>
		<path id="MX-YUC" inkscape:connector-curvature="0" class="st9" d="M916.5-42c-14.6,0.5-24,14.4-38.6,15
			c-15.5,4.2-33,9.8-42.3,23.8c-2,2.5-0.8,5,0.9,6.9c1.5,4.6,1.2,9.5,1.6,14.3c5,1.7,8.7-5.3,13.2-1.7c10.5,8.7,19.4,19.6,29.1,29.2
			c21.7-17.1,42.8-35,64.1-52.7c2.7-9.8,7.6-22.5,0.6-31.2C936.2-42.1,926.2-42.5,916.5-42z"/>
		<path id="MX-ZAC" inkscape:connector-curvature="0" class="st9" d="M314.6-151.1c2.8,7.6,6.9,16.2,5.7,25c2.9,9-4.4,9.2-11.3,9.7
			c-9.8,1.6-20-2-29.5-0.8c-3.3,7.4-9.8,13.1-15.7,18.3c-3.1,5.7,3.6,14.3-2.2,18.6c-2.8,0-4.1,1-5.3,3.6c-6.2,8.2-4.2,20-5,29.8
			c0.9,3.4-2,11.4,3.7,10.7c-3.1-3-4.1-11.2,1.1-13.3c5.5-1.3,16.8,0.9,13,8.4c6.3,2.1,5.5,9.2,3.6,14.3c-0.9,2.2-2.5,8.6,1.6,6.1
			c0.5-5,1.2-11.9,7.6-12.7c5.5-1,13.8,1,12.5,8.3c-0.1,10.5-5.5,24.3-17.1,26.4c-2.4,2.3-2.8,8.4-5.6,11.6c-2.5,3.6-4.4,9-4.8,12.6
			c2.4,1.8,4.3,4,7.5,1.9c11.4-3.2,26,1.9,34.3-8.8c4.7-2.9-0.7-8.8-4.3-9.6c-6.2-4.9-7-15.4-3.9-22.3c3.3-4.7,9.5-6.3,12.2-11.5
			c4.7-2.8,10.9-3.2,14.3-8.1c5.7-2.8,9.8,4.7,13.4,8.1c3.6,4.1,3.3,12.5,10.9,10.7c3.7,0.8,6.8,3.5,9.4,6
			c5.6-6.4,4.7-15.8,0.3-22.5c-0.8-4,6-5,2.7-9.5c-1.4,0.2-3.4,5.1-6.2,5.9c-2.4,2.2-5.6,0.4-6.9,3.5c-5.2,2.3-7-4.5-9.4-7.4
			c-7.1-4.7-17-9.4-17-19.5c1.6-3.8-1.4-5.6-3.3-8.2c-2.5-6.3,6.5-9.1,10.7-11.2c5.5-1.9,11.8-1.6,15.9-6.5
			c6-6.5,13.3-13.1,16.8-21.4c-2.8-5.4,0.7-13,7.1-11.9c0.3-3.2,2.8-7,4.9-8.5c-6-1.2-9.4-7.8-13.4-11.4c-4.9,0.6-11.7,1.6-13.8-4.3
			c-2.3-1.3-5-2.5-5.8-5.2C333.9-148.1,324.6-152.6,314.6-151.1z"/>
		<path id="MX-SLP" inkscape:connector-curvature="0" class="st9" d="M383.8-122.6c-2.5,2.7-5.8,3.8-5.7,8.2c-0.7,3.1-3.6,5.9-7,5.3
			c3.4,10.1-7.8,17-12.6,24.1c-6.2,7.8-14.9,14.1-25.2,14.5c-2.5,1.1-6.2,2.2-3.3,4.9c2.6,6.5,1.8,15.9,10.1,18.4
			c3.8,0.7,6.5,5.3,9,6.4c2.6-1.7,5,2.5,6.8-1c3.2-2.2,1.2-9.2,7-8c7.8,2.8,11.4,13.1,6.3,19.9c4.5,6.2,1.5,16.8,0.2,22.5
			c4.6-1,6.5,5.1,11.2,3.5c8.6-1.4,12.7,7.7,19.8,9.5c3.4-2.2,5.7-7.1,10.8-6.6c3.5-0.4,8.8-0.7,10.1,3.4c3.9,0.1,8.6,4,11.7,3.1
			c1.7-6.9,10.1-3.8,13.7-0.6c3.7,2.9,2.7-3.6,5.3-5.1c2.5-4.2,8.8-5.9,10.9-0.3c3.2,3.8,3.9,11.4,10,11.2c3.3,2,9.1,3.7,11.6,1.8
			c-1.2-2.7-0.3-6.3,2.4-7.4c-3.9-4-2.7-10.5,1.7-13.4c-0.6-3.9-6.9-10.8,0.4-11.8c2.2-2.3-0.3-6.3,2.8-8.1
			c-8.2-7.3-19.3-1.1-29.1-2.7c-5.7,0.5-10.8-2.9-12.1-8.4c-1.3-2.5-3.3-4.7-5.6-2c-8.2,0.5-16.5-2.7-24.1-5.6
			c-4.9-3.6-1.8-9.8,0.6-13.5c-1.1-4-6.2-2.6-8.4-5.7c-3.5-1.3-5.9,3.3-9.9,2c-7.9-1.3-5.5-11.9-6.5-17.4c0.2-6.7-0.4-13.7-4.9-19
			c-3.5-7.3,0.4-17.3-7.4-22.6L383.8-122.6z"/>
		
			<path id="path11282" inkscape:connector-curvature="0" sodipodi:nodetypes="ssssssssssssssscssscsssssssssssscssssscssssssssssscscssssscsscscsssssssssssssssssssssssssssccssssssssssssssssscssscscsssss" class="st9" d="
			M661.1,184c-0.1-1.6-1.6-3.1-4.4-4.1c-2.3-0.9-6.3-3.5-8.8-5.9c-3.6-3.4-4.3-4.6-2.9-5.6c2.1-1.4,0.6-5.2-1.9-5.1
			c-1,0.1-2.5,1-3.3,2.1s-2.4,2-3.4,2.1s-3.5,1.7-5.3,3.6c-7.8,8.3-19.7-1.5-13.6-11.2c1.6-2.6,1.6-3.8,0.1-8.5
			c-2.1-6.2-3.1-6.8-10.3-5.7c-2.9,0.4-5.2,0.3-5.2-0.5c0-0.6-1.2-1.2-2.6-1.1c-1.4,0.1-2.6-0.8-2.6-1.8c-0.1-1-1.3-3-2.8-4.3
			c-1.5-1.3-2.7-3.2-2.7-4.1c-0.3-2.8-3.3-5.5-8.5-7.3c-6.7-2.5-7.5-2.2-6.5,1.7c0.6,2.4,0.1,4.9-1.5,7.9l-2.4,4.4L570,138
			c-2.2-2.6-2.4-2.7-6.9-0.5c-4.3,2-4.6,2-6-0.2c-0.8-1.4-1.4-3.2-1.5-4.2s-1.8-2.2-4.1-2.6c-5.1-0.9-6-3.1-2.9-8
			c1.4-2.1,2.4-5.6,2.3-7.6c-0.2-3.4,0.4-4.1,5.2-5.7c7.1-2.6,7.2-6.6,0.1-7.6c-7-1.2-9.5-2.6-10.5-6.3c-1.1-4.4,3.7-19.6,7.7-24.4
			c2.5-2.9,2.7-3.8,1.3-4.6c-1-0.6-2.5-1-3.2-1c-0.8,0-3-1-4.8-2.3c-3.4-2.4-7.3-1.9-7.2,0.9c0.2,3.3-2.4,4.4-5,2.3
			c-1.3-1.2-2.9-2.3-3.7-2.5s-1-2.6-0.7-6.2c0.3-3.2,0.8-5.2,0.9-4.7c0.2,0.5,1.9-0.2,3.8-1.8c4.2-3.3,3.8-5.1-1.5-7.8
			c-2.7-1.4-4-3-4.4-6.1c-0.6-3.5-1.1-4.1-3.5-3.6c-3.5,0.7-7.6,5-7.5,7.7c0.1,1.6-0.3,1.8-1.9,0.6c-1.6-1.2-2.7-0.9-6.2,2.1
			c-2.3,2-5.1,5-6,6.6s-3.1,3.7-4.8,4.6c-2.8,1.4-3.2,1.3-4.5-1.7c-1.1-2.6-1-4.1,0.9-7.7l2.3-4.4l-2.8-1c-1.9-0.7-2.2-1-0.8-1.2
			c1.1-0.1,2.8-1.4,3.8-3c1.4-2.4,2.2-2.6,4.4-1.5c3.2,1.5,4.2,0.7,4-3.2c-0.1-1.6,0.4-4.3,1.1-6.1c1-2.5,1-3.7-0.4-5.1
			c-0.9-1-2.2-1.5-2.7-1.1c-0.6,0.4-1.2-0.2-1.2-1.3c-0.1-1.5-0.9-1.9-2.7-1.1c-3.4,1.3-7.6-2.2-6.9-5.5c0.3-1.4-0.7-4.7-2.4-7.4
			l-2.9-4.9l2.4-3.4c1.8-2.5,2.2-4.4,1.4-7.1c-0.6-2.5-0.4-4.7,0.8-6.6c1.1-1.6,1.8-3.9,1.8-5c-0.1-1.1,0.8-2.4,1.8-2.9
			c3-1.3,2.1-3.2-3.1-6.3c-5-3-4.9-3.4,1-3.3c1.9,0,3.7-0.6,4.1-1.3c1.3-2.2,2.4-1.8,9.3,3.2c3.6,2.6,7,4.7,7.8,4.7
			c1.5-0.1,4,4.7,9.9,18.4c1.9,4.3,4.5,9.2,6,10.5s4.2,6.1,6.2,10.6c2.1,4.7,3.2,6.2,2.6,3.7c-0.6-2.4-1.2-6.9-1.3-10.1
			c-0.1-4.9-0.8-6.4-5.5-11.1c-2.9-3-4.9-4.3-4.3-3c0.6,1.4,1.4,3.4,1.9,4.3c0.6,1.4,0.5,1.5-0.9,0.6c-0.9-0.7-1.8-3.2-2.2-5.6
			s-2.2-6.4-4.1-9.1s-3.7-5.4-3.7-6.2c-0.1-1.8,1.1-0.4,7.4,8.1c2.9,3.9,7.1,8.1,9.5,9.4c4.8,2.5,6.4,6,4.7,10.6
			c-1.7,3.5,1.4,18,5.3,24.8c1.5,2.6,2.7,5.4,2.7,6.3c0,0.9,3.5,4.8,7.7,8.5c23.9,11.4,27.2,53.1,46.4,63.2c1.3,0.3,3.1,2,4,3.7
			c0.8,1.7,3.1,3.5,4.9,4.2c3.9,1.2,4.5,2.8,0.7,1.9c-1.4-0.4-2.5-0.1-2.5,0.6c0,0.8,0.7,1.4,1.3,1.3c0.6,0,1.2,0.7,1.1,1.5
			c-0.2,1,1,1.3,3.3,1c1.9-0.3,4.4,0.2,5.6,1c1.8,1.3,2,1.3,1.4-0.3c-0.4-1-2-1.9-3.5-2.1c-1.5-0.2-2.8-0.7-2.9-1.4
			c0-0.6,2.3-0.5,5,0.4c3.3,1,7.5,1.1,12.2,0.4c6.7-1,7.3-0.9,11.6,2.8c2.4,2.2,6.4,4.2,8.7,4.5c2.6,0.4,4.9,1.8,5.9,3.5
			c0.8,1.6,2.2,3.4,3,4s1.1,2.2,0.8,3.4s-0.2,1.7,0.3,1.1c0.5-0.5,1.9,0.2,3,1.6c1.8,2.3,2.8,2.4,11.1,1.2l9.1-1.3l1.8,4.9
			c0.9,2.7,1.8,6,1.9,7.3s2.9,4.6,6.2,7.2c9.6,7.5,11.3,9.3,13.4,14.6c2.6,6.6,2.7,6.2-2.3,9.5c-4.1,2.6-6.2,3-25.8,3.8
			C662.2,186.5,661.3,186.4,661.1,184L661.1,184z"/>
		<path id="path11284" inkscape:connector-curvature="0" class="st0" d="M535.9,2.6c-0.5-0.7-0.4-2,0.4-2.8c1-1.1,1.4-0.7,1.5,1.3
			C537.9,4.2,537.3,4.6,535.9,2.6z"/>
		<path id="MX-AGU" inkscape:connector-curvature="0" class="st9" d="M329.6-26.1c-3.9,3.2-9.3,4.9-13.2,7.3
			c-2.6,5.8-13.6,6.5-11.2,14.5c0,2.7,1.4,8.4,4.9,4.4c7.2-6.3,15.2,4.4,22.5,0.3c2.9-3.3,6.8-6.8,10.2-9.1c-3.1-2-6.2-4.8-5.9-8.8
			C335.2-20.8,332.7-24.4,329.6-26.1z"/>
		<g id="g11482" class="st10">
			<path id="path11299" inkscape:connector-curvature="0" class="st0" d="M201.4-55.2c-3.9-0.2-0.4,4.2-2.6,6.2
				c-2.4,3.7-4.4,7.7-1.6,11.9c3.1,4,1.1,9.7-4.2,9.6c-7.4-1.3-4,4.6-2.8,9.4c2.1,4.2,0.8,11.6,6.2,12.5c3.5,1.7,5.1,7.2,1.6,9.6
				c2.5,6.3,12.7,8,10.8,16.2c-1.8,6.3,2.1,13.5-3.3,18.6c-1.5,2.6-7.2,6.6-5.9,8.2c3.2,1,5.8,2.1,7.4-1.9c2.8-4.7,8-5.5,12.3-8
				c6.6-6.7,17.3-2.6,22.8,3.4c0.2-3.2,2.1-6.3,3.8-8.6c-3.6-3.4-6.4-11.5-1.7-14.5c2.7-1,8.3,4.5,9.3-0.2
				c-2.2-3.2-6.7-5.5-5.6-10.4c0.4-4.3,1.5-9.7-3.5-12c-6.7-4.7-3-14.2-2.6-19.8c-6.6,1.9-14-2.9-14.6-9.5c-5.2-1.5-9.9,7-15.4,2.2
				c-4.8-4.2,1.4-8.4,3.2-12c-1.1-4.4-0.7-11.3-7.1-10.8C205.7-55.3,203.6-55.4,201.4-55.2z"/>
			<path id="path11305" inkscape:connector-curvature="0" class="st0" d="M149,2.6c-0.4,1.8,4.1,6.5,2.7,2.5
				C151.5,4.5,149,1.1,149,2.6z"/>
		</g>
		<path id="MX-TAM" inkscape:connector-curvature="0" class="st9" d="M426.3-271.4c-2.5,1.5-8.1,3.6-3.8,5.9
			c5.5,6.3,7.6,15.9,7.3,23.5c6.3-0.6,3.8,7.7,3.8,10.2c5.2-0.8,10,2.8,9,8.3c-0.2,3.9,1.5,9.4,6.4,8.7c5,0.9,1.1,9.8,7,8.3
			c3.7-0.3,5.8,3.8,9.1,1.4c4.6-0.1,12.7-2.3,11.1,4.6c1.1,6.2,0.1,14.1,3.1,19.3c5.7-0.8,7.2,6.6,3,9.6c-6.8,6.2-13.6,14.1-22.5,17
			c-4.7-0.5-5.2,4.8-5.3,8.1c-0.9,6.4-8.6,5.8-11.5,10.5c-1.4,3-9.1,3.9-5.5,7c3.4,5-0.2,11.1,1.3,16.2c4.4,4.6,9.1,12.4,3.4,17.8
			c-3,5.1-9.7,1.6-13.7,3.5c-4.3,4.9-0.9,12.5-3.9,17.5c-2.1,1-6.8,0.5-3.9,3.1c6.2,2.5,11,12.1,4.9,17c0.9,4.5,8.6,2.7,12.2,5
			c3,2,4.4-3.9,8.3-2.1c6.6,0.9,9.9,7.6,12.9,12.5c11.9,2.6,24.4-1.1,36.3-2.3c5.4-4.6,12.1,1.7,16.5,4.9c0.9-4.1-5.7-3.9-4-8.6
			c0.5-4.3,2.2-8.7,4.9-11.3c2.8-13.2-4.5-25.8-3.9-39.1c0.2-6.9-1.9-14.2,0.4-20.8c1.6-0.2,3.5-8.2,0.4-7.1
			c-4.3-4.5-3.5-12.4-4.3-18.3c0.6-3.1,4.6-2.1,2.7-6.1c-0.8-3.5,2.6-5.7,0.6-8.9c0-3.2,0.2-5.5-1.7-7.9c1.9-3-1.2-5.8,0.6-9.2
			c0.9-4.2,6.6-3.1,8.2-1.3c-0.2-3-1.4-7.7,3.4-6.4c3.1,0.7,5.5,5.3,5.9-0.3c1.7-6.1,4.2-14,3.7-19.6c-2.6,1.9-3.8,6.9-8.2,5.2
			c-6.2-1.3-9-9.3-16.1-7.4c-8-0.4-17.4,1.3-23.4-5.4c-5.8-1.9-13-0.9-17.6-6.1c-4.3-3.8-12.8,0-14.7-6.8c-0.3-4.2-4.9-6-6.2-9.3
			c-4.9-1.2-1.9-8.4-5.7-11.5c-3.9-6-2.7-13.6-6.1-19.7C430.1-265,432.4-272,426.3-271.4L426.3-271.4z"/>
		<path id="MX-DUR" inkscape:connector-curvature="0" class="st9" d="M172.2-225.6c-1.5,3.6-7.5,2.7-6.5,7.8
			c3,6.2-3.1,11.1-8.8,11.1c1.9,4.6,0.7,9.6-2.6,13.1c-1,5.8,1.6,14.6-6,16.9c-5.1,2.4-10.8,2.8-16.3,3c-0.6,9-1.2,18.5,2.5,26.8
			c4.4,6.3,11.5,11,14.8,18.3c2.4,2.3,2.1,6.9,4,8.9c5.2-0.1,11.4-4.5,15.8,0.9c9.6,7.4,9.4,20.1,13.1,30.4
			c3.4,3.8,1.5,9.6,5.7,12.7c3,3.8,4.2,10.1,9.8,10c2.4,1.4,2.5,4.6,5.9,3.3c6.7,1.2,17.1,2.3,17.2,11.2c0.7,3.5,1.9,7.4,0.4,10.9
			c5.6-2.8,12.8-0.1,13.8,6.4c0.9,4.8,9.5,3.1,10-0.6c1.7-14.7-2.4-31,4.5-44.5c2.7-2.5,4-6.7,6.8-8.7c0.8-6.5-0.8-16.5,6.5-19.4
			c5.5-4.3,8.9-10.6,13.2-15.6c12.5-3.3,26.2,2.1,39-1.6c-0.5-7.1-2-14.1-5.1-20.4c-2.3,4.1-1.6,13.5-8.1,13c-4.8-4.7-12.5-1-17.3-6
			c-5.9-6.8-13-14.3-14.4-23.5c0.4-2.7,2.6-3.9,0.8-6.5c-0.9-8.1,7.6-14.6,4.2-22.8c-1.9-5.5,2.8-10.3,1.9-15.3
			c-4.7-6.7-10.1-14.5-17.7-17.3c-5.8,0.2-12.9-4-17.4,1.8c-4.7,5.1-7.7,15.7-16.1,14.5c-3.3-2.8-5.4-8.6-11.2-5.4
			c-3.2,2.4-6.6,0.5-9.4-0.7c-1.7,2-4.6,4.4-7.7,2.8c-7.1-1.8-9.9-9.9-17.2-10.7C177.1-221.9,174.1-224.4,172.2-225.6L172.2-225.6z"
			/>
		<path id="MX-NLE" inkscape:connector-curvature="0" class="st9" d="M403-273.2c-4.3,3.6-1,12-6.6,15.1
			c-5.6,2.7-13.1,3.7-15.6,10.4c6.1-5.8,13.5,2.8,13,9.1c0.3,6.5-2.5,14.3-7.7,17.6c-2.7-0.6-5.2-1.9-7.2,1.2
			c-3,4-13.8,8.3-5.7,12.3c4,3.2,6.9,7.9,8.2,12.7c3.2,3.6-1.2,9.8,4.7,12.2c3.6,2.7,7.2,6.1,9.4,9.8c3.8-0.2,4,4.6,7.8,3.8
			c5.1-0.1,10,4.7,6.1,9.3c-5.3,6.4-15.5,0.4-21.6,4.4c-5.1,3.8,2.8,7.2,1.2,11.9c-1.8,7.1-1.8,15.6,5,20.4
			c5.8,6.8-0.6,17.4,6.9,23.6c5.6,8.3,1.9,20.3,4.2,28.7c1.1-2.6,5.2-3.4,7.4-3.4c-0.2-3.7,3.3-7.1,6.9-6.9
			c-0.2-7.2,2.3-17.4,11.3-17.6c2.5,0,11-0.9,6.7-4.9c-4.5-4.6-7.5-10.8-5.2-17.3c2.6-5.5-6.4-6.8-4.4-12.3c1.3-4.8,7.6-2.9,9.8-7
			c2.7-3.4,7.1-5.2,10.4-7.2c1.4-4.1,0.7-9.8,5.6-12.1c4.1-2.4,8.9-2,12.1-5.9c3.2-3,9.2-6.7,10.7-9.7c-6.9-3.1-3.3-13.3-5.1-19.2
			c1.4-6.5-5.3-3.8-8.1-1.6c-4.4,1-5.3-6.5-9.7-3.4c-5.8,1.1-6.6-5.8-7.7-9.5c-5.5-0.4-9.1-4.9-9-10.3c-0.2-3.7-1.8-8-6.4-6.5
			c-5.2-0.5-4.3-7.3-3.9-10.3c-7.1-2.7-0.3-11.4-4-16.3c-1.4-4.5-3.7-8.6-8-10.5c-2.4-1.5-0.2-6.2-1-6.7
			C408.9-267.9,406.6-272.7,403-273.2z M447.4-146.9C447.5-146.7,447.6-146.9,447.4-146.9z"/>
		<path id="MX-COA" inkscape:connector-curvature="0" class="st9" d="M310.9-367.7c-3.4,3.6-8.3,6-9.6,11.1
			c-2.1,9.1-7.1,17-13.7,23.7c-6.9,15.1-16.2,29.2-23.6,43.9c-3.9,5.3-10.3,11.4-6.7,18.5c4.3,14.9,5.5,30.8,11.8,45
			c6.6,6.9,17.2,14.7,13.6,25.8c-0.6,9.9-0.2,20.8-6,29.6c3,2,8.2,8.2,2.4,10.2c-5.2,0.1,2.6,5.8,3,8.4c3,4.2,5.7,10.6,11.9,9.2
			c3.3-0.3,8.1,4.2,8-1.8c1.7-6.1,4.6-13.7,12.4-13.3c11.7-1.1,24,1.8,34.4,7c1.7,3.1,7.2,1.7,7.6,6.3c3.6,1,11.4-3.1,13.6,2.9
			c1.7,4.5,5.8,9.6,10.9,7.4c1.9-2.3-0.9-8.3,1.1-11.5c-8.2-7.5,3.6-24,13-18.2c2.2,0.4-2.9-2.6-4.4-3.5c-3.4-2.2-2.6-7.2-7.2-8.5
			c-10.4-5.6-5.2-20.6-14.7-26.7c-3.7-3.2-9.8-8.9-4.4-13.5c5.5-6.1,12-11.6,19.7-14.3c2.9-2.8,4.6-11,0.5-12.2
			c-4.2,3.1-11.6,1.1-10.4-5.1c0.5-9.3,9.8-14.5,17.8-16.3c3.8-4.3,0.9-13.4,7.8-15.9c3.9-3.2,8.6-0.2,11.5,3.1
			c5.1-3.9,3.7-11.7-1.1-15.2c-4.2-5.4-12.2-8-13.9-15.5c-1.3-6.2-8-10.1-8.3-16.7c-2.9-4.6-4.5-9.5-6.9-14.1
			c-5-5.7-9.1-14.6-17.6-15.2c-3.5-3.1-6.9-6.9-8.1-11.3c-8.7-4.9-19.9-1.2-29.6-2.6C320.7-366.6,315.7-367.4,310.9-367.7z"/>
		<g id="g11492">
			<path id="path11314" inkscape:connector-curvature="0" class="st9" d="M76.5-232.7c-5.3,12.6-18.2,19.7-27.9,28.3
				c2.2,3.2,0.9,11-4.2,7.4c-2.2-5.5-4,1.6-6.8,3.4c-2.4,3.7-2.2-0.7-2.6,3.3c0-0.1,3.2,3.6,1.2,6.2c-1.5,3,5.9,4.7,7.2,7.3
				c2.7,2.4,5.2-3.3,8.1,0.1c3.3,2.2,0.6,6.7-1.8,7.6c1.9,1.8,2.7-3.4,5.3-1.5c3-4.1,7.6-0.5,7.8,3.5c3,2.4,3.4,6.8,7.4,7.6
				c3.1,2,5.1,4.9,8.8,5.5c4.4,4.2,12.7,5.6,13.3,12.8c3.2,3.3,0.3,8.5,0.2,12.3c2,3.7,6.4,0.7,9.2,3.2c5-1.3,13.6,2,10.7,8.3
				c-0.9,2.6-5.7,1.8-1.9,4.4c2.5,3.3,7.2,2.2,9.8,5.3c5.4-0.3,10,6.4,10.2,10.5c7.4,3.4,11.3,12.1,15,19.2
				c3.5,6.7,10.3,11.3,14.6,17.5c6.6-0.6,10.3,7.2,13.8,11.6c1.3,3.1,3.2,6.6,6.7,4.6c5.1,1.1,7.7,7.4,9.6,10.8
				c2.4-0.5-1.3-5.3-0.5-7.7c-0.7-5.7,3.4-10.3,3.5-15.9c1.6-1.7,2-3.8-1.1-3.2c-6.5-2.8-7.8-10.5-12.6-15.1
				c-0.9-7.6-6-13.7-6.8-21.5c0.2-7.1-4.1-14.1-9.9-18c-5.1,2.2-12.4,3.5-15.2-2.7c-4.4-9-10.4-17.2-17.8-24
				c-3.7-8.2-6.7-17.4-4.8-26.8c0.8-6,1.2-13.1-4.5-16.9c-3.2-2.6-4.1-7.4-5.8-10.2c-6.5-0.6-16.3-0.7-17.3-9.2
				c-2.3-9.7-4.3-20.3-8.5-28.5c-3.7,2.5-8.2,1.8-11.8-0.3L76.5-232.7z M34.2-190C34.4-189.7,34.6-190.2,34.2-190z M47.4-173.4
				C48.2-173.9,45.8-173.9,47.4-173.4z"/>
		</g>
		<path id="MX-CHH" inkscape:connector-curvature="0" class="st9" d="M80.1-452.7c-0.4,7.8,0.5,15.6,0.8,23.3
			c-3.8,0.3-9.4-2.4-12.5-0.6c0.4,13.9,4.7,27.7,8.1,41c1,14,2.5,28.9-0.7,42.7c-1.1,2.6-5.1,2.3-3.5,5.9
			c0.9,10.5,2.3,21.2,1.2,31.5c0.9,4.5,5.6,12.8-1.5,14.8c-5,1-10.4,0.3-15.4,0.6c0.2,9.6,6.8,17.6,11.8,25.3
			c5.5,3.3,2,11.6,2.9,16.6c-1.8,6.4,5.1,10.4,9.9,13c5.1,1.1,13.9-4.6,14.4,3.2c4.1,10.3,5.8,21.4,9,31.8c6.2,1.8,17.1,0,17.5,9.1
			c2.5,4.8,7.9,8.5,9.9,13.2c5.2,0.8,12.5,1.7,15.6-3.6c-0.2-5.6-0.5-12,3.8-16.3c-0.7-4-3.7-11.1,2.8-12.1c2.4-0.6,7.2,0,5.3-3.8
			c-0.5-5.4,2.7-11.4,7.7-13.2c2-6.3,9.4-2.5,12.1,1.2c4.9,3.4,11.4,3.9,14.8,9.3c1.8,2.8,5.7,4.4,7.7,0.9c3-2.8,7.1-0.6,9.4,1.2
			c5.8-3.3,14.4-1.9,17.2,4.1c5.6-7.1,10.6-19.1,21.7-17.2c2.8-0.5,8.5,2.4,9.5,0.4c-2.6-16.2-9-32.3-9.4-48.8
			c8.4-15.4,18.7-30.1,26.2-46c-6.2-1.2-10.1-6.7-16.2-7.6c-3.3-2-5.5-5.2-9.7-5.5c-6-1.5-8.7-7-12.8-10.6
			c-5.9-4.3-13.7-7.9-14.6-15.9c-3.9-7-2.1-15.8-7.5-22.2c-3-9.5-10.3-17.8-19.9-20.4c-7.1-7.9-15.1-15.2-22.6-22.7
			c-8.6-4.1-13.7-13.5-18.4-21.8C129.6-451.7,104.5-452.9,80.1-452.7z"/>
		<g id="g11546">
			<path id="path11320" inkscape:connector-curvature="0" class="st9" d="M-148.5-290.6c1.7,3.5-2.9,5.1-3.8,7.8
				c-3.8,2.1-9.7-0.2-10.9-4.5c-7.3,6.6-17.4,0.2-24.8-0.7c2.6,3.8,8.2,3.9,9.1,9.2c2.5,3.7,9,2.5,10.3,7.6c1.7,4,0.7,11.3,5.8,12.7
				c7.2-3,9.7,6.7,14.9,8.6c6.7,0.2,8.5,8.1,13.9,10.7c1.7,3.3,0.4-3.8,2.8-4.3c2.8-2.4,6.7,0.3,6.6,3.5c4.6,2.9,3.6-4.9,6.3-6.9
				c2.8-4.7,8.5,0.6,6.5,4.8c-1.8,2.9,3.6,4.1,0.7,7.3c-2.3,2.9,3.5,6.6,2.5,10.2c1.1,4.8,10.3,1.4,9.7,7.8c0.9,2,5.2,4.2,7.8,5.7
				c4.8-2,7.8,3.2,9.1,7c4.8,1.9,5.4,8.2,6.6,12.7c2.7-2,3.8,9.3,3.7,13.4c-0.7,3-0.3,5.1,0,8c-3.6,3.6-2.3,10.4-4.7,15.2
				c-2,2.9,3.2,5,0.3,8.2c-2.6,2,1.7,4.5,3.4,2.1c3.9,0.3,2.6,6.2,5.6,8.6c0.9,2.9,1.5,4.1,4.6,3.3c5.3,0.1,4.3,7,8.7,8.8
				c2.9,2.9,9.5,7.1,10.1,8.6c6.8,3.5,13.8,11.1,19.4,17.3c3.3,6.7,10.4,9.1,16,13.3c8,7.6,9.5,19.1,13.2,28.7c1.8,3.6,5,4.2,7.9,1
				c4.9-3.3,12.1-3.8,13.8-10.6c2.6-6.1,0-13.1-6.1-15.4c-5.2-4.8-5.6-12.8-7.1-19.3c-6.7,1-7.3-7.2-12.2-10
				c-1.7-1.6-5.8-6.3-4.3-1.3c3.1,5.6-4.6,9.9-8.5,5.6c-1.2-3.4-6.7-2.6-8.3-6.6c-3.9-7-6.1-16.2-4.1-24.2c2.8-5-3.7-10.2-5.5-14.4
				c-4-5.9-4.4-13.6-6.2-20c-6.1-4.8-9.8-12.7-12.2-20.1c-0.2-4.2,2.7-8.5-0.5-12.2c-2.3-5-1.6-11.3-3.3-15.9
				c-4.6-3.1-4.6-10.1-9.1-13.6c-2.3-2.9,0.1,3.9,1.3,5c5,3,1.4,12-4.1,8.5c-5.8-4-4.9-12.2-6.9-18.1c-3.7-2.7,1.5-9-4.1-9.9
				c-8.6-3.9-6.3-15.2-12.9-21.2c-5.2-4.3-10.5-9.2-13.2-15.8c-0.7-3.9-3.5-4.4-7.2-4.1C-121.1-289.5-135.3-290.2-148.5-290.6z
				 M-92.5-212C-92.6-212-92.5-211.9-92.5-212z"/>
		</g>
		<g id="g11525">
			<path id="path11349" inkscape:connector-curvature="0" class="st0" d="M-248.7-509.9c-5.6-0.6,1,5.3,1.4,7.8
				c3,6.2,3.5,13.5,8.8,18.5c2.1,1.7,5.8,3.5,4.8,7.4c0.6,3.8-5.4,2.7-3.4,6.3c-0.1,6.1,6.3,9.3,8.2,14.8c3.5,4.6,2.4,11.6,4.6,16.3
				c5.5,5.8,5.8,14.6,6.4,22.1c4.6-1.2,3.9,4.4,5.9,6.6c5.3,4.9,1.8,13.4,2.4,19c5.5,3.2,1.2,11.9,8.1,14.3
				c6.6,4.6,11.5,11.9,19.5,14c8.4,5.3,12.4,15,18.1,22.3c7.3,4.1,8.6,13.9,15.7,18.6c4.1,4,1.1,10.9,0.4,14.8
				c6.1,1.7-3.7,10.7,3,10c14.6,0.8,30.2,2.4,44.5,1.8c0.6-5.9-3.7-10.1-4.5-15.8c-5.6-0.9-11.5-4.6-11.2-11.2
				c0.6-3.3-0.7-4.4-3.5-4.8c-2.5-0.9-1.5-6.3-3.7-2.9c-5.4,1.2-8.3-8.2-4.9-11.6c-1.5-4.6-0.8-10.1-5.8-12.4
				c-6.9-6.1-12.5-13.8-19-20.1c-4.3,0.1-7.2-3.8-6.6-7.7c-2.9-2.3-3-5.9-6.1-7.7c-3.6-13.3-0.5-28-3.1-41.3
				c-5.4-4.3-3.2-12.9-3.5-19c0-5.6,2.4-10.8,4-15.7c-1-5-10.5-7.8-7.1-13.1c2.4-0.8,4.7,0.1,4.3-3.4c1.7-6.1-5.7-11.8-1-17.2
				c1.9-3.4,6.9-7.2,7.3-9.8C-193-510.3-220.8-510.8-248.7-509.9L-248.7-509.9z"/>
			<path id="path11351" inkscape:connector-curvature="0" class="st0" d="M-195.5-305.2c-0.9,1.8-4.8,3.7-0.8,3.6
				C-196-302.8-195.4-304.5-195.5-305.2z"/>
			<path id="path11353" inkscape:connector-curvature="0" class="st0" d="M-292.6-329.9C-290.1-325.1-292.6-331.9-292.6-329.9z"/>
			<path id="path11355" inkscape:connector-curvature="0" class="st0" d="M-124.2-361.6c-0.1,7.4,7.6,14.5,11.6,17.2
				c0.3-3.6,0.1-5.6-3.9-5.1c-5.4-1.8-1.5-9.1-6.7-11.5C-123.3-361-124.3-362.3-124.2-361.6z"/>
		</g>
		<g id="g11507">
			<path id="path11360" inkscape:connector-curvature="0" class="st0" d="M-78.8-343.7c-5.5,1.9-2.1,9.2-6,12.7
				c-1.7,2.1,4.3,3.2,6,3.8C-76.2-331.6-74.7-340.1-78.8-343.7z"/>
			<path id="path11362" inkscape:connector-curvature="0" class="st0" d="M-165.2-497.7c-3.7,3.7,2,8.5,0.5,13
				c1.1,3.5-3.5,8.3,1.4,10c3.3,3.1,5.2,9.1,10.5,9.2c4.5-2,5.3,4.6,9.5,5c3.4,1.1,2.7,5.4,3.7,7.3c5.1,1.1,10.7,2.8,16,2.2
				c-5.8-12,2.2-3.9,7.3,0.9c3.7,2.2,4.7,8,1.1,10.2c4.6,5.6,2.1,14,7.7,19.2c4.5,5.5,6,12.8,9.4,18.6c8.1,2.8,4.9,14.1,6.5,20.5
				c-0.8,7.5,7.8,10.7,10.1,17.1c2.3,3.1,0.7,8.5,2.7,10.9c8.1,2.1,8.1,12.5,10,19c2.6,3.9,6.2,6.3,10.5,6.7
				c3.4,1.6,1.3,5.8-0.6,6.6c3.2,3,4.6,7.6,7.3,10.8c5.7,1.7,11.2,5.3,11.9,11.7c0.9,3.5,1.2,6.9,5.1,4.6c3.5-0.4,3.1,5.6,5,6.1
				c-1.5-5.4,7.4-7.3,7.2-1.2c-0.4,4.3,3.9,0.3,6.1,3.1c4.4,1.8,5.9,6.4,4.5,10.7c1,2.7-1.5,4.9-1.7,7.1c5,4.2,2.1,14.4,9.8,16.1
				c5.7,3.9,12.5,1,18,5.1c4.7,2,0,6.7,2.8,9.5c1.8,2.3,2.4,7.6,5.5,8c-0.2-4.6,4.3-2.1,6.8-4c4.2,0.8,8.9,7.2,5.3,10.3
				c3.4,1.2,7.2,3.6,6.2,7.7c2.6-3.1,6.9,0.2,6.8,3.3c8.7-6.5,19.9-13.3,22.8-24.4c-1.4-2.6-4.9-4.6-5.2-8.2
				c-2.5-5.8,1.9-12.3-2-17.8c-4.8-10.5-15.1-20.6-13.6-33.2c3.3-7,13.4-3.6,19.2-4.9c-1.1-15.3-2.3-30.8-2.6-46.1
				c0.6-3.5,5.6-1.7,4.4-6.1c0.5-15.8,1.9-32.1-3.8-47c-2.4-9.5-3.4-19.6-6.5-28.7c1.6-4.3-6.3-1.1-8.4-2.4
				c-24.3-1.6-48.9-1.1-73.1-3.3c-28.7-10.4-55.8-25.5-83.6-37.8c-19.5-9.2-39.1-18.2-58.7-27.1l-0.8,0.9L-165.2-497.7z"/>
			<path id="path11364" inkscape:connector-curvature="0" class="st0" d="M-159.7-459c-0.3,2,3.9,3.7,1.5,1.3
				C-158.4-457.6-159.9-459.7-159.7-459z"/>
		</g>
	</g>
	<circle id="DC2" class="st11" cx="1391.2" cy="826.3" r="6.3"/>
</g>
<g id="mexico">
	<path class="st12" d="M373.4,1025.6c2.4-1.3,4.9,0.6,9.5,1.7c5.3,1.3,7.5,0,8.5,1.6c1.2,2.1-2.3,5.1-0.9,7.5c0.8,1.3,2.3,1.2,4.7,2
		c3.7,1.2,5.5,3.1,8.3,5.3c1.5,1.2,0.4,0.2,18.5,12c16.8,10.9,25.1,16.3,35.8,23.5c16.6,11.2,17.4,12.2,20.3,12.9
		c2.2,0.6,7.8,1.6,9.5,5.4c0.4,0.9,0.8,2.4,1.9,2.7c1.6,0.5,3.2-1.9,3.8-1.5c0.6,0.5-0.2,4.2-3.1,6.3c-2,1.5-4.4-0.2-5.8,1.4
		c-0.7,0.7-1.2,2.1-1.3,2.4c-0.5,1.2-0.3,1.7-0.9,2.4c-0.6,0.8-1.1,0.6-1.7,1.4c-0.4,0.6-0.6,1.2-0.7,1.9c-0.3,1-0.1,1.1-0.3,1.5
		c-0.4,0.6-1.1,0.7-2.6,1c-1.7,0.4-2.6,0.6-3.2,1c-1.2,0.8-0.9,1.4-2.4,3c-1.3,1.3-1.9,1.2-2.7,2.3c-0.6,0.7-1.3,1.7-1.2,2.8
		c0.1,0.8,0.5,1.3,0.2,1.6c-0.3,0.3-1-0.3-2.1-0.3c-1.4,0-2.1,1-2.5,0.7s0.2-1.3,0.6-3c0.3-1.5,0.6-3.3-0.3-4.5
		c-0.9-1.1-2.6-1-2.9-1c-0.5,0-0.7,0.2-3.1,1.2c-1.3,0.6-2,0.9-2.2,0.9c-1.7,0.3-3.3-0.4-4.1-0.8c-1.1-0.5-2.7-1.4-3.9-2.7
		c-0.2-0.2-0.5-0.5-0.9-0.6c-0.5-0.1-1,0.3-1.8,0.8s-0.8,0.7-1,0.7c-0.7,0-0.8-1.3-2.1-2.2c-0.4-0.3-0.4-0.2-2.5-0.7
		c-2.1-0.6-2.3-0.8-2.5-0.9c-1.1-1-1-3.1-0.4-3.4c0.4-0.2,0.7,0.5,1.5,0.6c1.1,0.1,2.3-1,2.7-2.2c0.4-1.1-0.2-1.7-0.7-3.9
		c-0.7-2.6-0.2-2.6-0.8-4.6c-0.6-2-1.2-4.1-3-5.3c-1.2-0.8-2.4-0.9-5-1c-2.2-0.1-3.3-0.2-4.6,0.5c-1,0.6-1.4,1.3-2.2,1.2
		c-0.8-0.1-1.3-1-1.6-1.8c-0.7-1.3-0.7-2.5-0.9-4.6c-0.1-1.3-0.1-1.9,0-2.4c0.3-1.7,1.1-1.9,1.2-3.4c0.1-1.1-0.3-1.4,0.1-2.2
		c0.3-0.8,0.8-0.8,0.9-1.4c0.2-1-0.9-1.6-0.6-2.2c0.2-0.4,1-0.2,1.5-0.7c0.6-0.6,0.5-1.6,0.4-2.2c-0.4-2.9-3-4.8-3.2-5
		c-1.3-1-1.5-0.5-5.1-2.1c-3.8-1.6-4.4-2.5-4.5-3.1s0.4-0.8,0.7-1.7c0.5-1.7-0.4-3.3-0.9-4.3c-1.4-2.6-4.6-5.4-6.7-4.7
		c-0.6,0.2-0.8,0.6-2.5,1.4c-1,0.5-1.4,0.7-2,0.7c-1.5,0.1-2.7-0.8-3.2-1.2c-0.9-0.7-1.1-1.2-2.1-2.7c-1.6-2.3-1.9-1.9-3.2-3.7
		c-1.7-2.4-1.5-3.5-2.8-4c-1-0.4-1.6,0.1-2.4-0.6c-0.6-0.5-0.4-1-1.2-2c-0.5-0.6-1-1.3-1.7-1.3c-1,0-1.7,1.2-1.8,1.5
		c-0.8,1.3-0.4,2.5-0.9,2.7s-0.9-0.8-2.3-1.7c-0.4-0.3-2.1-1.3-3.6-0.8c-0.9,0.3-1.5,1.2-1.6,1.2c0,0,1.5-1.1,1.4-2.2
		c-0.1-0.6-0.5-0.7-0.6-1.3c-0.1-0.9,0.6-1.2,0.8-2c0.3-1.4-1.6-2.1-2.1-4.2c-0.4-1.8,0.8-2,0.5-3.9c-0.3-2.2-2-3.1-1.6-4.4
		C372.4,1026.2,373,1025.8,373.4,1025.6z"/>
	<path class="st12" d="M510.3,1102.5c-0.1,0.2,0.7,0.5,1,1.3c0.2,0.6,0.1,1.3-0.1,1.9c-0.2,0.9-0.5,0.9-0.6,1.6
		c-0.1,0.8,0.1,1.6,0.2,1.8c0.2,0.4,0.3,0.4,0.6,1.2c0.2,0.4,0.4,0.7,0.5,1.2s0.3,1,0.2,1.7c-0.1,0.7-0.5,0.9-0.3,1.2
		c0.2,0.4,0.8,0.1,1.6,0.6c0.3,0.2,0.7,0.4,0.9,1c0.1,0.4-0.1,0.6,0,1.2c0.1,0.3,0.1,0.7,0.4,0.9c0.3,0.2,0.7,0,1-0.2
		c0.1-0.1,0.3-0.3,0.4-1c0.1-0.6,0-0.8-0.1-1.8c-0.1-1.2-0.1-1.4,0.1-1.6c0.3-0.3,0.6-0.2,1-0.5c0.5-0.4,0.7-1,0.9-1.8
		c0.3-1.2,0-1.3,0.3-2.1c0.3-0.7,0.8-1.2,1.2-1.6s0.8-0.8,1.5-1c0.4-0.2,1-0.1,2.1-0.1c1.3,0.1,2,0.1,2.7,0.3
		c0.8,0.3,0.9,0.5,1.5,0.6c0.8,0.1,1.5-0.1,2-0.2c0.6-0.2,2-0.7,1.9-1c-0.1-0.4-1.8,0-4.3-0.3c-3-0.3-3-1-6.7-1.6
		c-2.4-0.4-2.5-0.1-4.5-0.6c-1.2-0.3-2.4-0.5-3.6-0.8C511.3,1102.6,510.3,1102.3,510.3,1102.5z"/>
</g>
<g id="upper_x5F_basin">
	<g id="vdWodR_00000138548640670627406870000010349603524671720096_" class="st13">
		<path class="st14" d="M494.4,867c0.5-1.4,1.5-3.2,3-3.5c1.9-0.4,3.3,1.9,4.5,1.3c1.8-0.8-0.1-6.9,1.8-7.8c1.1-0.5,2.2,1.1,3.6,0.5
			c1.1-0.5,1.6-1.9,1.5-3c-0.1-2.1-4.1-2.5-4-3.6c0.1-0.8,1.7-0.7,2.3-2c0.6-1.3-0.6-2.2-0.7-4c-0.1-2,1.5-2.5,5-7.1
			c2.6-3.5,2.7-4.5,4.4-5.3s2.7-0.4,3.8-1.5s0.9-2.4,1.1-4.5c0.5-3.7,1.5-3.2,3.4-9.9c0.9-3.1,0.9-3.9,1.9-5.3
			c1.6-2.2,2.8-1.8,3.8-3.4c2.2-3.5-1.5-8.4,0.4-9.9c1-0.7,2.1,0.5,4.2-0.4c0.1,0,2.4-1,3-3c0.6-2.1-1.2-3.2-1.9-6.4
			c-0.1-0.7-0.9-4.7,1.1-7.6c2.1-3,4.9-1.4,7.6-4.5c2.2-2.6,1.4-5.1,3.8-6.4c1.8-1,2.7,0.1,4.2-0.8c3.6-2,2.7-10.8,2.3-14.4
			c-0.3-2.6-0.7-4.3-1.1-9.1c-0.4-4.7-0.3-6.4,0.8-7.2c1.2-0.9,2.7,1.1,4.9,0.4c2-0.6,3.8-3.2,3.4-5.1c-0.5-2.3-3.9-2.4-4.2-4.9
			c-0.1-0.8,0.3-0.8,0.9-3c0.7-2.6,0.3-3.3,1-6.1c0.5-2,0.8-3.1,1.7-3.5c1.2-0.4,2.2,0.8,2.8,0.3c0.9-0.7-1.5-4-0.2-5.8
			c0.6-0.8,1.2-0.4,2.1-1.2c1.3-1.3,0.7-3,1.2-6.6c0.4-2.5,0.6-3.8,1.6-5.1c1.3-1.7,3.3-2.3,5.4-3c2.9-0.9,3.8-0.5,4.9-1.6
			c1-1,1.7-2.8,1.4-4.4c-0.3-1.4-1.3-1.9-1-2.6c0.3-0.9,1.8-0.4,3.5-1.6c1.4-1,1.3-1.9,2.1-1.9c1.2-0.1,1.3,2.4,3.5,3.5
			c1.9,0.9,3.4-0.1,4,0.9c0.6,0.8-0.6,1.8-0.7,4c0,1.2,0.4,2.3,1.2,4.4c0.4,1,1.1,2.5,2.4,4.7c1.4,2.2,1.9,2.6,3,4.2
			c2.1,3.1,4.3,6.4,3.5,9.3c-0.8,2.8-4,3-3.8,4.7c0.2,2.4,6.5,2.6,7.2,5.9c0.3,1.5-0.8,2.5-0.2,3.1c0.9,1,3.2-1,5.9-0.3
			c2.6,0.6,2.9,2.8,4.9,3.8c4,2.1,9.3-5,11.4-3.5c0.7,0.6,0.2,1.5,1,2.6c1.3,1.7,3.4,0.4,6.6,1.6c3.5,1.2,4.4,3.8,6.6,3.3
			c1.3-0.3,2.2-1.4,2.6-1c0.6,0.4-0.8,2.3,0,3.3c0.6,0.8,1.8,0.2,2.3,0.9c0.6,0.8-0.5,2.2-1.2,4c-1.3,3.1-0.3,5.4-1,5.6
			c-0.9,0.3-1.8-2.9-3.5-2.8c-1.3,0-2.5,1.8-2.8,3.3c-0.4,1.7,0.4,2.3-0.2,3.5c-0.7,1.3-1.9,1.1-2.3,2.3c-0.3,1,0.6,1.4,1,3.1
			c0.7,2.6-0.7,3.7,0.2,5.2s2.3,0.8,3.3,2.3c1.1,1.7-0.4,3.2,0.7,5.2c0.8,1.4,1.6,1,2.8,2.4c1.7,2.2,0.4,3.8,1.7,6.6
			c1.4,2.9,3.4,2.3,4.2,4.7c0.7,2.2-0.8,3.2-1.6,7.3c-0.5,2.7-1.2,6.6,0.7,8.9c0.7,0.8,3.5,1.4,9.3,2.4c3.5,0.7,4.6,0.8,5.9,0.2
			c2.2-1,2.6-3.2,3.7-3c0.7,0.2,0.8,1.3,2.1,5.1c0.9,2.6,1,2.4,1.2,3.3c0.4,1.7,0.1,2.9-0.7,6.6c-1.4,6.6-1.6,7.2-2.4,7.7
			c-1.8,1-3.6-0.7-4.9,0.5c-0.9,0.9-1,2.6-0.5,3.8c0.6,1.6,2,1.6,2.3,2.6c0.6,2.2-3.5,6.8-8,7c-3.6,0.1-4.8-2.6-7.3-1.7
			c-1.5,0.5-1.4,1.6-4.5,6.1c-2.6,3.7-3.6,4.3-3.3,5.4c0.6,2.5,5.7,2.6,5.8,4.5c0,1-1.2,1.1-2.1,2.6c-1.4,2.3-0.6,5.4,0.2,8
			c1,3.8,2.5,5.5,1.6,7c-0.1,0.2-0.6,0.7-1.6,1.7c-1.4,1.4-1.6,1.5-1.7,1.6c-1.3,0.3-2.1-1.5-3.3-1.2c-1.1,0.2-1.2,1.7-2.6,3.7
			c-1.1,1.5-1.8,2.4-3,2.8c-1.5,0.5-2.5-0.3-3.1,0.3c-0.6,0.7,0.1,1.7-0.5,2.6c-0.2,0.2-0.7,0.8-2.8,0.9c-2.4,0.1-3.1-0.7-4.9-0.9
			c-3-0.3-3.3,1.6-7.9,2.1c-2.7,0.3-3.8-0.2-4.5,0.7c-1,1.2-0.2,3.6,0.3,4.7c0.4,0.7,0.7,1.4,1.4,1.6c1.3,0.3,2.3-1.6,3.3-1.2
			c0.9,0.3,0.4,2.1,1.6,2.8c1,0.5,1.8-0.4,2.8,0.2c0.9,0.5,0.4,1.5,1.2,2.3c1.2,1.1,3.3-0.3,4.5,0.7c0.8,0.7-0.1,1.7,0.7,2.8
			c0.6,0.8,1.3,0.5,2.8,1.6c0.9,0.6,1.4,1,1.6,1.6c0.4,1.4-1.2,2.2-1.2,4c0,1.6,1.5,1.8,1.9,3.5c0.8,2.9-2.5,6.2-3.8,7.5
			c-2.5,2.5-3.4,2.1-5.9,4.9c-0.9,1-2,2.2-2.8,4.2c-0.9,2.1,0.1,3.5-1,5.6c-0.5,0.8-0.9,1.1-1,1.9c-0.2,1.2,0.4,1.7,0.7,3.3
			c0.1,0.3,0.7,3.6-0.9,4.9c-0.7,0.6-1.2,0.2-2.4,0.9c-1.5,0.8-1.4,1.7-2.4,2.3c-2,1.1-3.9-1.1-5.8,0c-1,0.6-0.9,1.6-1.7,3
			c-0.1,0.3-2.3,3.4-5.9,4.2c-2,0.5-2.7-0.2-4,0.7c-0.6,0.4-1.1,1.1-2.3,2.4c-1.4,1.7-1.4,2-2.1,2.4c-1.3,0.9-2.7,0.9-3.1,0.9
			c-0.3,0-3.1-0.1-3.7-1.6c-0.4-0.9,0.4-1.5,0-2.1c-0.5-0.9-2.2-0.1-4.4-0.5c-3-0.5-3.1-2.4-5.2-2.4c-2.5-0.1-3.2,2.4-5.2,2.1
			c-2.5-0.4-3.7-4.2-3.8-4.5c-0.3-0.8-1-3.1,0.2-4.9c1.2-1.9,3.5-1.6,3.7-3c0.1-0.9-0.7-1.9-1.6-2.1c-1.1-0.2-1.6,1.1-2.8,1
			s-1.4-1.4-2.4-1.6c-1.3-0.2-1.8,2-3.7,2.8c-1.6,0.7-2.4-1-4.2-0.3c-1.1,0.4-1,1-2.5,1.8c-1.1,0.5-1.5,0.3-3.3,0.7
			c-2.9,0.6-3.1,1.4-4.2,1.1c-1.6-0.3-3-2-3.2-3.7c-0.2-1.8,1.2-2.3,0.8-4c-0.2-1.2-1-1.4-1.3-2.9c-0.1-0.5-0.4-1.4-0.1-2.5
			c0.4-1.6,1.7-1.8,3.1-3.6c0.7-0.9,2.2-2.7,1.9-4.5c-0.3-2-2.6-3.3-4.4-4.3c-2.3-1.3-3.2-1-3.9-2.2c-1-1.7,0.5-3-0.5-4.6
			c-1-1.7-3.9-2.3-5.4-1.3c-1,0.6-1.1,1.9-1.3,1.9c-0.4-0.1,0.9-3.6-0.7-6.3c-0.2-0.4-1-1.6-2-1.6c-0.9,0-1.1,1-2.9,2.7
			c-0.7,0.7-1.8,1.7-3.5,2.3c-1,0.4-1.3,0.2-2.5,0.5c-2.5,0.6-2.7,1.9-4,1.7c-1.2-0.1-1.2-1.2-3-1.6c-1.1-0.3-1.3,0-2.6-0.3
			c-0.7-0.2-1.7-0.5-2.4-1.3c-0.9-1.3-0.3-2.7-0.8-3c-0.8-0.3-2.1,2.6-3.2,2.4c-1-0.3-1.2-3.4-0.8-5.9c0.4-2.3,2.1-3.3,1.5-4.2
			c-0.4-0.7-1.6-0.7-2.3-0.6c-0.9,0.2-1.4,0.7-2.3,1.5c-1.1,1.1-1.1,1.5-1.6,1.6c-0.8,0.2-1.3-0.5-2.8-1.3c-1.7-1-2-0.6-2.7-1.2
			c-1.5-1.4-1.3-4-1.2-4.2c0.3-2.6,2.1-3.1,1.7-4.6c-0.4-1.6-2.5-1.5-3-3.3c-0.2-0.9,0.3-1.1,0.5-2.9c0.3-2.1-0.3-2.6-0.2-4.7
			c0.1-2.2,0.8-3.9,1-4.4C491.6,869.4,493.2,867.8,494.4,867z"/>
	</g>
</g>
<g id="lower_x5F_basin">
	<path class="st15" d="M491.4,872.9c-0.5-0.7-2.2-0.2-2.4-0.8c-0.2-0.5,1.1-1.1,1-2c-0.1-0.5-0.6-1-1.1-1c-0.6,0-0.7,0.7-1.3,0.8
		c-0.9,0.1-1.3-1.4-2.2-1.4c-0.9,0-1,1.7-2.3,2.1c-0.8,0.2-1.9-0.1-2.2-0.8c-0.2-0.5,0.3-0.7,0.2-1.4c-0.1-1.1-1.4-1.2-2.1-2.7
		c-0.5-1.2-0.3-2.1-0.8-2.3c-0.5-0.1-0.8,0.7-1.4,0.5c-0.5-0.1-0.6-0.9-1-1c-0.5-0.1-0.6,1.1-1.4,1.4c-1.3,0.5-2.5-1.9-4.6-1.6
		c-0.9,0.1-1.3,0.7-1.8,0.4c-0.8-0.4-0.5-2-1-2.1c-0.4-0.1-0.6,0.9-1.6,1.8c-1.3,1.2-2.8,1.4-3.2,1.4c-0.6,0.1-2,0.2-2.6-0.5
		c-0.5-0.6-0.1-1.2-0.5-1.5c-0.6-0.5-1.5,0.6-2.6,0.2c-0.9-0.3-0.8-1.3-1.6-1.4c-0.9-0.2-1.3,1-2.2,0.9c-1-0.1-1.8-1.4-2.1-2.5
		c-0.2-1,0.1-1.4-0.3-2.1c-0.4-0.6-0.9-0.5-1.2-1.1c-0.4-0.8,0.5-1.6,0.1-2.1s-1.2,0.1-2.2-0.4c-0.7-0.4-1.3-1.4-1.2-2.2
		c0.2-1,1.5-0.9,2.5-2.3c0.9-1.3,0.3-2.1,1.3-2.9c0.9-0.9,1.9-0.5,2.3-1.3c0.3-0.6-0.2-0.9-0.1-2.2c0.1-1,0.5-1.2,0.9-2.6
		c0.2-0.7,0.2-1.3,0.3-2.5c0.1-1.3,0.2-2.3-0.1-3.5c-0.2-0.9-0.3-1.5-0.9-1.8c-0.7-0.4-1.3,0.1-1.8-0.3c-0.7-0.5,0-1.7-0.8-2.6
		c-0.3-0.4-0.9-0.7-1.3-0.5s-0.2,0.8-0.5,2c-0.2,0.6-0.5,1.8-1.1,1.8c-0.6,0.1-0.7-1.1-1.8-1.5c-0.5-0.2-0.7,0-1.5-0.1
		c-1.9-0.2-2.3-1.2-3.2-0.9c-0.8,0.3-1.2,1.6-1.2,2.4c0,0.6,0.2,0.7,0.2,1.5s-0.2,1-0.2,1.7s0.1,0.9,0.2,1.7c0.1,1.1,0,1.9-0.2,3
		c-0.2,1.2-0.4,1.2-0.5,2.5c-0.1,0.8-0.1,0.7-0.2,2.2c0,0-0.1,1-0.4,2.7c-0.2,1.1-0.3,1.4-0.5,1.5c-0.6,0.3-1.1-0.4-1.8-0.2
		c-0.8,0.2-0.6,1.2-1.7,2.7c-0.8,1.1-1.2,1-1.6,1.8c-0.2,0.5-0.3,1.1-0.3,2.4c-0.1,1.8,0.1,1.8-0.1,2.3c-0.4,0.9-0.9,0.7-2.1,2.2
		c-0.2,0.3-0.6,0.8-1.1,1.5c-0.6,0.9-0.6,1-0.8,1.1c-0.9,0.6-3-0.2-3.7-1.6c-0.5-0.9,0-1.4,0-3.8c0-2.1-0.3-2-0.2-3.3
		c0.1-1.7,0.9-3.1,2.5-5.6c1.6-2.6,1.8-2.2,2.3-3.4c0.7-2,0.3-2.9,1.3-4.8c0.6-1.1,0.9-1,1.4-2.1c0.5-1,0.3-1.4,0.7-3.8
		c0.3-2.3,0.5-3.5,1.2-4.4c0.4-0.5,0.7-0.7,0.8-1.2c0.1-1.1-1.3-1.4-1.3-2.6c0-0.8,0.7-0.9,1.1-2.3c0.3-1.2-0.1-1.5,0.2-2.4
		c0.5-1.5,1.9-1.3,2.2-2.4c0.4-1.4-1.5-2.2-1.2-3.8c0.2-0.8,0.7-0.8,1.5-2c1.1-1.5,0.5-2.2,1.4-4.2s1.7-1.9,2.1-3.6
		c0.3-1.1,0-1.2,0-3.4c0-3,0.6-3.2,0.3-4.8c-0.3-2.3-1.8-4.4-2.6-4.2c-0.6,0.1-0.3,1.2-1.5,2.4c-0.9,0.9-1.4,0.6-2.7,1.7
		c-0.3,0.3-0.6,0.6-1.3,1.2c-0.7,0.6-1,0.9-1.3,0.9c-1,0-1.5-2-2.2-1.8c-0.3,0.1-0.3,0.5-1.1,2.1c-0.4,0.9-0.5,0.9-0.8,1.5
		c-0.5,1.2-0.8,2-0.5,2.5c0.3,0.6,1.1,0.3,1.7,0.9c0.7,0.7,0.2,1.8-0.1,5.2c-0.3,2.5-0.1,2.6-0.4,3.3c-0.9,1.6-2.2,1.3-3,2.9
		c-0.8,1.6,0.1,2.7-0.8,3.6c-1,1-2.5,0.1-3.4,1.2c-0.5,0.6-0.6,1.5-0.3,2.2c0.3,0.7,1,0.7,1.8,1.3c0.2,0.2,0.8,0.6,2,3
		c1.2,2.6,0.9,2.7,1.8,4.4c1,1.9,1.6,2.1,1.5,3c-0.1,0.6-0.6,1.3-1.7,2.7c-0.9,1.1-1.3,1.6-2.1,2.3c-1.6,1.4-2.3,1.2-2.8,2.2
		c-0.6,1.1-0.1,1.9-0.9,2.6c-0.6,0.6-1.2,0.2-2.2,0.7c-1.6,0.7-2.2,2.6-2.9,4.9c-0.6,1.9-0.4,2.6-0.1,2.9c0.3,0.5,0.7,0.4,1,0.9
		c0.5,0.9-0.5,1.8-0.3,3.5c0.1,0.7,0.2,0.5,0.4,1.6c0.4,2.1-0.1,2.6,0.3,3.5c0.7,1.4,2.4,1.1,2.6,2.2c0.1,0.7-0.6,1-0.8,2.5
		c-0.1,0.6,0,0.9,0,1.2c0.2,2.1-0.7,4.7-1.2,6c-1,2.7-1.5,4.4-2.5,4.5c-0.9,0.1-1.1-1.5-2.9-2.2c-1.2-0.4-1.7,0-2.9-0.5
		c-1.2-0.6-1.4-1.3-2.1-1.2s-0.8,1.1-1.6,2.4c-0.9,1.4-1.6,1.4-2.8,2.6c-0.9,0.9-1.5,2.2-2.7,4.8c-2,4.2-1.7,5-1.5,5.3
		c0.1,0.3,0.8,0.9,2.1,2.2c0.9,0.9,1.1,1,1.3,1.4c0.5,0.9,0.3,1.7,0.1,3.2c0,0.4-0.3,3.2,0.4,6c0.5,2,1.1,2.2,1.3,2.2
		c0.5,0,0.8-0.6,1.3-0.5s0.3,1.1,1,1.5c0.8,0.5,1.8-0.6,2.7-0.1c0.8,0.5,0.5,1.8,1.2,2c0.6,0.2,1.6-0.8,2.1-1.7
		c0.7-1.3,0.5-2.6,0.9-2.6c0.3,0,0.4,1,1.1,1.2c0.8,0.2,1.3-0.9,2.5-0.9c0.8,0,1.4,0.6,1.6,0.7c0.7,0.6,0.8,1.4,0.9,2
		c0.1,0.4,0.3,1.4-0.1,2.6c-0.5,1.5-1.7,3-3.3,3.8c-0.6,0.3-1.1,0.5-1.2,1c-0.2,0.6,0.6,1,0.9,1.9c0.4,1.4-0.4,3.4-2.1,4.1
		c-1.1,0.5-2.1,0.1-2.3,0c-1.3-0.5-0.8-2-2.1-2.9c-1.1-0.9-2.9-0.9-3.3-0.2c-0.3,0.5,0.6,1.2,0.7,2.6c0.1,1.4-0.8,2.5-1,2.7
		c-1.5,2-3.6,1.1-5.3,3.2c-0.4,0.5-1.1,1.3-1,2.3c0.1,1.1,1.1,1.4,2.5,3.3c0.7,0.9,1.2,1.6,1.5,2.6c0.7,2.2-0.5,3.2,0.2,4.7
		c0.6,1.1,1.4,0.8,2.9,2.1c1.7,1.5,3.2,4.3,2.4,6.1c-0.5,1.1-1.6,1-2.5,2.6c-0.2,0.4-0.4,1.1-0.7,2.4c-0.5,2.1-0.7,3.2-0.7,4.5
		c0,1.1,0.2,1.5,0,2.5s-0.5,1.3-0.8,2c-0.5,1.4,0.4,3.3,2.1,7.1c0.5,1.2,0.8,1.6,0.8,2.3c0,1.4-0.8,1.9-0.7,3.3
		c0.1,1,0.6,1.3,0.3,1.8c-0.3,0.8-1.5,0.9-1.7,1c-1.9,0.3-2.5-1.2-4-1s-2.9,1.9-2.9,3.5s1.3,1.8,1.6,3.7c0.3,2-1,3.8-2,5.1
		c-1,1.4-1.9,2.6-3.5,2.9c-1.1,0.2-2.4-0.4-5.2-1.7c-2.2-1-2.7-1.5-2.8-2.2c-0.1-0.8,0.5-1.4,0.1-2.1c-0.2-0.4-0.8-0.7-1.2-0.5
		c-0.7,0.3-0.6,2-0.5,2.3c0.2,1.9,1.1,2.1,1.4,3.8c0.4,2-0.7,2.4-0.2,3.9c0.4,1.2,1.5,2,2.9,2.9c1.5,1,1.8,0.8,3.2,1.7
		c0.7,0.5,1.9,1.3,2.8,2.8c0.4,0.7,1.3,2.1,1.3,3.9c0,1.4-0.6,1.6-1.3,4c-0.8,2.6-0.3,2.8-1,4.4c-1,2.3-2.9,3.5-3.6,4
		c-0.6,0.4-2.9,1.8-6,1.7c-2.5-0.1-2.9-1.1-4.5-0.5c-1.7,0.6-2,2.1-3.9,2.3c-1,0.1-1.8-0.2-2.1,0.2c-0.3,0.5,0.3,1,0.1,1.9
		c-0.2,1.1-1.3,1.1-1.5,2c-0.1,0.7,0.3,1,1.1,2.7c0.2,0.4,0.7,1.3,0.9,2.2c0.6,2.1-0.5,2.6-0.1,4.6c0.4,2.4,2.2,3,1.9,5
		c-0.1,0.6-0.8,1-0.8,1.8c0,0.6,0.4,0.7,0.4,1.3c0,0.7-0.6,0.8-0.9,1.9c-0.1,0.4-0.3,1,0,1.3c0.2,0.2,0.6,0.3,0.8,0.2
		c0.4-0.1,0.5-0.5,1-0.9c0.1-0.1,0.6-0.5,1.3-0.6c0.7-0.1,1.3,0.1,1.8,0.4c0.8,0.4,0.9,0.7,2.3,1.8c1.3,1.1,1.6,1.2,1.8,1.1
		c0.2-0.1,0.1-0.4,0.2-1.4c0.1-0.5,0.1-0.9,0.3-1.5c0.1-0.4,0.3-0.9,0.8-1.4c0.3-0.2,0.5-0.4,0.8-0.4c0.5,0,0.9,0.6,1.3,1.1
		c0.4,0.6,0.4,0.8,0.8,1.2c0.2,0.2,0.5,0.5,0.9,0.6c0.5,0.1,0.6-0.1,1,0c0.1,0,0.5,0.1,1.2,1.1c0.4,0.6,0.7,1.2,0.7,1.3
		c0.4,0.9,0.7,1,2.9,3.4c0.8,0.9,1.2,1.4,1.7,1.9c1.1,1.4,1.1,1.7,1.8,2.4c0.6,0.7,1.4,1.4,2.5,1.8c0.1,0,2.1,0.7,3.9-0.2
		c0.8-0.4,1-0.8,2-1.1c0.4-0.1,1.1-0.4,1.9-0.2c0.7,0.2,1,0.5,1.6,1.1c2.7,2.6,2.8,2.4,3.1,3c0.6,1.1,0.7,2.3,0.8,2.9
		c0,1.5-1,2-0.7,3c0.2,0.5,0.7,0.9,1.7,1.6c1.4,1,2.7,1.5,3,1.7c1.7,0.7,1.9,0.5,3.5,1.2c1.1,0.5,1.8,0.8,2.5,1.5
		c0.2,0.2,1.1,1,1.7,2.4c0.4,1,0.6,1.7,0.5,2.2c0,0.4,0,0.8-0.3,1c-0.4,0.3-0.8,0-1.2,0.3c-0.4,0.3-0.4,1-0.3,1.1
		c0,0.8,0.5,0.9,0.4,1.5c-0.1,0.4-0.4,0.5-0.6,1c-0.2,0.6-0.2,1.1-0.2,1.3c0.1,1.3-0.7,2.6-1.1,3.8c-0.7,2-0.3,3.9,0.2,5.9
		c0.4,2,0.9,4.3,2.3,4.6c1,0.2,1.4-0.9,3.7-1.3c1.2-0.2,1.1,0.1,2.8-0.2c1.1-0.2,1.6-0.4,2.7-0.3c0.8,0,1.2,0,1.6,0.2
		c1.2,0.5,1,1.6,2.6,3.7c0.7,0.8,0.9,1,1.1,1.6c0.3,0.9-0.1,1.3,0,2.4c0,0.9,0.3,0.9,0.9,2.8c0.5,1.7,0.8,2.5,0.5,3.4
		c0,0.1-0.5,1.6-1.5,1.8c-1,0.2-1.7-0.8-2.2-0.5c-0.4,0.2-0.3,0.9-0.3,1.9c0.1,1.1,0.1,1.8,0.6,2.4c0.1,0.1,0.3,0.3,1.7,0.8
		c1.9,0.6,2.1,0.4,2.8,0.9c0.2,0.1,0.7,0.6,1.7,1.5c0.8,0.8,0.9,0.8,1,0.9c1.1,0.2,1.8-1.6,2.9-1.4c0.6,0.1,0.7,0.6,1.4,1.3
		c0.8,0.8,1.6,1.1,3.1,1.6c2.2,0.7,3.8,1.3,5.5,0.8c1.5-0.4,1.7-1.2,3.7-1.6c1-0.2,1.9-0.4,2.5,0.1c1,0.7,0.9,2.4,0.8,3.8
		c-0.2,2.8-1.2,4.5-0.7,4.8c0.4,0.3,1.2-1.2,2.9-1.3c1.4-0.1,2.1,0.8,2.7,0.4c0.7-0.5-0.2-1.8,0.4-3.4c0.5-1.4,1.4-1.3,3.4-3.5
		c1.6-1.9,1.2-2.2,2.2-2.8c1.2-0.8,2-0.4,4.7-1.5c0.7-0.3,1.1-0.5,1.5-1c0.6-0.8,0.4-1.4,0.7-2.4c0.4-1.2,1-1.2,1.8-2.4
		c1.5-2.3,0.6-4.5,1.7-5c0.7-0.3,1.1,0.6,2.4,0.6c1.8,0,3.7-1.8,4.4-3.7c0.5-1.4,0.3-2.5,1-2.9c0.6-0.3,0.9,0.3,1.7,0.1
		c1.4-0.3,1.3-2.5,2.9-3c0.6-0.2,0.6,0.1,2.1,0.2c1.9,0.1,2-0.5,3.3-0.3c1.9,0.2,2.1,1.3,3.8,1.3c1.2,0,1.8-0.5,2.2-0.2
		c0.5,0.5-0.5,1.6-0.1,3.1c0.4,1.3,1.6,1.2,2.1,2.4c0.6,1.5-0.9,2.1-0.7,4.2c0.2,1.9,1.5,2.1,1.6,4.1c0,1.4-0.6,2-0.1,2.6
		c0.6,0.9,1.9,0.4,2.4,1.3c0.3,0.6-0.2,1.1,0.2,1.7c0.2,0.4,0.7,0.8,1.2,0.8c0.8,0,1.6-0.9,1.8-1.7c0.3-1.2-0.5-1.9,0-2.8
		c0.3-0.5,0.6-0.4,1.2-1c0.1-0.2,0.4-0.5,0.9-2.1c0.5-1.5,0.5-1.7,0.8-2.3c0.2-0.4,0.6-1,1.3-1.3c0.5-0.2,1-0.2,2-0.2
		c0.9,0,1.4,0,2.2,0.3c0.8,0.2,0.9,0.5,1.7,0.6c0.2,0,0.8,0.1,1.4,0.1c0.4,0,1.3-0.2,3.1-1.4c1-0.7,0.8-0.7,2-1.6
		c1.6-1.2,2.4-1.8,3.2-1.7c1.1,0,1.4,0.7,2.1,0.4c0.7-0.3,1.2-1.1,1.2-1.9c0.1-0.9-0.5-1.1-0.3-1.8c0.2-0.7,0.8-0.6,1.3-1.6
		c0.5-0.9,0.1-1.3,0.6-2.1c0.4-0.7,0.8-0.7,1.3-1.2c1.4-1.4,1.2-3.9,1.2-4.2c-0.1-1.4-0.7-1.9-0.3-3.1c0.1-0.4,0.3-1.1,0.9-1.4
		c0.6-0.3,1,0.2,1.7-0.1c0.4-0.2,1-0.5,1-1c0.1-0.6-0.6-0.9-0.5-1.5s0.6-0.7,1-1.2c0.7-0.9,0.1-2.1-0.1-3.8c-0.2-1.3,0.2-1,0.5-4.5
		c0.4-3.5,0.1-4.8,1-5.4c0.6-0.4,1.2-0.3,1.9-0.3c0.3,0,2,0.2,3.1,1.5c1.2,1.6,0.2,3.3,1.2,3.9c0.7,0.5,1.4-0.4,3.3-0.4
		c2.1-0.1,2.6,1,3.6,0.7c2.3-0.6,3.9-6.9,1.7-11.1c-1.5-2.8-2.8-4.6-2.8-4.6c-0.6-0.8-1.2-1.5-1.5-2.8c-0.1-0.4-0.4-1.9,0.4-2.9
		c0.6-0.7,1.2-0.5,1.9-1c1.7-1.1,0.3-3.8,1.7-5.9c1.3-2.1,3.3-0.5,6.6-3c2.8-2,2.8-4.1,5.5-4.9c0.8-0.2,1.7-0.3,2.4-1
		c0.4-0.5,0.4-0.9,1-2.9c0.5-1.8,0.6-1.7,0.8-2.7c0.4-1.8,0-1.9,0.3-3.3c0.5-2,1.2-2,1.5-3.8c0.2-1.4-0.1-1.7,0.3-2.8
		c0.4-1.2,1.1-1.6,0.9-2.2c-0.2-0.8-1.5-1.1-2-1.2c-1-0.3-1.2,0-2-0.3c-0.6-0.3-0.7-0.6-1.3-0.7c-0.1,0-0.8-0.1-1.2,0.3
		c-0.6,0.5-0.4,1.2-0.9,1.5c-0.3,0.2-0.8,0-1-0.1c-1.8-0.6-4.3,0.2-5.6,1.3c-0.7,0.6-0.7,1-1.4,1.2c-1.2,0.3-2.3-0.6-2.4-0.7
		c-0.1-0.1-1.1-0.9-0.9-1.5c0.2-0.5,1.2-0.3,1.3-0.8c0.2-0.5-1.1-1.1-1-1.8c0.1-0.6,1-0.6,1.4-1.4c0.4-0.9-0.3-1.5,0.1-2.5
		c0.3-0.7,0.7-0.6,1.1-1.4c0.4-0.8,0.3-1.3,0.4-2.2c0,0,0.3-1.5,1.3-2.7c1.3-1.5,2.5-0.8,4.4-2.2c1.2-0.9,0.8-1.3,2.4-3
		c2.3-2.4,4-2.7,4-3.8c0-0.8-0.9-0.8-1.9-2.7c-0.7-1.3-0.4-1.6-1-2.3c-0.9-1.1-1.9-0.9-2.3-1.7c-0.4-0.9,0.4-1.6,0-2.2
		c-0.5-0.7-1.8,0-2.4-0.7c-0.7-0.8,0-3.2,1.3-3.8c0.6-0.3,1,0.1,1.4-0.3c0.7-0.6-0.1-1.8,0.6-3c0.5-0.9,1.3-0.6,2.4-1.6
		c0.9-0.8,0.9-1.5,1.4-2.4c1.3-2.2,3.4-1.8,3.7-3c0.4-1.7-3.8-2.7-5.3-6.8c-0.1-0.3-1.4-3.9,0.3-6.3c0.7-1,1.3-0.8,3.7-2.7
		c1.9-1.6,3.1-2.5,3-3.7c-0.1-1-0.9-2-1.9-2.3c-1.2-0.3-2.1,0.7-2.9,0.2c-0.7-0.4-0.4-1.3-1.1-1.6c-0.6-0.2-1,0.3-1.6,0
		c-0.5-0.2-0.4-0.7-0.8-1c-0.8-0.8-2.9-0.5-4.1,0.6c-0.9,0.8-0.8,1.5-1.4,1.6c-0.7,0.1-1.2-1-2.5-2.7c-2.1-2.8-2.9-2.7-3.2-4.1
		c-0.3-1.4-0.1-3,0.9-4.2c1.4-1.7,3.8-1.9,3.8-2.2c-0.1-0.2-1.6,0.3-2.9-0.5c-0.6-0.4-0.7-0.9-1.1-0.9c-0.5,0-0.7,0.4-1.9,1.7
		c-1.1,1.2-1.4,1.3-1.6,1.4c-0.9,0.3-1.4-0.9-2.5-1c-0.7-0.1-1.2,0.4-2.4,1.1c-1.1,0.7-2.4,1.2-5.1,2.2c-2.2,0.8-3.3,1.2-4,1.1
		c-1.9-0.2-3.8-1.8-4.3-3.7c-0.4-1.4,0.3-2,0.2-4.5c-0.1-1-0.1-1.9-0.5-3.1c-0.8-2.2-1.8-2.3-1.8-3.5s1.2-1.5,3-3.8
		c1.4-1.8,2.1-2.8,2.1-4c-0.1-2.2-2.6-4.2-4.6-5s-3.2-0.2-3.8-1.2c-0.9-1.2,0.5-2.7-0.4-4.5c-0.5-0.8-1.5-1.7-2.4-1.6
		c-1.2,0.2-1.4,2.1-2.4,2.2c-0.9,0.1-1.8-1.2-2.2-2.3c-0.7-1.9,0.4-3.3-0.3-3.8s-2.7,0.5-3.9,1.8c-1.1,1.2-1,1.9-2,2.4
		c-1.1,0.6-1.6-0.1-3.1,0.2c-2.2,0.5-2.7,2.2-3.9,2s-1.3-2-2.7-2.4c-1.1-0.4-1.7,0.7-2.9,0.7c-2.2,0-3.1-4.3-3.9-4.1
		c-0.4,0.1-0.2,1.1-0.9,1.6c-0.8,0.6-2.2,0-2.4-0.1c-2-0.9-3.1-3.8-2.6-6.3c0.4-2,1.7-3.5,1.6-3.6c-0.2-0.2-2,3-3.8,2.7
		c-0.5-0.1-0.5-0.4-2-1.8c-1.2-1.2-1.8-1.8-2.8-2.3c-1.6-0.8-2.1-0.4-2.7-1c-0.9-1.1-0.3-3,0.2-4.5c0.7-2.4,1.6-2.8,1.3-3.8
		c-0.4-1.4-2.5-1.1-3.1-2.9c-0.3-1,0-2.1,0.1-2.6c0.3-1.1,0.7-1.2,0.8-2c0.1-1.3-0.8-1.5-1-3C490.6,874.7,492,873.7,491.4,872.9z"/>
</g>
<g id="colorado_x5F_river">
	<g>
		<path class="st16" d="M379.9,1048.2c0.3-0.3,0.6-0.9,0.8-1.7c0.1-0.2,0.3-1.3-0.2-2.8s-1.2-1.9-2-3.2c-0.1-0.1-1.5-2.3-1.4-4.9
			c0.1-2.9,1.9-3.1,1.9-6.1c0-1.9-0.8-2.9-0.1-4.1c0.5-0.8,1-0.5,1.9-1.5c0.6-0.6,0.5-0.9,1.6-3.1c0.8-1.5,1-1.8,1.3-1.9
			c0.9-0.2,1.4,0.9,2.1,0.7c0.9-0.2,0.4-2.1,1.5-4.2c0.8-1.5,2.5-3.5,4.1-3.4c1.1,0.1,1.5,1,3.1,1c0.5,0,1,0,1.4-0.4
			c0.5-0.5,0.2-1.1,0.7-1.6c0.4-0.4,0.8-0.3,1.3-0.6c1.2-0.6,1.5-2.9,0.9-4.7c-0.5-1.4-1.6-2.2-2-2.6c-1.5-1.2-2.5-0.9-2.8-1.8
			c-0.2-0.5,0.1-0.8,1.1-3.4c0.8-2.1,0.9-2.6,0.8-3.2c-0.1-1.1-0.7-1.1-0.7-2c-0.1-1.3,0.8-2.6,1.8-3.3c0.7-0.4,1.1-0.4,1.8-0.6
			c2.3-0.7,3.4-3.3,4.5-5.6c1-2.3,1.5-4.4,1.6-5c0.5-2.9,0.1-3.8,1.1-5.1c0.9-1.2,1.6-1.1,2.6-2.6c0.8-1.3,0.7-1.8,1.4-2.3
			c1-0.7,1.9-0.2,3.5-0.4c2-0.3,4.4-1.8,4.7-3.6c0.3-1.9-1.7-4.3-3.2-5.4c-0.8-0.6-1.7-1-1.9-2c-0.1-0.7,0.3-1.1,0.4-2.3
			c0.1-1-0.2-1.1-0.3-2.4c-0.2-2.2,0.6-2.6,0.1-3.8c-0.5-1.1-1.2-0.8-1.7-2c-0.5-1.1,0.1-1.6-0.5-3c-0.4-1-0.8-1-0.9-1.8
			c-0.2-1,0.3-1.3,0.8-3.2c0.7-2.3,0.4-3.1,1.3-4.3c0.5-0.7,0.7-0.5,1.1-1.1c0.6-0.9,0.7-1.6,1-4.4c0.2-1.9,0.3-2.8,0.3-3
			c0-2.8-0.8-2.8-0.5-4.5c0.3-1.8,1.3-2.2,1.4-4.2c0-0.8-0.1-0.8-0.2-1.8c-0.1-1.9,0.5-2.6,1.3-5.9c0.5-2.1,0.5-2.5,0.4-2.8
			c-0.2-1.5-1-1.8-1-2.9c0-1.6,1.9-2.9,2.3-3.1c1.8-1.1,4.4-1.1,6.2,0c1.2,0.7,1,1.2,3.9,4.1c1.5,1.5,1.8,1.7,2.3,1.7
			c1.1,0,1.4-1.4,3.8-3.3c1.6-1.3,2-1.1,2.2-1.1c0.5,0.3,0,1.4,0.6,2.7c0.4,0.9,0.9,0.8,1.9,2.1c0.6,0.8,0.9,1.5,1.2,2.3
			c0.5,1.1,0.5,1.5,1,3.3c0.6,2.1,0.9,3.1,1.4,3.7c0.7,0.9,0.9,0.6,2.5,2.1c1.2,1.2,1.3,1.6,2.1,1.9c0.9,0.3,2.1,0.1,2.9-0.6
			c1.2-1.1,0.7-2.7,1.2-5.6c0.4-2.1,1.7-4.3,1.7-4.3c0.6,0.3,1.4,0.5,2.3,0.2c1-0.3,1-1.1,2.1-1.9c0.9-0.6,1.8-0.8,3.3-1
			s2-0.1,3.3-0.2c3.4-0.3,6.2-1.6,6.6-1.9c1.8-0.9,2.2-1.5,3.3-1.4c1.4,0.1,2.9,1.1,2.9,2.1c0,1.1-2.1,1.4-2.3,2.9
			c-0.1,0.9,0.5,2,1.2,2.3c1.1,0.3,1.8-1.1,2.7-0.8c1.1,0.4,0.3,2.6,1.9,4.5c0.4,0.5,0.5,0.4,2.9,1.9c3.4,2.1,3.5,2.4,4.3,2.5
			c2,0.1,4.4-1.8,5-3.9c0.6-2.2-1-2.9-0.8-5.8c0.1-0.9,0.3-1.7,2.7-5.8c2.3-3.9,3.4-5.9,4-6.5c2.4-2.3,3.7-1.6,7.6-4.8
			c2.3-1.9,1.9-2.1,3.3-2.8c2.5-1.2,3.8-0.4,8.5-1.2c2.7-0.5,4-0.8,4.8-1.9c1.1-1.6,0.2-3.4,1.4-4.3c0.8-0.6,1.3,0,2.7-0.4
			c2.4-0.7,4.2-3.1,3.7-3.9c-0.3-0.6-1.8-0.3-1.9-0.6c-0.1-0.5,2.3-1.1,5-2.7c2.1-1.3,3.9-2.4,4.5-4.3c0.6-1.8-0.1-3,0.8-3.7
			c0.8-0.6,1.7,0,3.3-0.2c0.8-0.1,1.8-0.3,4.5-2.3c3-2.1,3-2.6,5.6-4.5c3.8-2.8,4.7-2.4,5.6-4.1c1-2.1,0.1-3.8,1.7-5.2
			c0.8-0.7,1.3-0.5,2.7-1.2c1.7-1,2.3-2.1,3.3-3.3c2.6-3,4.2-2.1,7.2-5c2.1-2,1.2-2.4,3.9-5.8c2.3-2.9,4.3-5.4,7.2-5.6
			c2.4-0.2,4.3,1.2,4.8,1.4c2.4,1.6,2.1,3.3,4.1,4.3c1.8,0.9,4.2,0.5,5.8-0.4c2.5-1.5,1.9-3.8,3.9-6.6c2.9-4,8.1-4.9,9.9-5.2
			c5.2-0.9,6.3,1.4,13.4,0.6c3.4-0.4,5.3-0.6,7-2.1c2.5-2.1,1.8-4.5,4.8-6.4c1.4-0.9,3.7-1.7,5.2-0.8c1.1,0.6,0.9,1.6,1.7,1.9
			c1.6,0.5,2.7-3.7,6.6-5.2c1.8-0.7,3.8-0.7,6.6-0.6c1.1,0,2.3,0.1,3.9-0.2c1.6-0.3,3-0.6,3.7-1.7c0.4-0.6,0.3-1,0.4-2.9
			c0.1-1.3,0.3-2.4,0.4-3.1"/>
		<path class="st16" d="M395.1,1013.9c0.3-0.1,0.7-0.1,1,0c0.4,0.2,0.5,0.4,0.8,0.5c0.3,0,0.5-0.1,0.9-0.3c0.7-0.4,0.7-0.6,1-0.6
			c0.6-0.1,1.1,0.4,1.2,0.5c0.2,0.2,0.2,0.3,0.5,1.1s0.4,1.1,0.5,1.2c0.4,0.7,1.4,0.9,1.8,1c0.3,0.1,0.7,0.1,2.4-0.1
			c1.8-0.2,1.8-0.4,2.4-0.3c1.3,0.1,1.4,0.7,2.4,0.8c1.6,0.2,2-1.1,4.1-1.4c1.9-0.3,2,0.7,4.1,0.4c1.7-0.2,1.8-0.9,3.6-1
			c1.5-0.1,1.6,0.4,2.9,0.3c1.1-0.1,1.3-0.5,3.7-1.6c1.9-0.9,2.8-1.3,3.8-1.4c1.6-0.1,2,0.6,3,0.3c1.4-0.5,1.5-2.1,2.5-2.2
			c0.9,0,0.9,1.2,2.5,2.1c1.4,0.8,2.3,0.2,3.1,1.1c0.6,0.7,0.5,1.4,1.1,1.6c0.6,0.3,1.4-0.1,1.9-0.5c0.2-0.2,0.9-1.1,0.3-5.2
			c-0.4-2.8-0.9-3.6-0.4-4.2c0.4-0.5,1.6-0.5,4-0.5c2.5,0,2.7,0.1,4.2,0c1.9-0.2,2.1-0.5,2.9-0.3c1.4,0.3,2.1,1.6,3.1,3.3
			c1.8,3.1,1.5,4.5,3.1,5.5c0.4,0.3,0.3,0.1,2.7,0.8c2.4,0.7,3.6,1.1,4.4,1.6c1.3,0.9,1,1.3,2.6,3.1s2.8,3.2,4.5,3.4
			c2.1,0.3,2.6-1.4,5.7-1.5c1.4,0,1.5,0.3,4,0.4c2.8,0.1,2.8-0.3,3.7,0c2.9,0.9,2.8,5,4.9,5.3c1.2,0.2,1.3-1.1,4.1-2.6
			c2.6-1.4,5.1-1.8,6.8-2.1c1.6-0.2,2.4-0.4,3.1-0.3c3.3,0.4,5.5,3.3,7.1,5.3c0.6,0.7,1.4,2.1,3,4.8c1.9,3.1,2.5,4.3,4.1,5.3
			c0.7,0.5,1.9,1.2,3.4,1.1c2.8-0.2,3.3-2.9,6.2-3.3c1.8-0.2,3.8,0.6,4.5,1.9c0.4,0.9,0,1.4,0.1,3c0,0,0.2,2.2,1.4,4.2
			c1.1,1.8,3.6,4.4,7.2,4.4c3,0,6.1-1.7,7.1-4.1c0.8-1.7,0-2.8,1.2-5.7c0.8-1.8,1.5-2.4,2.1-2.6c1-0.4,2.1-0.2,2.7,0
			c1.8,0.4,2.2,1.4,3,1.1c0.7-0.3,0.5-1.1,1.5-1.9c0.8-0.7,1.5-0.5,1.8-1.1c0.2-0.4,0.3-1-0.4-2.2"/>
		<path class="st16" d="M463.1,1013.5c0.2,0.5,0.4,1.2,0.7,2.1c0.5,2,0.4,2.7,0.8,3.8s0.9,1.3,2.5,3.2c1.1,1.3,0.7,0.9,3.6,4.8
			c2.5,3.3,2.8,3.5,3.3,4.7c0.8,1.9,0.4,2.1,1.2,3.8c0.5,1.1,1.5,2.2,3.4,4.4c1.4,1.5,2,2.3,3,3.3c2.3,2.3,2.9,2.5,3.3,3.7
			c0.2,0.5,0.2,1.6,0.1,3.7c0,1.8-0.1,1.9-0.1,3.6c0,2.3,0.1,2.3,0,3.6c-0.1,0.7-0.2,2-0.8,3.4c-0.7,1.7-1.2,1.7-2.2,3.6
			c-0.6,1.2-0.9,2.1-1.2,3.4c-0.6,2.3-1,3.4-0.8,4.8c0.3,2.3,1.5,3.9,2.1,4.5c0.7,0.8,1.4,1.6,2.6,1.9c0.9,0.2,1.7,0,2.2-0.1"/>
		<path class="st16" d="M496.9,1026.7c0.2,0.5,0.6,1.3,0.7,2.3c0.1,1.2-0.1,1.7,0,2.9c0,0.6,0.1,0.9,0.7,2.6c0.9,2.7,1.3,4,1.5,4.5
			c1.1,2.5,1.5,2.3,1.8,3.6c0.4,2.1-0.8,2.7-0.5,4.8c0.2,1.7,1,1.5,2.3,4.7c0.9,2.1,1.7,4,1,5.6c-0.4,0.9-0.9,0.9-1.2,1.9
			c-0.2,0.5-0.3,1.4,0.4,4c0.9,2.9,1.4,2.9,1.5,4.4c0.1,1.6-0.5,1.6-0.5,3.8c0,1.4,0.2,1.5,0.3,3.8c0,1,0.1,2.1,0,3.6
			c-0.2,2.4-0.7,4.8-0.7,4.8l0,0"/>
		<path class="st16" d="M458.3,1005.6c0.5,0,1.1,0,2,0.1s1.4,0.1,2.2,0.2c2,0.2,3.1,0.3,4.1,0.3c0.9,0,1.6-0.1,3.1-0.3
			c2.3-0.3,3.5-0.4,4.7-0.9c1.9-0.7,1.6-1.1,2.8-1.3c2-0.4,2.6,1,5.5,1.2c0.8,0.1,2.4,0.1,4.1-0.6c2.3-0.9,2.4-2.1,3.8-2.2
			c2-0.1,2.4,2.4,5.1,3c2.2,0.5,4.8-0.5,6.4-1.8c1.7-1.5,1.7-3,3-3.1c1.2-0.2,1.5,1,3.6,1.5c1.7,0.4,2.2-0.1,3.4,0.4
			c0.8,0.3,1.9,1,2.8,2.9"/>
		<path class="st16" d="M425.7,901.5c0.4-0.4,0.9-1.1,1.3-2.1c0.5-1.3,0.4-1.9,0.8-3.1c0.5-1.5,1-1.5,1.9-3.1
			c1.2-2.1,0.5-2.6,1.6-4.9c0.5-1,1.2-2.6,2.9-3.9c2-1.5,4.2-1.7,4.7-1.8c1.4-0.1,1.6,0.2,2.4-0.2c1.6-0.6,1.5-2,3.1-2.8
			c1-0.5,1.3,0,2.9-0.3c0.7-0.2,1-0.3,3.4-1.6c3.8-2,4.3-2.3,5.2-2.3c0.9,0,1.3,0.3,2.1,0c1.2-0.4,1.3-1.2,2.3-1.6
			c1.4-0.6,3.1,0.1,4,0.5c1.4,0.6,1.6,1.1,3.4,1.9c0.7,0.3,1.4,0.5,1.8,0.6"/>
		<path class="st16" d="M493.5,914.2c0.4,0,1.1,0.1,1.5,0.6s0.2,1.3,0,2.3c-1,4.2-1,4.6-0.8,5.1c0.3,0.8,1,1.2,2.3,2.1
			c1.6,1,2.1,0.8,3,1.6c1.2,1.1,1.6,2.5,1.7,3c0.4,1.7-0.2,2.3-0.2,5c0,1.5,0.2,2.5,0.5,4.2c0.5,2.9,0.8,4.3,1.7,5.3
			c1,1.1,1.7,0.8,2.5,2s0.4,1.9,1.3,3c0.8,1,1.8,1.4,2.1,1.5c1.4,0.6,2,0.1,2.5,0.7c0.7,0.7-0.2,1.7,0.5,2.8
			c0.6,0.9,1.5,0.5,2.1,1.3c1,1.3-1.1,3.1-0.2,5.2c0.5,1.2,1.6,1.8,2.2,2.1c1.8,1,2.7,0.1,4.5,1c1.3,0.7,1,1.2,2.5,2.2
			c2,1.3,2.8,0.6,3.7,1.6c1.2,1.4-0.2,3,1.2,4.6c0.5,0.6,0.5,0.3,2.8,2c1.3,1,1.5,1.3,1.7,1.6c0.6,1.1,0.4,1.8,0.9,2.1
			c0.7,0.4,1.3-0.5,2.5-0.3c0.4,0.1,0.5,0.2,2.3,1.4s2.1,1.3,2.4,1.4c1.1,0.3,1.4-0.2,2.1,0.1c1.4,0.7,1.5,3,1.5,3.1
			c0,0.3,0,1.6-0.8,2.8c-0.5,0.7-1,0.9-1,1.4c0,0.7,0.8,0.8,0.9,1.6c0.1,0.7-0.5,0.8-0.6,1.6s0.4,1.1,0.7,2.1
			c0.2,0.6,0.4,1.5,0.2,2.8"/>
		<path class="st16" d="M522.3,886.5c0.4,0.2,1,0.6,1.8,0.8c0.6,0.2,2,0.5,2.8-0.2s0.6-1.9,1.1-1.9c0.5-0.1,0.8,1.4,1.9,1.8
			c0.8,0.3,1.2-0.4,2.9-1.1c1.2-0.4,3-1.1,4.7-0.5c0.9,0.3,1.4,0.8,2.2,0.6c0.7-0.2,0.8-0.8,1.2-0.8c0.8-0.1,1.3,1.4,2.7,3.4
			c1.2,1.9,1.9,2.9,2.9,3.3c0.9,0.4,2.1,0.1,4.3-0.5c3.2-0.9,3.5-1.4,5.4-1.6c1.7-0.1,3.1,0.2,4.1,0.4c1.9,0.5,3.2,0.8,4.2,1.9
			c0.5,0.4,0.8,0.9,2.1,5.3c0.8,2.5,0.9,2.9,1.4,4.2c1.3,3.4,2.1,3.9,2.5,4.2c1.2,0.7,1.9,0.2,2.7,1c1.1,1,0.3,2.2,1.2,3.4
			c1.1,1.5,2.6,0.5,5.9,2.2c1.8,0.9,2.2,1.7,3.6,1.7c1.2,0,1.7-0.5,2.7-0.2c1.1,0.4,0.9,1.3,2.1,1.9c0.6,0.3,0.7,0.1,2.7,0.4
			c2.3,0.2,2.3,0.4,3.4,0.4c0.5,0,1.6-0.1,2.7-0.6c1.4-0.6,1.4-1.2,2.7-1.7c1.2-0.4,1.3,0,2.8-0.4c0.8-0.2,2.7-0.6,3.8-2
			c0.9-1.2,0.4-2,1.4-3c0.2-0.2,1-0.9,2.1-0.8c1.2,0.1,1.5,1,2.6,0.8c0.6-0.1,0.6-0.4,1.3-0.6c0.9-0.2,1.1,0.2,1.9,0.1
			c0.8-0.1,1.4-0.7,1.9-1.2c0.7-0.7,1-1.5,1.2-2.1c0.5-1.2,0.3-1.6,0.6-2.5c0.4-1.2,1.2-1.8,2.2-2.7c0.9-0.8,2.4-1.9,4.8-2.7"/>
		<path class="st16" d="M554.6,857c0.1-0.4,0.1-0.9,0-1.6c-0.2-1.2-0.7-1.8-1.1-2.8c-0.1-0.3-0.7-1.6-0.7-2.9
			c-0.1-2.2,1.3-2.5,1.5-4.7c0.1-1.3-0.4-1.1-0.7-3.8c-0.3-2,0-2.2-0.3-4.2s-0.6-2.1-0.6-3.3c0-0.7,0.1-1.4,0.8-3.6
			c0.9-2.7,1.3-4,2.2-5.8c1-2.1,1.2-2.1,2.2-4.2c0.3-0.7,0.9-2.1,1.5-3.9c1.1-3.6,0.4-4.1,1.4-6.5c0.3-0.7,0.3-0.7,2.8-4.5
			c2.8-4.3,2.5-4.1,3-4.7c2.4-2.9,3.3-2.2,5.6-5.1c1.8-2.3,3-4.3,3-4.3c0.9-1.4,1.2-2.2,2.2-2.6c1.3-0.6,1.9,0.3,3.3-0.1
			c1.8-0.5,1.6-2.1,3.9-3.8c0.8-0.6,2.4-1.5,4.5-1.6c0.9,0,2.5,0,3.6,1.1c0.8,0.8,0.6,1.4,1.3,1.8c1.1,0.6,2-0.8,3.3-0.4
			c1.2,0.3,1.1,1.5,2.6,2.1c0.6,0.2,0.7,0.1,2,0.3c1.5,0.3,1.6,0.6,2.4,0.7c1.6,0.2,2.1-1.1,4.9-2c1.3-0.4,2.2-0.7,3.2-0.3
			c0.9,0.4,0.9,0.9,2.5,2.3c0.6,0.5,1.3,1.2,2.4,1.8c1.3,0.8,2,0.8,2.8,1.7c0.6,0.6,0.6,0.9,0.9,1c0.9,0.2,1.4-1.3,3.4-2.2
			c0.7-0.3,1.3-0.4,2.6-0.6c1.3-0.2,1.7-0.2,1.9-0.1c0.8,0.2,0.8,0.7,1.8,1c0.7,0.3,1.2,0.3,1.7,0.3c1.5,0.1,1.9-0.5,2.6-0.2
			c0.8,0.3,0.6,1.1,1.5,1.7c0.3,0.2,0.8,0.4,4.4,0.1c1.5-0.1,2-0.2,2.3,0.1c0.4,0.4,0,1,0,2.6c-0.1,1.8,0.4,1.9,0.1,2.8
			c-0.4,1.3-1.6,2.3-2.1,2.6c-0.9,0.7-1.3,0.6-1.6,1.1c-0.4,0.7-0.1,1.4,0.2,2.6c0.2,0.7,0.5,1.6,1.1,2.6"/>
		<path class="st16" d="M592.1,783c0-0.3,0.1-0.7,0.3-1.1c0.3-0.7,0.7-1,1.2-1.7c0.3-0.4,0.9-1.1,1.2-1.9c0.1-0.3,0.6-1.7,0.1-2.9
			c-0.6-1.4-2.2-2-2.7-2.2c-1.2-0.5-2-0.3-2.3-1c-0.3-0.6,0.2-0.9,0-1.5c-0.3-1-1.9-0.6-4.5-1.5c-2-0.7-2.7-1.5-3.7-1.1
			c-0.7,0.3-0.9,0.8-1.6,0.8c-0.7,0-1.5-0.4-1.7-1s0.4-1.2,0.7-1.7c0.9-1,1.6-0.9,2-1.7c0.3-0.6,0-0.8,0.1-2.1
			c0.2-1.7,1-1.9,0.8-3.2c-0.1-1-0.6-1-0.5-1.8c0-0.4,0.2-1,2.6-2.9c1.6-1.3,1.8-1.2,2.2-1.8c0-0.1,1.2-1.8,0.7-3.6
			c-0.3-1-0.8-1.3-1.9-2.4c-2.3-2.6-3.3-5.5-3.6-6.5c-0.5-1.6-0.8-3.1-0.8-3.1c-0.4-2-0.2-2.5-0.8-3.3c-0.8-1.1-1.6-0.7-2.8-1.8
			c-1-0.8-1.4-2.1-2.3-4.7c-0.7-2.1-1.1-3.2-1.1-4.2c0-0.9,0.6-2.3,1.7-4.9c1.6-3.7,2.4-5.6,3.5-5.9c0.7-0.2,1.3,0,2.1-0.5
			c0.7-0.5,1-1.3,1.1-1.5c0.3-1.1-0.2-1.6-0.2-3c0-0.7,0.2-0.7,0.6-2.3c0.6-2.5,1-3.7,0.4-4.2c-0.7-0.7-1.9,0.2-2.8-0.6
			c-0.9-0.7-0.8-2.5-0.4-3.6c0.4-1.2,1-1.1,2.3-3.1c0.1-0.2,0.5-0.9,1.3-2.3c0.8-1.5,1.2-2.3,1.3-2.5c0.3-1.5-0.2-2,0.4-3.1
			c0.1-0.2,0.5-0.9,1.2-1.1c0.9-0.2,1.7,0.7,1.9,0.9c0.7,0.8,0.9,1.8,0.9,2.1c0.2,1-0.1,1.6,0.4,2.2c0.2,0.2,0.4,0.4,0.6,0.5"/>
	</g>
</g>
</svg>
